<svg xmlns="http://www.w3.org/2000/svg" xmlns:xlink="http://www.w3.org/1999/xlink" width="600" zoomAndPan="magnify" viewBox="0 0 450 299.999988" height="400" preserveAspectRatio="xMidYMid meet" version="1.0"><defs><filter x="0%" y="0%" width="100%" height="100%" id="21bd35537b"><feColorMatrix values="0 0 0 0 1 0 0 0 0 1 0 0 0 0 1 0 0 0 1 0" color-interpolation-filters="sRGB"/></filter><g/><mask id="b14257a370"><g filter="url(#21bd35537b)"><rect x="-45" width="540" fill="#000000" y="-29.999999" height="359.999986" fill-opacity="0.3"/></g></mask><clipPath id="fec6b8276f"><path d="M 0.375 0.523438 L 95.675781 0.523438 L 95.675781 143.476562 L 0.375 143.476562 Z M 0.375 0.523438 " clip-rule="nonzero"/></clipPath><clipPath id="31e02efa4c"><path d="M 48.023438 0.523438 L 95.675781 0.523438 L 48.023438 143.476562 L 0.375 143.476562 Z M 48.023438 0.523438 " clip-rule="nonzero"/></clipPath><clipPath id="71314559ce"><rect x="0" width="96" y="0" height="144"/></clipPath><mask id="05f8e238db"><g filter="url(#21bd35537b)"><rect x="-45" width="540" fill="#000000" y="-29.999999" height="359.999986" fill-opacity="0.3"/></g></mask><clipPath id="497f7c8701"><path d="M 1.007812 0.523438 L 96.308594 0.523438 L 96.308594 143.476562 L 1.007812 143.476562 Z M 1.007812 0.523438 " clip-rule="nonzero"/></clipPath><clipPath id="41c2e895b6"><path d="M 48.660156 0.523438 L 96.308594 0.523438 L 48.660156 143.476562 L 1.007812 143.476562 Z M 48.660156 0.523438 " clip-rule="nonzero"/></clipPath><clipPath id="0ad35317bb"><rect x="0" width="97" y="0" height="144"/></clipPath><mask id="f3aeedb41f"><g filter="url(#21bd35537b)"><rect x="-45" width="540" fill="#000000" y="-29.999999" height="359.999986" fill-opacity="0.3"/></g></mask><clipPath id="2423008e16"><path d="M 0.96875 0.523438 L 96.269531 0.523438 L 96.269531 143.476562 L 0.96875 143.476562 Z M 0.96875 0.523438 " clip-rule="nonzero"/></clipPath><clipPath id="648eae2842"><path d="M 48.617188 0.523438 L 96.269531 0.523438 L 48.617188 143.476562 L 0.96875 143.476562 Z M 48.617188 0.523438 " clip-rule="nonzero"/></clipPath><clipPath id="ef0ad0ce51"><rect x="0" width="97" y="0" height="144"/></clipPath></defs><g mask="url(#b14257a370)"><g transform="matrix(1, 0, 0, 1, 151, 78)"><g clip-path="url(#71314559ce)"><g clip-path="url(#fec6b8276f)"><g clip-path="url(#31e02efa4c)"><path fill="#6b6058" d="M 0.375 0.523438 L 95.675781 0.523438 L 95.675781 143.476562 L 0.375 143.476562 Z M 0.375 0.523438 " fill-opacity="1" fill-rule="nonzero"/></g></g></g></g></g><g mask="url(#05f8e238db)"><g transform="matrix(1, 0, 0, 1, 211, 78)"><g clip-path="url(#0ad35317bb)"><g clip-path="url(#497f7c8701)"><g clip-path="url(#41c2e895b6)"><path fill="#343e36" d="M 1.007812 0.523438 L 96.308594 0.523438 L 96.308594 143.476562 L 1.007812 143.476562 Z M 1.007812 0.523438 " fill-opacity="1" fill-rule="nonzero"/></g></g></g></g></g><g mask="url(#f3aeedb41f)"><g transform="matrix(1, 0, 0, 1, 272, 78)"><g clip-path="url(#ef0ad0ce51)"><g clip-path="url(#2423008e16)"><g clip-path="url(#648eae2842)"><path fill="#000000" d="M 0.96875 0.523438 L 96.269531 0.523438 L 96.269531 143.476562 L 0.96875 143.476562 Z M 0.96875 0.523438 " fill-opacity="1" fill-rule="nonzero"/></g></g></g></g></g><g fill="#ffffff" fill-opacity="1"><g transform="translate(7.043304, 169.367417)"><g><path d="M 28.15625 -12.390625 C 28.15625 -9.910156 27.507812 -7.734375 26.21875 -5.859375 C 24.9375 -3.992188 23.203125 -2.550781 21.015625 -1.53125 C 18.835938 -0.507812 16.453125 0 13.859375 0 L 1.15625 0 L 1.15625 -0.640625 C 2.445312 -0.671875 3.375 -0.890625 3.9375 -1.296875 C 4.5 -1.703125 4.78125 -2.484375 4.78125 -3.640625 L 4.78125 -21.171875 C 4.78125 -22.316406 4.476562 -23.085938 3.875 -23.484375 C 3.28125 -23.878906 2.375 -24.078125 1.15625 -24.078125 L 1.15625 -24.734375 L 14.9375 -24.734375 C 17.695312 -24.734375 20.078125 -24.144531 22.078125 -22.96875 C 24.085938 -21.789062 25.601562 -20.257812 26.625 -18.375 C 27.644531 -16.488281 28.15625 -14.492188 28.15625 -12.390625 Z M 8.671875 -22.75 L 8.671875 -1.796875 C 9.867188 -1.441406 11.164062 -1.265625 12.5625 -1.265625 C 14.769531 -1.265625 16.710938 -1.710938 18.390625 -2.609375 C 20.078125 -3.503906 21.375 -4.78125 22.28125 -6.4375 C 23.195312 -8.09375 23.65625 -10.003906 23.65625 -12.171875 C 23.65625 -14.328125 23.195312 -16.25 22.28125 -17.9375 C 21.375 -19.632812 20.082031 -20.960938 18.40625 -21.921875 C 16.738281 -22.878906 14.828125 -23.359375 12.671875 -23.359375 C 11.234375 -23.359375 9.898438 -23.15625 8.671875 -22.75 Z M 8.671875 -22.75 "/></g></g></g><g fill="#ffffff" fill-opacity="1"><g transform="translate(36.671357, 169.367417)"><g><path d="M 21.203125 -19.265625 L 20.59375 -19.265625 C 20.351562 -20.628906 19.90625 -21.640625 19.25 -22.296875 C 18.601562 -22.960938 17.707031 -23.296875 16.5625 -23.296875 L 8.75 -23.296875 L 8.75 -13.75 L 15.15625 -13.75 C 16.3125 -13.75 17.128906 -14.035156 17.609375 -14.609375 C 18.085938 -15.191406 18.335938 -16.109375 18.359375 -17.359375 L 19.015625 -17.359375 L 19.015625 -8.640625 L 18.359375 -8.640625 C 18.359375 -9.890625 18.117188 -10.8125 17.640625 -11.40625 C 17.160156 -12.007812 16.304688 -12.3125 15.078125 -12.3125 L 8.75 -12.3125 L 8.75 -3.28125 C 8.75 -2.050781 9.226562 -1.4375 10.1875 -1.4375 L 16.53125 -1.4375 C 17.84375 -1.4375 19.003906 -1.835938 20.015625 -2.640625 C 21.023438 -3.453125 21.84375 -4.625 22.46875 -6.15625 L 23.21875 -6.15625 L 21.203125 0 L 1.296875 0 L 1.296875 -0.640625 C 2.546875 -0.640625 3.453125 -0.847656 4.015625 -1.265625 C 4.578125 -1.691406 4.859375 -2.484375 4.859375 -3.640625 L 4.859375 -21.34375 C 4.859375 -22.300781 4.578125 -22.992188 4.015625 -23.421875 C 3.453125 -23.859375 2.546875 -24.078125 1.296875 -24.078125 L 1.296875 -24.734375 L 20.921875 -24.734375 Z M 21.203125 -19.265625 "/></g></g></g><g fill="#ffffff" fill-opacity="1"><g transform="translate(60.683406, 169.367417)"><g><path d="M 23.109375 -19.109375 L 22.421875 -19.109375 C 22.085938 -21.796875 20.640625 -23.140625 18.078125 -23.140625 L 13.9375 -23.140625 L 13.9375 -3.390625 C 13.9375 -2.304688 14.242188 -1.578125 14.859375 -1.203125 C 15.484375 -0.828125 16.375 -0.640625 17.53125 -0.640625 L 17.53125 0 L 6.4375 0 L 6.4375 -0.640625 C 7.71875 -0.640625 8.640625 -0.851562 9.203125 -1.28125 C 9.765625 -1.71875 10.046875 -2.503906 10.046875 -3.640625 L 10.046875 -23.140625 L 5.65625 -23.140625 C 4.519531 -23.140625 3.570312 -22.8125 2.8125 -22.15625 C 2.0625 -21.5 1.640625 -20.484375 1.546875 -19.109375 L 0.90625 -19.109375 L 1.078125 -24.734375 L 22.9375 -24.734375 Z M 23.109375 -19.109375 "/></g></g></g><g fill="#ffffff" fill-opacity="1"><g transform="translate(84.695455, 169.367417)"><g><path d="M 4.140625 -4.78125 L 13.359375 -25.8125 L 14 -25.8125 L 23.71875 -3.421875 C 24.082031 -2.609375 24.425781 -2.003906 24.75 -1.609375 C 25.070312 -1.210938 25.410156 -0.953125 25.765625 -0.828125 C 26.128906 -0.703125 26.625 -0.640625 27.25 -0.640625 L 27.25 0 L 17.09375 0 L 17.09375 -0.640625 C 17.957031 -0.640625 18.601562 -0.796875 19.03125 -1.109375 C 19.46875 -1.421875 19.6875 -1.84375 19.6875 -2.375 C 19.6875 -2.832031 19.53125 -3.394531 19.21875 -4.0625 L 17.359375 -8.3125 L 7.375 -8.3125 L 5.328125 -3.59375 C 5.085938 -3.113281 4.96875 -2.679688 4.96875 -2.296875 C 4.96875 -1.191406 5.851562 -0.640625 7.625 -0.640625 L 7.625 0 L 0.5 0 L 0.5 -0.640625 C 1.101562 -0.710938 1.585938 -0.882812 1.953125 -1.15625 C 2.328125 -1.4375 2.664062 -1.84375 2.96875 -2.375 C 3.269531 -2.90625 3.660156 -3.707031 4.140625 -4.78125 Z M 16.78125 -9.6875 L 12.390625 -19.734375 L 7.984375 -9.6875 Z M 16.78125 -9.6875 "/></g></g></g><g fill="#ffffff" fill-opacity="1"><g transform="translate(112.451507, 169.367417)"><g><path d="M 12.59375 -24.078125 C 11.351562 -24.078125 10.460938 -23.878906 9.921875 -23.484375 C 9.378906 -23.085938 9.109375 -22.289062 9.109375 -21.09375 L 9.109375 -3.03125 C 9.109375 -2.519531 9.207031 -2.15625 9.40625 -1.9375 C 9.613281 -1.726562 9.957031 -1.625 10.4375 -1.625 L 15.796875 -1.625 C 17.046875 -1.625 18.078125 -1.785156 18.890625 -2.109375 C 19.710938 -2.429688 20.414062 -2.957031 21 -3.6875 C 21.59375 -4.414062 22.164062 -5.453125 22.71875 -6.796875 L 23.328125 -6.59375 L 21.234375 0 L 1.515625 0 L 1.515625 -0.640625 L 1.765625 -0.640625 C 2.984375 -0.640625 3.863281 -0.851562 4.40625 -1.28125 C 4.945312 -1.71875 5.21875 -2.503906 5.21875 -3.640625 L 5.21875 -21.125 C 5.21875 -22.226562 4.9375 -22.992188 4.375 -23.421875 C 3.8125 -23.859375 2.929688 -24.078125 1.734375 -24.078125 L 1.515625 -24.078125 L 1.515625 -24.734375 L 12.59375 -24.734375 Z M 12.59375 -24.078125 "/></g></g></g><g fill="#ffffff" fill-opacity="1"><g transform="translate(136.463556, 169.367417)"><g><path d="M 12.59375 -24.078125 C 11.351562 -24.078125 10.460938 -23.878906 9.921875 -23.484375 C 9.378906 -23.085938 9.109375 -22.289062 9.109375 -21.09375 L 9.109375 -3.03125 C 9.109375 -2.519531 9.207031 -2.15625 9.40625 -1.9375 C 9.613281 -1.726562 9.957031 -1.625 10.4375 -1.625 L 15.796875 -1.625 C 17.046875 -1.625 18.078125 -1.785156 18.890625 -2.109375 C 19.710938 -2.429688 20.414062 -2.957031 21 -3.6875 C 21.59375 -4.414062 22.164062 -5.453125 22.71875 -6.796875 L 23.328125 -6.59375 L 21.234375 0 L 1.515625 0 L 1.515625 -0.640625 L 1.765625 -0.640625 C 2.984375 -0.640625 3.863281 -0.851562 4.40625 -1.28125 C 4.945312 -1.71875 5.21875 -2.503906 5.21875 -3.640625 L 5.21875 -21.125 C 5.21875 -22.226562 4.9375 -22.992188 4.375 -23.421875 C 3.8125 -23.859375 2.929688 -24.078125 1.734375 -24.078125 L 1.515625 -24.078125 L 1.515625 -24.734375 L 12.59375 -24.734375 Z M 12.59375 -24.078125 "/></g></g></g><g fill="#ffffff" fill-opacity="1"><g transform="translate(160.475605, 169.367417)"><g><path d="M 4.140625 -4.78125 L 13.359375 -25.8125 L 14 -25.8125 L 23.71875 -3.421875 C 24.082031 -2.609375 24.425781 -2.003906 24.75 -1.609375 C 25.070312 -1.210938 25.410156 -0.953125 25.765625 -0.828125 C 26.128906 -0.703125 26.625 -0.640625 27.25 -0.640625 L 27.25 0 L 17.09375 0 L 17.09375 -0.640625 C 17.957031 -0.640625 18.601562 -0.796875 19.03125 -1.109375 C 19.46875 -1.421875 19.6875 -1.84375 19.6875 -2.375 C 19.6875 -2.832031 19.53125 -3.394531 19.21875 -4.0625 L 17.359375 -8.3125 L 7.375 -8.3125 L 5.328125 -3.59375 C 5.085938 -3.113281 4.96875 -2.679688 4.96875 -2.296875 C 4.96875 -1.191406 5.851562 -0.640625 7.625 -0.640625 L 7.625 0 L 0.5 0 L 0.5 -0.640625 C 1.101562 -0.710938 1.585938 -0.882812 1.953125 -1.15625 C 2.328125 -1.4375 2.664062 -1.84375 2.96875 -2.375 C 3.269531 -2.90625 3.660156 -3.707031 4.140625 -4.78125 Z M 16.78125 -9.6875 L 12.390625 -19.734375 L 7.984375 -9.6875 Z M 16.78125 -9.6875 "/></g></g></g><g fill="#ffffff" fill-opacity="1"><g transform="translate(188.231657, 169.367417)"><g><path d="M 28.15625 -12.390625 C 28.15625 -9.910156 27.507812 -7.734375 26.21875 -5.859375 C 24.9375 -3.992188 23.203125 -2.550781 21.015625 -1.53125 C 18.835938 -0.507812 16.453125 0 13.859375 0 L 1.15625 0 L 1.15625 -0.640625 C 2.445312 -0.671875 3.375 -0.890625 3.9375 -1.296875 C 4.5 -1.703125 4.78125 -2.484375 4.78125 -3.640625 L 4.78125 -21.171875 C 4.78125 -22.316406 4.476562 -23.085938 3.875 -23.484375 C 3.28125 -23.878906 2.375 -24.078125 1.15625 -24.078125 L 1.15625 -24.734375 L 14.9375 -24.734375 C 17.695312 -24.734375 20.078125 -24.144531 22.078125 -22.96875 C 24.085938 -21.789062 25.601562 -20.257812 26.625 -18.375 C 27.644531 -16.488281 28.15625 -14.492188 28.15625 -12.390625 Z M 8.671875 -22.75 L 8.671875 -1.796875 C 9.867188 -1.441406 11.164062 -1.265625 12.5625 -1.265625 C 14.769531 -1.265625 16.710938 -1.710938 18.390625 -2.609375 C 20.078125 -3.503906 21.375 -4.78125 22.28125 -6.4375 C 23.195312 -8.09375 23.65625 -10.003906 23.65625 -12.171875 C 23.65625 -14.328125 23.195312 -16.25 22.28125 -17.9375 C 21.375 -19.632812 20.082031 -20.960938 18.40625 -21.921875 C 16.738281 -22.878906 14.828125 -23.359375 12.671875 -23.359375 C 11.234375 -23.359375 9.898438 -23.15625 8.671875 -22.75 Z M 8.671875 -22.75 "/></g></g></g><g fill="#ffffff" fill-opacity="1"><g transform="translate(217.85971, 169.367417)"><g><path d="M 13.859375 -25.265625 C 16.140625 -25.265625 18.238281 -24.6875 20.15625 -23.53125 C 22.082031 -22.382812 23.609375 -20.820312 24.734375 -18.84375 C 25.859375 -16.863281 26.421875 -14.695312 26.421875 -12.34375 C 26.421875 -10.019531 25.859375 -7.867188 24.734375 -5.890625 C 23.609375 -3.910156 22.082031 -2.34375 20.15625 -1.1875 C 18.238281 -0.03125 16.140625 0.546875 13.859375 0.546875 C 11.578125 0.546875 9.476562 -0.03125 7.5625 -1.1875 C 5.644531 -2.34375 4.125 -3.910156 3 -5.890625 C 1.882812 -7.867188 1.328125 -10.019531 1.328125 -12.34375 C 1.328125 -14.695312 1.882812 -16.863281 3 -18.84375 C 4.125 -20.820312 5.644531 -22.382812 7.5625 -23.53125 C 9.476562 -24.6875 11.578125 -25.265625 13.859375 -25.265625 Z M 5.828125 -12.34375 C 5.828125 -10.039062 6.15625 -8.019531 6.8125 -6.28125 C 7.476562 -4.539062 8.414062 -3.195312 9.625 -2.25 C 10.84375 -1.300781 12.253906 -0.828125 13.859375 -0.828125 C 15.460938 -0.828125 16.875 -1.300781 18.09375 -2.25 C 19.320312 -3.195312 20.265625 -4.539062 20.921875 -6.28125 C 21.585938 -8.019531 21.921875 -10.039062 21.921875 -12.34375 C 21.921875 -14.601562 21.597656 -16.609375 20.953125 -18.359375 C 20.304688 -20.109375 19.375 -21.46875 18.15625 -22.4375 C 16.945312 -23.414062 15.503906 -23.90625 13.828125 -23.90625 C 12.171875 -23.90625 10.738281 -23.410156 9.53125 -22.421875 C 8.332031 -21.441406 7.414062 -20.078125 6.78125 -18.328125 C 6.144531 -16.578125 5.828125 -14.582031 5.828125 -12.34375 Z M 5.828125 -12.34375 "/></g></g></g><g fill="#ffffff" fill-opacity="1"><g transform="translate(245.61575, 169.367417)"><g/></g></g><g fill="#ffffff" fill-opacity="1"><g transform="translate(254.615772, 169.367417)"><g><path d="M 12.59375 -24.078125 C 11.351562 -24.078125 10.460938 -23.878906 9.921875 -23.484375 C 9.378906 -23.085938 9.109375 -22.289062 9.109375 -21.09375 L 9.109375 -3.03125 C 9.109375 -2.519531 9.207031 -2.15625 9.40625 -1.9375 C 9.613281 -1.726562 9.957031 -1.625 10.4375 -1.625 L 15.796875 -1.625 C 17.046875 -1.625 18.078125 -1.785156 18.890625 -2.109375 C 19.710938 -2.429688 20.414062 -2.957031 21 -3.6875 C 21.59375 -4.414062 22.164062 -5.453125 22.71875 -6.796875 L 23.328125 -6.59375 L 21.234375 0 L 1.515625 0 L 1.515625 -0.640625 L 1.765625 -0.640625 C 2.984375 -0.640625 3.863281 -0.851562 4.40625 -1.28125 C 4.945312 -1.71875 5.21875 -2.503906 5.21875 -3.640625 L 5.21875 -21.125 C 5.21875 -22.226562 4.9375 -22.992188 4.375 -23.421875 C 3.8125 -23.859375 2.929688 -24.078125 1.734375 -24.078125 L 1.515625 -24.078125 L 1.515625 -24.734375 L 12.59375 -24.734375 Z M 12.59375 -24.078125 "/></g></g></g><g fill="#ffffff" fill-opacity="1"><g transform="translate(278.627833, 169.367417)"><g><path d="M 17.890625 -5.828125 L 26.5625 -24.734375 L 34.09375 -24.734375 L 34.09375 -24.078125 L 33.84375 -24.078125 C 32.6875 -24.078125 31.832031 -23.875 31.28125 -23.46875 C 30.726562 -23.0625 30.453125 -22.28125 30.453125 -21.125 L 30.453125 -3.5625 C 30.453125 -2.507812 30.71875 -1.757812 31.25 -1.3125 C 31.78125 -0.863281 32.664062 -0.640625 33.90625 -0.640625 L 34.09375 -0.640625 L 34.09375 0 L 22.9375 0 L 22.9375 -0.640625 L 23.25 -0.640625 C 24.382812 -0.640625 25.21875 -0.863281 25.75 -1.3125 C 26.289062 -1.757812 26.5625 -2.535156 26.5625 -3.640625 L 26.5625 -20.734375 L 26.5 -20.734375 L 16.984375 0 L 16.34375 0 L 6.84375 -20.734375 L 6.765625 -20.734375 L 6.765625 -3.59375 C 6.765625 -2.445312 7.03125 -1.675781 7.5625 -1.28125 C 8.09375 -0.882812 8.976562 -0.671875 10.21875 -0.640625 L 10.21875 0 L 1.546875 0 L 1.546875 -0.640625 L 1.765625 -0.640625 C 2.910156 -0.640625 3.757812 -0.847656 4.3125 -1.265625 C 4.863281 -1.691406 5.140625 -2.484375 5.140625 -3.640625 L 5.140625 -20.515625 C 5.140625 -21.648438 4.851562 -22.5 4.28125 -23.0625 C 3.707031 -23.625 2.796875 -23.960938 1.546875 -24.078125 L 1.546875 -24.734375 L 9.109375 -24.734375 Z M 17.890625 -5.828125 "/></g></g></g><g fill="#ffffff" fill-opacity="1"><g transform="translate(314.267891, 169.367417)"><g><path d="M 15.765625 -25.265625 C 17.066406 -25.265625 18.203125 -25.144531 19.171875 -24.90625 C 20.140625 -24.664062 21.117188 -24.351562 22.109375 -23.96875 C 22.796875 -23.707031 23.210938 -23.578125 23.359375 -23.578125 C 23.648438 -23.578125 23.898438 -23.71875 24.109375 -24 C 24.328125 -24.289062 24.460938 -24.710938 24.515625 -25.265625 L 25.203125 -25.265625 L 25.84375 -17.390625 L 25.203125 -17.390625 C 24.867188 -18.753906 24.21875 -19.925781 23.25 -20.90625 C 22.289062 -21.894531 21.175781 -22.640625 19.90625 -23.140625 C 18.632812 -23.648438 17.335938 -23.90625 16.015625 -23.90625 C 14.210938 -23.90625 12.554688 -23.453125 11.046875 -22.546875 C 9.535156 -21.648438 8.320312 -20.332031 7.40625 -18.59375 C 6.5 -16.851562 6.046875 -14.769531 6.046875 -12.34375 C 6.046875 -10.113281 6.519531 -8.125 7.46875 -6.375 C 8.414062 -4.625 9.695312 -3.257812 11.3125 -2.28125 C 12.9375 -1.3125 14.695312 -0.828125 16.59375 -0.828125 C 17.601562 -0.828125 18.539062 -0.960938 19.40625 -1.234375 C 20.269531 -1.515625 21.179688 -1.976562 22.140625 -2.625 L 22.140625 -9.75 C 22.140625 -10.8125 21.863281 -11.550781 21.3125 -11.96875 C 20.757812 -12.382812 19.882812 -12.609375 18.6875 -12.640625 L 18.6875 -13.28125 L 29.296875 -13.28125 L 29.296875 -12.640625 C 28.410156 -12.566406 27.742188 -12.429688 27.296875 -12.234375 C 26.859375 -12.046875 26.535156 -11.710938 26.328125 -11.234375 C 26.128906 -10.753906 26.03125 -10.035156 26.03125 -9.078125 L 26.03125 -2.046875 C 24.28125 -1.085938 22.71875 -0.414062 21.34375 -0.03125 C 19.976562 0.351562 18.300781 0.546875 16.3125 0.546875 C 13.1875 0.546875 10.507812 -0.0507812 8.28125 -1.25 C 6.050781 -2.457031 4.367188 -3.988281 3.234375 -5.84375 C 2.109375 -7.707031 1.546875 -9.625 1.546875 -11.59375 C 1.546875 -14.09375 2.175781 -16.382812 3.4375 -18.46875 C 4.695312 -20.550781 6.410156 -22.203125 8.578125 -23.421875 C 10.753906 -24.648438 13.148438 -25.265625 15.765625 -25.265625 Z M 15.765625 -25.265625 "/></g></g></g><g fill="#ffffff" fill-opacity="1"><g transform="translate(7.081742, 193.025978)"><g><path d="M 7.6875 -6.359375 L 7.453125 -6.359375 C 7.335938 -7.253906 6.859375 -7.703125 6.015625 -7.703125 L 4.625 -7.703125 L 4.625 -1.125 C 4.625 -0.769531 4.726562 -0.53125 4.9375 -0.40625 C 5.144531 -0.28125 5.441406 -0.21875 5.828125 -0.21875 L 5.828125 0 L 2.140625 0 L 2.140625 -0.21875 C 2.566406 -0.21875 2.875 -0.285156 3.0625 -0.421875 C 3.25 -0.566406 3.34375 -0.828125 3.34375 -1.203125 L 3.34375 -7.703125 L 1.875 -7.703125 C 1.5 -7.703125 1.1875 -7.585938 0.9375 -7.359375 C 0.6875 -7.140625 0.546875 -6.804688 0.515625 -6.359375 L 0.296875 -6.359375 L 0.359375 -8.21875 L 7.625 -8.21875 Z M 7.6875 -6.359375 "/></g></g></g><g fill="#ffffff" fill-opacity="1"><g transform="translate(15.055188, 193.025978)"><g><path d="M 7.078125 -6.078125 C 7.078125 -5.578125 6.90625 -5.144531 6.5625 -4.78125 C 6.226562 -4.414062 5.707031 -4.144531 5 -3.96875 L 6.90625 -1.609375 C 7.132812 -1.328125 7.328125 -1.097656 7.484375 -0.921875 C 7.648438 -0.753906 7.847656 -0.597656 8.078125 -0.453125 C 8.316406 -0.316406 8.582031 -0.238281 8.875 -0.21875 L 8.875 0 L 6.71875 0 L 3.625 -3.859375 L 2.84375 -3.859375 L 2.84375 -1.1875 C 2.84375 -0.832031 2.929688 -0.582031 3.109375 -0.4375 C 3.285156 -0.289062 3.566406 -0.21875 3.953125 -0.21875 L 4 -0.21875 L 4 0 L 0.40625 0 L 0.40625 -0.21875 C 0.789062 -0.21875 1.078125 -0.285156 1.265625 -0.421875 C 1.453125 -0.554688 1.546875 -0.800781 1.546875 -1.15625 L 1.546875 -7.09375 C 1.546875 -7.414062 1.453125 -7.644531 1.265625 -7.78125 C 1.078125 -7.925781 0.789062 -8 0.40625 -8 L 0.40625 -8.21875 L 4.25 -8.21875 C 5.03125 -8.21875 5.695312 -8.039062 6.25 -7.6875 C 6.800781 -7.34375 7.078125 -6.804688 7.078125 -6.078125 Z M 2.84375 -7.59375 L 2.84375 -4.265625 L 3.140625 -4.265625 C 3.941406 -4.265625 4.550781 -4.421875 4.96875 -4.734375 C 5.382812 -5.046875 5.59375 -5.484375 5.59375 -6.046875 C 5.59375 -6.535156 5.429688 -6.945312 5.109375 -7.28125 C 4.796875 -7.625 4.351562 -7.796875 3.78125 -7.796875 C 3.46875 -7.796875 3.15625 -7.726562 2.84375 -7.59375 Z M 2.84375 -7.59375 "/></g></g></g><g fill="#ffffff" fill-opacity="1"><g transform="translate(24.271877, 193.025978)"><g><path d="M 1.375 -1.59375 L 4.4375 -8.578125 L 4.65625 -8.578125 L 7.890625 -1.140625 C 8.003906 -0.867188 8.113281 -0.664062 8.21875 -0.53125 C 8.332031 -0.394531 8.445312 -0.304688 8.5625 -0.265625 C 8.6875 -0.234375 8.851562 -0.21875 9.0625 -0.21875 L 9.0625 0 L 5.6875 0 L 5.6875 -0.21875 C 5.96875 -0.21875 6.179688 -0.269531 6.328125 -0.375 C 6.472656 -0.476562 6.546875 -0.617188 6.546875 -0.796875 C 6.546875 -0.941406 6.492188 -1.128906 6.390625 -1.359375 L 5.765625 -2.765625 L 2.453125 -2.765625 L 1.765625 -1.203125 C 1.691406 -1.035156 1.65625 -0.890625 1.65625 -0.765625 C 1.65625 -0.398438 1.945312 -0.21875 2.53125 -0.21875 L 2.53125 0 L 0.171875 0 L 0.171875 -0.21875 C 0.367188 -0.238281 0.53125 -0.296875 0.65625 -0.390625 C 0.78125 -0.484375 0.890625 -0.613281 0.984375 -0.78125 C 1.085938 -0.957031 1.21875 -1.226562 1.375 -1.59375 Z M 5.578125 -3.21875 L 4.125 -6.5625 L 2.65625 -3.21875 Z M 5.578125 -3.21875 "/></g></g></g><g fill="#ffffff" fill-opacity="1"><g transform="translate(33.488565, 193.025978)"><g><path d="M 7.6875 -6.359375 L 7.453125 -6.359375 C 7.335938 -7.253906 6.859375 -7.703125 6.015625 -7.703125 L 4.625 -7.703125 L 4.625 -1.125 C 4.625 -0.769531 4.726562 -0.53125 4.9375 -0.40625 C 5.144531 -0.28125 5.441406 -0.21875 5.828125 -0.21875 L 5.828125 0 L 2.140625 0 L 2.140625 -0.21875 C 2.566406 -0.21875 2.875 -0.285156 3.0625 -0.421875 C 3.25 -0.566406 3.34375 -0.828125 3.34375 -1.203125 L 3.34375 -7.703125 L 1.875 -7.703125 C 1.5 -7.703125 1.1875 -7.585938 0.9375 -7.359375 C 0.6875 -7.140625 0.546875 -6.804688 0.515625 -6.359375 L 0.296875 -6.359375 L 0.359375 -8.21875 L 7.625 -8.21875 Z M 7.6875 -6.359375 "/></g></g></g><g fill="#ffffff" fill-opacity="1"><g transform="translate(41.462012, 193.025978)"><g><path d="M 1.375 -1.59375 L 4.4375 -8.578125 L 4.65625 -8.578125 L 7.890625 -1.140625 C 8.003906 -0.867188 8.113281 -0.664062 8.21875 -0.53125 C 8.332031 -0.394531 8.445312 -0.304688 8.5625 -0.265625 C 8.6875 -0.234375 8.851562 -0.21875 9.0625 -0.21875 L 9.0625 0 L 5.6875 0 L 5.6875 -0.21875 C 5.96875 -0.21875 6.179688 -0.269531 6.328125 -0.375 C 6.472656 -0.476562 6.546875 -0.617188 6.546875 -0.796875 C 6.546875 -0.941406 6.492188 -1.128906 6.390625 -1.359375 L 5.765625 -2.765625 L 2.453125 -2.765625 L 1.765625 -1.203125 C 1.691406 -1.035156 1.65625 -0.890625 1.65625 -0.765625 C 1.65625 -0.398438 1.945312 -0.21875 2.53125 -0.21875 L 2.53125 0 L 0.171875 0 L 0.171875 -0.21875 C 0.367188 -0.238281 0.53125 -0.296875 0.65625 -0.390625 C 0.78125 -0.484375 0.890625 -0.613281 0.984375 -0.78125 C 1.085938 -0.957031 1.21875 -1.226562 1.375 -1.59375 Z M 5.578125 -3.21875 L 4.125 -6.5625 L 2.65625 -3.21875 Z M 5.578125 -3.21875 "/></g></g></g><g fill="#ffffff" fill-opacity="1"><g transform="translate(50.6787, 193.025978)"><g><path d="M 5.953125 -1.9375 L 8.828125 -8.21875 L 11.328125 -8.21875 L 11.328125 -8 L 11.25 -8 C 10.863281 -8 10.578125 -7.929688 10.390625 -7.796875 C 10.210938 -7.660156 10.125 -7.40625 10.125 -7.03125 L 10.125 -1.1875 C 10.125 -0.832031 10.210938 -0.582031 10.390625 -0.4375 C 10.566406 -0.289062 10.863281 -0.21875 11.28125 -0.21875 L 11.328125 -0.21875 L 11.328125 0 L 7.625 0 L 7.625 -0.21875 L 7.734375 -0.21875 C 8.109375 -0.21875 8.382812 -0.289062 8.5625 -0.4375 C 8.738281 -0.582031 8.828125 -0.835938 8.828125 -1.203125 L 8.828125 -6.890625 L 8.8125 -6.890625 L 5.65625 0 L 5.4375 0 L 2.28125 -6.890625 L 2.25 -6.890625 L 2.25 -1.203125 C 2.25 -0.816406 2.335938 -0.554688 2.515625 -0.421875 C 2.691406 -0.296875 2.988281 -0.226562 3.40625 -0.21875 L 3.40625 0 L 0.515625 0 L 0.515625 -0.21875 L 0.59375 -0.21875 C 0.96875 -0.21875 1.25 -0.285156 1.4375 -0.421875 C 1.625 -0.566406 1.71875 -0.828125 1.71875 -1.203125 L 1.71875 -6.828125 C 1.71875 -7.203125 1.617188 -7.484375 1.421875 -7.671875 C 1.234375 -7.859375 0.929688 -7.96875 0.515625 -8 L 0.515625 -8.21875 L 3.03125 -8.21875 Z M 5.953125 -1.9375 "/></g></g></g><g fill="#ffffff" fill-opacity="1"><g transform="translate(62.513356, 193.025978)"><g><path d="M 4.203125 -8 C 3.867188 -8 3.613281 -7.96875 3.4375 -7.90625 C 3.257812 -7.851562 3.132812 -7.75 3.0625 -7.59375 C 2.988281 -7.4375 2.953125 -7.210938 2.953125 -6.921875 L 2.953125 -1.203125 C 2.953125 -0.929688 2.992188 -0.722656 3.078125 -0.578125 C 3.171875 -0.441406 3.304688 -0.347656 3.484375 -0.296875 C 3.660156 -0.253906 3.898438 -0.226562 4.203125 -0.21875 L 4.203125 0 L 0.421875 0 L 0.421875 -0.21875 C 0.734375 -0.226562 0.972656 -0.253906 1.140625 -0.296875 C 1.316406 -0.347656 1.445312 -0.441406 1.53125 -0.578125 C 1.613281 -0.722656 1.65625 -0.929688 1.65625 -1.203125 L 1.65625 -6.921875 C 1.65625 -7.210938 1.617188 -7.429688 1.546875 -7.578125 C 1.472656 -7.734375 1.347656 -7.84375 1.171875 -7.90625 C 1.003906 -7.96875 0.753906 -8 0.421875 -8 L 0.421875 -8.21875 L 4.203125 -8.21875 Z M 4.203125 -8 "/></g></g></g><g fill="#ffffff" fill-opacity="1"><g transform="translate(67.115722, 193.025978)"><g><path d="M 7.046875 -6.40625 L 6.84375 -6.40625 C 6.757812 -6.851562 6.609375 -7.1875 6.390625 -7.40625 C 6.179688 -7.632812 5.882812 -7.75 5.5 -7.75 L 2.90625 -7.75 L 2.90625 -4.578125 L 5.03125 -4.578125 C 5.414062 -4.578125 5.6875 -4.671875 5.84375 -4.859375 C 6.007812 -5.046875 6.097656 -5.347656 6.109375 -5.765625 L 6.3125 -5.765625 L 6.3125 -2.875 L 6.109375 -2.875 C 6.109375 -3.289062 6.023438 -3.597656 5.859375 -3.796875 C 5.703125 -3.992188 5.421875 -4.09375 5.015625 -4.09375 L 2.90625 -4.09375 L 2.90625 -1.09375 C 2.90625 -0.6875 3.066406 -0.484375 3.390625 -0.484375 L 5.5 -0.484375 C 5.9375 -0.484375 6.320312 -0.613281 6.65625 -0.875 C 6.988281 -1.144531 7.257812 -1.535156 7.46875 -2.046875 L 7.71875 -2.046875 L 7.046875 0 L 0.4375 0 L 0.4375 -0.21875 C 0.84375 -0.21875 1.140625 -0.285156 1.328125 -0.421875 C 1.515625 -0.566406 1.609375 -0.828125 1.609375 -1.203125 L 1.609375 -7.09375 C 1.609375 -7.414062 1.515625 -7.644531 1.328125 -7.78125 C 1.140625 -7.925781 0.84375 -8 0.4375 -8 L 0.4375 -8.21875 L 6.953125 -8.21875 Z M 7.046875 -6.40625 "/></g></g></g><g fill="#ffffff" fill-opacity="1"><g transform="translate(75.089169, 193.025978)"><g><path d="M 7.859375 -2.15625 L 7.859375 -7.078125 C 7.859375 -7.441406 7.796875 -7.6875 7.671875 -7.8125 C 7.546875 -7.9375 7.3125 -8 6.96875 -8 L 6.671875 -8 L 6.671875 -8.21875 L 9.6875 -8.21875 L 9.6875 -8 L 9.4375 -8 C 9.125 -8 8.898438 -7.976562 8.765625 -7.9375 C 8.628906 -7.90625 8.535156 -7.8125 8.484375 -7.65625 C 8.429688 -7.507812 8.40625 -7.269531 8.40625 -6.9375 L 8.40625 0.09375 L 8.234375 0.09375 L 2.359375 -6.515625 L 2.359375 -1.390625 C 2.359375 -0.941406 2.445312 -0.632812 2.625 -0.46875 C 2.800781 -0.300781 3.113281 -0.21875 3.5625 -0.21875 L 3.5625 0 L 0.59375 0 L 0.59375 -0.21875 L 0.65625 -0.21875 C 1.039062 -0.21875 1.332031 -0.285156 1.53125 -0.421875 C 1.726562 -0.566406 1.828125 -0.828125 1.828125 -1.203125 L 1.828125 -7.046875 C 1.617188 -7.398438 1.382812 -7.644531 1.125 -7.78125 C 0.863281 -7.925781 0.539062 -8 0.15625 -8 L 0.15625 -8.21875 L 2.546875 -8.21875 Z M 7.859375 -2.15625 "/></g></g></g><g fill="#ffffff" fill-opacity="1"><g transform="translate(84.927469, 193.025978)"><g><path d="M 7.6875 -6.359375 L 7.453125 -6.359375 C 7.335938 -7.253906 6.859375 -7.703125 6.015625 -7.703125 L 4.625 -7.703125 L 4.625 -1.125 C 4.625 -0.769531 4.726562 -0.53125 4.9375 -0.40625 C 5.144531 -0.28125 5.441406 -0.21875 5.828125 -0.21875 L 5.828125 0 L 2.140625 0 L 2.140625 -0.21875 C 2.566406 -0.21875 2.875 -0.285156 3.0625 -0.421875 C 3.25 -0.566406 3.34375 -0.828125 3.34375 -1.203125 L 3.34375 -7.703125 L 1.875 -7.703125 C 1.5 -7.703125 1.1875 -7.585938 0.9375 -7.359375 C 0.6875 -7.140625 0.546875 -6.804688 0.515625 -6.359375 L 0.296875 -6.359375 L 0.359375 -8.21875 L 7.625 -8.21875 Z M 7.6875 -6.359375 "/></g></g></g><g fill="#ffffff" fill-opacity="1"><g transform="translate(92.900915, 193.025978)"><g><path d="M 4.609375 -8.40625 C 5.367188 -8.40625 6.066406 -8.210938 6.703125 -7.828125 C 7.335938 -7.441406 7.84375 -6.921875 8.21875 -6.265625 C 8.59375 -5.609375 8.78125 -4.890625 8.78125 -4.109375 C 8.78125 -3.328125 8.59375 -2.609375 8.21875 -1.953125 C 7.84375 -1.296875 7.335938 -0.773438 6.703125 -0.390625 C 6.066406 -0.015625 5.367188 0.171875 4.609375 0.171875 C 3.847656 0.171875 3.148438 -0.015625 2.515625 -0.390625 C 1.878906 -0.773438 1.375 -1.296875 1 -1.953125 C 0.625 -2.609375 0.4375 -3.328125 0.4375 -4.109375 C 0.4375 -4.890625 0.625 -5.609375 1 -6.265625 C 1.375 -6.921875 1.878906 -7.441406 2.515625 -7.828125 C 3.148438 -8.210938 3.847656 -8.40625 4.609375 -8.40625 Z M 1.9375 -4.109375 C 1.9375 -3.335938 2.046875 -2.660156 2.265625 -2.078125 C 2.484375 -1.503906 2.796875 -1.0625 3.203125 -0.75 C 3.609375 -0.4375 4.078125 -0.28125 4.609375 -0.28125 C 5.140625 -0.28125 5.609375 -0.4375 6.015625 -0.75 C 6.421875 -1.0625 6.734375 -1.503906 6.953125 -2.078125 C 7.171875 -2.660156 7.28125 -3.335938 7.28125 -4.109375 C 7.28125 -4.859375 7.171875 -5.523438 6.953125 -6.109375 C 6.742188 -6.691406 6.4375 -7.144531 6.03125 -7.46875 C 5.632812 -7.789062 5.15625 -7.953125 4.59375 -7.953125 C 4.039062 -7.953125 3.566406 -7.785156 3.171875 -7.453125 C 2.773438 -7.128906 2.46875 -6.675781 2.25 -6.09375 C 2.039062 -5.507812 1.9375 -4.847656 1.9375 -4.109375 Z M 1.9375 -4.109375 "/></g></g></g><path stroke-linecap="butt" transform="matrix(0.75055, 0, 0, 0.75, 7.043304, 178.066773)" fill="none" stroke-linejoin="miter" d="M -0.000446706 0.49951 L 575.593301 0.49951 " stroke="#ffffff" stroke-width="1" stroke-opacity="1" stroke-miterlimit="4"/></svg>