<svg xmlns="http://www.w3.org/2000/svg" xmlns:xlink="http://www.w3.org/1999/xlink" width="600" zoomAndPan="magnify" viewBox="0 0 450 299.999988" height="400" preserveAspectRatio="xMidYMid meet" version="1.0"><defs><filter x="0%" y="0%" width="100%" height="100%" id="06e4ca3abc"><feColorMatrix values="0 0 0 0 1 0 0 0 0 1 0 0 0 0 1 0 0 0 1 0" color-interpolation-filters="sRGB"/></filter><g/><mask id="1f55edd576"><g filter="url(#06e4ca3abc)"><rect x="-45" width="540" fill="#000000" y="-29.999999" height="359.999986" fill-opacity="0.3"/></g></mask><clipPath id="d180826d2d"><path d="M 0.375 0.523438 L 95.675781 0.523438 L 95.675781 143.476562 L 0.375 143.476562 Z M 0.375 0.523438 " clip-rule="nonzero"/></clipPath><clipPath id="e329e49005"><path d="M 48.023438 0.523438 L 95.675781 0.523438 L 48.023438 143.476562 L 0.375 143.476562 Z M 48.023438 0.523438 " clip-rule="nonzero"/></clipPath><clipPath id="3aff66b953"><rect x="0" width="96" y="0" height="144"/></clipPath><mask id="360fb2fb01"><g filter="url(#06e4ca3abc)"><rect x="-45" width="540" fill="#000000" y="-29.999999" height="359.999986" fill-opacity="0.3"/></g></mask><clipPath id="0a2f7d5003"><path d="M 1.007812 0.523438 L 96.308594 0.523438 L 96.308594 143.476562 L 1.007812 143.476562 Z M 1.007812 0.523438 " clip-rule="nonzero"/></clipPath><clipPath id="47969f36d1"><path d="M 48.660156 0.523438 L 96.308594 0.523438 L 48.660156 143.476562 L 1.007812 143.476562 Z M 48.660156 0.523438 " clip-rule="nonzero"/></clipPath><clipPath id="ddaf7d8519"><rect x="0" width="97" y="0" height="144"/></clipPath><mask id="7ef782c4ee"><g filter="url(#06e4ca3abc)"><rect x="-45" width="540" fill="#000000" y="-29.999999" height="359.999986" fill-opacity="0.3"/></g></mask><clipPath id="64d900a4e5"><path d="M 0.96875 0.523438 L 96.269531 0.523438 L 96.269531 143.476562 L 0.96875 143.476562 Z M 0.96875 0.523438 " clip-rule="nonzero"/></clipPath><clipPath id="1762f7343d"><path d="M 48.617188 0.523438 L 96.269531 0.523438 L 48.617188 143.476562 L 0.96875 143.476562 Z M 48.617188 0.523438 " clip-rule="nonzero"/></clipPath><clipPath id="97752c908e"><rect x="0" width="97" y="0" height="144"/></clipPath></defs><g mask="url(#1f55edd576)"><g transform="matrix(1, 0, 0, 1, 151, 78)"><g clip-path="url(#3aff66b953)"><g clip-path="url(#d180826d2d)"><g clip-path="url(#e329e49005)"><path fill="#6b6058" d="M 0.375 0.523438 L 95.675781 0.523438 L 95.675781 143.476562 L 0.375 143.476562 Z M 0.375 0.523438 " fill-opacity="1" fill-rule="nonzero"/></g></g></g></g></g><g mask="url(#360fb2fb01)"><g transform="matrix(1, 0, 0, 1, 211, 78)"><g clip-path="url(#ddaf7d8519)"><g clip-path="url(#0a2f7d5003)"><g clip-path="url(#47969f36d1)"><path fill="#343e36" d="M 1.007812 0.523438 L 96.308594 0.523438 L 96.308594 143.476562 L 1.007812 143.476562 Z M 1.007812 0.523438 " fill-opacity="1" fill-rule="nonzero"/></g></g></g></g></g><g mask="url(#7ef782c4ee)"><g transform="matrix(1, 0, 0, 1, 272, 78)"><g clip-path="url(#97752c908e)"><g clip-path="url(#64d900a4e5)"><g clip-path="url(#1762f7343d)"><path fill="#000000" d="M 0.96875 0.523438 L 96.269531 0.523438 L 96.269531 143.476562 L 0.96875 143.476562 Z M 0.96875 0.523438 " fill-opacity="1" fill-rule="nonzero"/></g></g></g></g></g><g fill="#ffffff" fill-opacity="1"><g transform="translate(7.081742, 193.025932)"><g><path d="M 7.6875 -6.359375 L 7.453125 -6.359375 C 7.335938 -7.253906 6.859375 -7.703125 6.015625 -7.703125 L 4.625 -7.703125 L 4.625 -1.125 C 4.625 -0.769531 4.726562 -0.53125 4.9375 -0.40625 C 5.144531 -0.28125 5.441406 -0.21875 5.828125 -0.21875 L 5.828125 0 L 2.140625 0 L 2.140625 -0.21875 C 2.566406 -0.21875 2.875 -0.285156 3.0625 -0.421875 C 3.25 -0.566406 3.34375 -0.828125 3.34375 -1.203125 L 3.34375 -7.703125 L 1.875 -7.703125 C 1.5 -7.703125 1.1875 -7.585938 0.9375 -7.359375 C 0.6875 -7.140625 0.546875 -6.804688 0.515625 -6.359375 L 0.296875 -6.359375 L 0.359375 -8.21875 L 7.625 -8.21875 Z M 7.6875 -6.359375 "/></g></g></g><g fill="#ffffff" fill-opacity="1"><g transform="translate(15.055188, 193.025932)"><g><path d="M 7.078125 -6.078125 C 7.078125 -5.578125 6.90625 -5.144531 6.5625 -4.78125 C 6.226562 -4.414062 5.707031 -4.144531 5 -3.96875 L 6.90625 -1.609375 C 7.132812 -1.328125 7.328125 -1.097656 7.484375 -0.921875 C 7.648438 -0.753906 7.847656 -0.597656 8.078125 -0.453125 C 8.316406 -0.316406 8.582031 -0.238281 8.875 -0.21875 L 8.875 0 L 6.71875 0 L 3.625 -3.859375 L 2.84375 -3.859375 L 2.84375 -1.1875 C 2.84375 -0.832031 2.929688 -0.582031 3.109375 -0.4375 C 3.285156 -0.289062 3.566406 -0.21875 3.953125 -0.21875 L 4 -0.21875 L 4 0 L 0.40625 0 L 0.40625 -0.21875 C 0.789062 -0.21875 1.078125 -0.285156 1.265625 -0.421875 C 1.453125 -0.554688 1.546875 -0.800781 1.546875 -1.15625 L 1.546875 -7.09375 C 1.546875 -7.414062 1.453125 -7.644531 1.265625 -7.78125 C 1.078125 -7.925781 0.789062 -8 0.40625 -8 L 0.40625 -8.21875 L 4.25 -8.21875 C 5.03125 -8.21875 5.695312 -8.039062 6.25 -7.6875 C 6.800781 -7.34375 7.078125 -6.804688 7.078125 -6.078125 Z M 2.84375 -7.59375 L 2.84375 -4.265625 L 3.140625 -4.265625 C 3.941406 -4.265625 4.550781 -4.421875 4.96875 -4.734375 C 5.382812 -5.046875 5.59375 -5.484375 5.59375 -6.046875 C 5.59375 -6.535156 5.429688 -6.945312 5.109375 -7.28125 C 4.796875 -7.625 4.351562 -7.796875 3.78125 -7.796875 C 3.46875 -7.796875 3.15625 -7.726562 2.84375 -7.59375 Z M 2.84375 -7.59375 "/></g></g></g><g fill="#ffffff" fill-opacity="1"><g transform="translate(24.271877, 193.025932)"><g><path d="M 1.375 -1.59375 L 4.4375 -8.578125 L 4.65625 -8.578125 L 7.890625 -1.140625 C 8.003906 -0.867188 8.113281 -0.664062 8.21875 -0.53125 C 8.332031 -0.394531 8.445312 -0.304688 8.5625 -0.265625 C 8.6875 -0.234375 8.851562 -0.21875 9.0625 -0.21875 L 9.0625 0 L 5.6875 0 L 5.6875 -0.21875 C 5.96875 -0.21875 6.179688 -0.269531 6.328125 -0.375 C 6.472656 -0.476562 6.546875 -0.617188 6.546875 -0.796875 C 6.546875 -0.941406 6.492188 -1.128906 6.390625 -1.359375 L 5.765625 -2.765625 L 2.453125 -2.765625 L 1.765625 -1.203125 C 1.691406 -1.035156 1.65625 -0.890625 1.65625 -0.765625 C 1.65625 -0.398438 1.945312 -0.21875 2.53125 -0.21875 L 2.53125 0 L 0.171875 0 L 0.171875 -0.21875 C 0.367188 -0.238281 0.53125 -0.296875 0.65625 -0.390625 C 0.78125 -0.484375 0.890625 -0.613281 0.984375 -0.78125 C 1.085938 -0.957031 1.21875 -1.226562 1.375 -1.59375 Z M 5.578125 -3.21875 L 4.125 -6.5625 L 2.65625 -3.21875 Z M 5.578125 -3.21875 "/></g></g></g><g fill="#ffffff" fill-opacity="1"><g transform="translate(33.488565, 193.025932)"><g><path d="M 7.6875 -6.359375 L 7.453125 -6.359375 C 7.335938 -7.253906 6.859375 -7.703125 6.015625 -7.703125 L 4.625 -7.703125 L 4.625 -1.125 C 4.625 -0.769531 4.726562 -0.53125 4.9375 -0.40625 C 5.144531 -0.28125 5.441406 -0.21875 5.828125 -0.21875 L 5.828125 0 L 2.140625 0 L 2.140625 -0.21875 C 2.566406 -0.21875 2.875 -0.285156 3.0625 -0.421875 C 3.25 -0.566406 3.34375 -0.828125 3.34375 -1.203125 L 3.34375 -7.703125 L 1.875 -7.703125 C 1.5 -7.703125 1.1875 -7.585938 0.9375 -7.359375 C 0.6875 -7.140625 0.546875 -6.804688 0.515625 -6.359375 L 0.296875 -6.359375 L 0.359375 -8.21875 L 7.625 -8.21875 Z M 7.6875 -6.359375 "/></g></g></g><g fill="#ffffff" fill-opacity="1"><g transform="translate(41.462012, 193.025932)"><g><path d="M 1.375 -1.59375 L 4.4375 -8.578125 L 4.65625 -8.578125 L 7.890625 -1.140625 C 8.003906 -0.867188 8.113281 -0.664062 8.21875 -0.53125 C 8.332031 -0.394531 8.445312 -0.304688 8.5625 -0.265625 C 8.6875 -0.234375 8.851562 -0.21875 9.0625 -0.21875 L 9.0625 0 L 5.6875 0 L 5.6875 -0.21875 C 5.96875 -0.21875 6.179688 -0.269531 6.328125 -0.375 C 6.472656 -0.476562 6.546875 -0.617188 6.546875 -0.796875 C 6.546875 -0.941406 6.492188 -1.128906 6.390625 -1.359375 L 5.765625 -2.765625 L 2.453125 -2.765625 L 1.765625 -1.203125 C 1.691406 -1.035156 1.65625 -0.890625 1.65625 -0.765625 C 1.65625 -0.398438 1.945312 -0.21875 2.53125 -0.21875 L 2.53125 0 L 0.171875 0 L 0.171875 -0.21875 C 0.367188 -0.238281 0.53125 -0.296875 0.65625 -0.390625 C 0.78125 -0.484375 0.890625 -0.613281 0.984375 -0.78125 C 1.085938 -0.957031 1.21875 -1.226562 1.375 -1.59375 Z M 5.578125 -3.21875 L 4.125 -6.5625 L 2.65625 -3.21875 Z M 5.578125 -3.21875 "/></g></g></g><g fill="#ffffff" fill-opacity="1"><g transform="translate(50.6787, 193.025932)"><g><path d="M 5.953125 -1.9375 L 8.828125 -8.21875 L 11.328125 -8.21875 L 11.328125 -8 L 11.25 -8 C 10.863281 -8 10.578125 -7.929688 10.390625 -7.796875 C 10.210938 -7.660156 10.125 -7.40625 10.125 -7.03125 L 10.125 -1.1875 C 10.125 -0.832031 10.210938 -0.582031 10.390625 -0.4375 C 10.566406 -0.289062 10.863281 -0.21875 11.28125 -0.21875 L 11.328125 -0.21875 L 11.328125 0 L 7.625 0 L 7.625 -0.21875 L 7.734375 -0.21875 C 8.109375 -0.21875 8.382812 -0.289062 8.5625 -0.4375 C 8.738281 -0.582031 8.828125 -0.835938 8.828125 -1.203125 L 8.828125 -6.890625 L 8.8125 -6.890625 L 5.65625 0 L 5.4375 0 L 2.28125 -6.890625 L 2.25 -6.890625 L 2.25 -1.203125 C 2.25 -0.816406 2.335938 -0.554688 2.515625 -0.421875 C 2.691406 -0.296875 2.988281 -0.226562 3.40625 -0.21875 L 3.40625 0 L 0.515625 0 L 0.515625 -0.21875 L 0.59375 -0.21875 C 0.96875 -0.21875 1.25 -0.285156 1.4375 -0.421875 C 1.625 -0.566406 1.71875 -0.828125 1.71875 -1.203125 L 1.71875 -6.828125 C 1.71875 -7.203125 1.617188 -7.484375 1.421875 -7.671875 C 1.234375 -7.859375 0.929688 -7.96875 0.515625 -8 L 0.515625 -8.21875 L 3.03125 -8.21875 Z M 5.953125 -1.9375 "/></g></g></g><g fill="#ffffff" fill-opacity="1"><g transform="translate(62.513356, 193.025932)"><g><path d="M 4.203125 -8 C 3.867188 -8 3.613281 -7.96875 3.4375 -7.90625 C 3.257812 -7.851562 3.132812 -7.75 3.0625 -7.59375 C 2.988281 -7.4375 2.953125 -7.210938 2.953125 -6.921875 L 2.953125 -1.203125 C 2.953125 -0.929688 2.992188 -0.722656 3.078125 -0.578125 C 3.171875 -0.441406 3.304688 -0.347656 3.484375 -0.296875 C 3.660156 -0.253906 3.898438 -0.226562 4.203125 -0.21875 L 4.203125 0 L 0.421875 0 L 0.421875 -0.21875 C 0.734375 -0.226562 0.972656 -0.253906 1.140625 -0.296875 C 1.316406 -0.347656 1.445312 -0.441406 1.53125 -0.578125 C 1.613281 -0.722656 1.65625 -0.929688 1.65625 -1.203125 L 1.65625 -6.921875 C 1.65625 -7.210938 1.617188 -7.429688 1.546875 -7.578125 C 1.472656 -7.734375 1.347656 -7.84375 1.171875 -7.90625 C 1.003906 -7.96875 0.753906 -8 0.421875 -8 L 0.421875 -8.21875 L 4.203125 -8.21875 Z M 4.203125 -8 "/></g></g></g><g fill="#ffffff" fill-opacity="1"><g transform="translate(67.115722, 193.025932)"><g><path d="M 7.046875 -6.40625 L 6.84375 -6.40625 C 6.757812 -6.851562 6.609375 -7.1875 6.390625 -7.40625 C 6.179688 -7.632812 5.882812 -7.75 5.5 -7.75 L 2.90625 -7.75 L 2.90625 -4.578125 L 5.03125 -4.578125 C 5.414062 -4.578125 5.6875 -4.671875 5.84375 -4.859375 C 6.007812 -5.046875 6.097656 -5.347656 6.109375 -5.765625 L 6.3125 -5.765625 L 6.3125 -2.875 L 6.109375 -2.875 C 6.109375 -3.289062 6.023438 -3.597656 5.859375 -3.796875 C 5.703125 -3.992188 5.421875 -4.09375 5.015625 -4.09375 L 2.90625 -4.09375 L 2.90625 -1.09375 C 2.90625 -0.6875 3.066406 -0.484375 3.390625 -0.484375 L 5.5 -0.484375 C 5.9375 -0.484375 6.320312 -0.613281 6.65625 -0.875 C 6.988281 -1.144531 7.257812 -1.535156 7.46875 -2.046875 L 7.71875 -2.046875 L 7.046875 0 L 0.4375 0 L 0.4375 -0.21875 C 0.84375 -0.21875 1.140625 -0.285156 1.328125 -0.421875 C 1.515625 -0.566406 1.609375 -0.828125 1.609375 -1.203125 L 1.609375 -7.09375 C 1.609375 -7.414062 1.515625 -7.644531 1.328125 -7.78125 C 1.140625 -7.925781 0.84375 -8 0.4375 -8 L 0.4375 -8.21875 L 6.953125 -8.21875 Z M 7.046875 -6.40625 "/></g></g></g><g fill="#ffffff" fill-opacity="1"><g transform="translate(75.089169, 193.025932)"><g><path d="M 7.859375 -2.15625 L 7.859375 -7.078125 C 7.859375 -7.441406 7.796875 -7.6875 7.671875 -7.8125 C 7.546875 -7.9375 7.3125 -8 6.96875 -8 L 6.671875 -8 L 6.671875 -8.21875 L 9.6875 -8.21875 L 9.6875 -8 L 9.4375 -8 C 9.125 -8 8.898438 -7.976562 8.765625 -7.9375 C 8.628906 -7.90625 8.535156 -7.8125 8.484375 -7.65625 C 8.429688 -7.507812 8.40625 -7.269531 8.40625 -6.9375 L 8.40625 0.09375 L 8.234375 0.09375 L 2.359375 -6.515625 L 2.359375 -1.390625 C 2.359375 -0.941406 2.445312 -0.632812 2.625 -0.46875 C 2.800781 -0.300781 3.113281 -0.21875 3.5625 -0.21875 L 3.5625 0 L 0.59375 0 L 0.59375 -0.21875 L 0.65625 -0.21875 C 1.039062 -0.21875 1.332031 -0.285156 1.53125 -0.421875 C 1.726562 -0.566406 1.828125 -0.828125 1.828125 -1.203125 L 1.828125 -7.046875 C 1.617188 -7.398438 1.382812 -7.644531 1.125 -7.78125 C 0.863281 -7.925781 0.539062 -8 0.15625 -8 L 0.15625 -8.21875 L 2.546875 -8.21875 Z M 7.859375 -2.15625 "/></g></g></g><g fill="#ffffff" fill-opacity="1"><g transform="translate(84.927469, 193.025932)"><g><path d="M 7.6875 -6.359375 L 7.453125 -6.359375 C 7.335938 -7.253906 6.859375 -7.703125 6.015625 -7.703125 L 4.625 -7.703125 L 4.625 -1.125 C 4.625 -0.769531 4.726562 -0.53125 4.9375 -0.40625 C 5.144531 -0.28125 5.441406 -0.21875 5.828125 -0.21875 L 5.828125 0 L 2.140625 0 L 2.140625 -0.21875 C 2.566406 -0.21875 2.875 -0.285156 3.0625 -0.421875 C 3.25 -0.566406 3.34375 -0.828125 3.34375 -1.203125 L 3.34375 -7.703125 L 1.875 -7.703125 C 1.5 -7.703125 1.1875 -7.585938 0.9375 -7.359375 C 0.6875 -7.140625 0.546875 -6.804688 0.515625 -6.359375 L 0.296875 -6.359375 L 0.359375 -8.21875 L 7.625 -8.21875 Z M 7.6875 -6.359375 "/></g></g></g><g fill="#ffffff" fill-opacity="1"><g transform="translate(92.900915, 193.025932)"><g><path d="M 4.609375 -8.40625 C 5.367188 -8.40625 6.066406 -8.210938 6.703125 -7.828125 C 7.335938 -7.441406 7.84375 -6.921875 8.21875 -6.265625 C 8.59375 -5.609375 8.78125 -4.890625 8.78125 -4.109375 C 8.78125 -3.328125 8.59375 -2.609375 8.21875 -1.953125 C 7.84375 -1.296875 7.335938 -0.773438 6.703125 -0.390625 C 6.066406 -0.015625 5.367188 0.171875 4.609375 0.171875 C 3.847656 0.171875 3.148438 -0.015625 2.515625 -0.390625 C 1.878906 -0.773438 1.375 -1.296875 1 -1.953125 C 0.625 -2.609375 0.4375 -3.328125 0.4375 -4.109375 C 0.4375 -4.890625 0.625 -5.609375 1 -6.265625 C 1.375 -6.921875 1.878906 -7.441406 2.515625 -7.828125 C 3.148438 -8.210938 3.847656 -8.40625 4.609375 -8.40625 Z M 1.9375 -4.109375 C 1.9375 -3.335938 2.046875 -2.660156 2.265625 -2.078125 C 2.484375 -1.503906 2.796875 -1.0625 3.203125 -0.75 C 3.609375 -0.4375 4.078125 -0.28125 4.609375 -0.28125 C 5.140625 -0.28125 5.609375 -0.4375 6.015625 -0.75 C 6.421875 -1.0625 6.734375 -1.503906 6.953125 -2.078125 C 7.171875 -2.660156 7.28125 -3.335938 7.28125 -4.109375 C 7.28125 -4.859375 7.171875 -5.523438 6.953125 -6.109375 C 6.742188 -6.691406 6.4375 -7.144531 6.03125 -7.46875 C 5.632812 -7.789062 5.15625 -7.953125 4.59375 -7.953125 C 4.039062 -7.953125 3.566406 -7.785156 3.171875 -7.453125 C 2.773438 -7.128906 2.46875 -6.675781 2.25 -6.09375 C 2.039062 -5.507812 1.9375 -4.847656 1.9375 -4.109375 Z M 1.9375 -4.109375 "/></g></g></g><path stroke-linecap="butt" transform="matrix(0.75055, 0, 0, 0.75, 7.043304, 178.066742)" fill="none" stroke-linejoin="miter" d="M -0.000446706 0.499552 L 575.593301 0.499552 " stroke="#ffffff" stroke-width="1" stroke-opacity="1" stroke-miterlimit="4"/><g fill="#ffffff" fill-opacity="1"><g transform="translate(7.043304, 164.925925)"><g><path d="M 11.75 -22.46875 C 10.582031 -22.46875 9.75 -22.28125 9.25 -21.90625 C 8.75 -21.539062 8.5 -20.796875 8.5 -19.671875 L 8.5 -2.828125 C 8.5 -2.347656 8.59375 -2.007812 8.78125 -1.8125 C 8.96875 -1.613281 9.285156 -1.515625 9.734375 -1.515625 L 14.734375 -1.515625 C 15.898438 -1.515625 16.863281 -1.664062 17.625 -1.96875 C 18.382812 -2.269531 19.039062 -2.757812 19.59375 -3.4375 C 20.144531 -4.125 20.675781 -5.09375 21.1875 -6.34375 L 21.765625 -6.140625 L 19.8125 0 L 1.40625 0 L 1.40625 -0.609375 L 1.640625 -0.609375 C 2.785156 -0.609375 3.609375 -0.804688 4.109375 -1.203125 C 4.617188 -1.609375 4.875 -2.335938 4.875 -3.390625 L 4.875 -19.703125 C 4.875 -20.734375 4.609375 -21.453125 4.078125 -21.859375 C 3.554688 -22.265625 2.734375 -22.46875 1.609375 -22.46875 L 1.40625 -22.46875 L 1.40625 -23.0625 L 11.75 -23.0625 Z M 11.75 -22.46875 "/></g></g></g><g fill="#ffffff" fill-opacity="1"><g transform="translate(29.437353, 164.925925)"><g><path d="M 3.859375 -4.46875 L 12.453125 -24.078125 L 13.0625 -24.078125 L 22.125 -3.1875 C 22.457031 -2.425781 22.773438 -1.859375 23.078125 -1.484375 C 23.378906 -1.117188 23.695312 -0.878906 24.03125 -0.765625 C 24.375 -0.660156 24.835938 -0.609375 25.421875 -0.609375 L 25.421875 0 L 15.953125 0 L 15.953125 -0.609375 C 16.753906 -0.609375 17.359375 -0.753906 17.765625 -1.046875 C 18.171875 -1.335938 18.375 -1.726562 18.375 -2.21875 C 18.375 -2.644531 18.226562 -3.171875 17.9375 -3.796875 L 16.1875 -7.75 L 6.890625 -7.75 L 4.96875 -3.359375 C 4.75 -2.910156 4.640625 -2.507812 4.640625 -2.15625 C 4.640625 -1.125 5.46875 -0.609375 7.125 -0.609375 L 7.125 0 L 0.46875 0 L 0.46875 -0.609375 C 1.03125 -0.671875 1.484375 -0.832031 1.828125 -1.09375 C 2.171875 -1.351562 2.484375 -1.726562 2.765625 -2.21875 C 3.046875 -2.707031 3.410156 -3.457031 3.859375 -4.46875 Z M 15.640625 -9.03125 L 11.546875 -18.40625 L 7.453125 -9.03125 Z M 15.640625 -9.03125 "/></g></g></g><g fill="#ffffff" fill-opacity="1"><g transform="translate(55.32312, 164.925925)"><g><path d="M 10.171875 -22.46875 C 9.253906 -22.46875 8.601562 -22.359375 8.21875 -22.140625 C 7.84375 -21.929688 7.65625 -21.535156 7.65625 -20.953125 C 7.65625 -20.460938 7.878906 -19.664062 8.328125 -18.5625 L 13.5625 -5.640625 L 18.765625 -19.40625 C 18.785156 -19.445312 18.851562 -19.613281 18.96875 -19.90625 C 19.082031 -20.195312 19.140625 -20.523438 19.140625 -20.890625 C 19.140625 -21.441406 18.90625 -21.835938 18.4375 -22.078125 C 17.96875 -22.316406 17.40625 -22.445312 16.75 -22.46875 L 16.75 -23.0625 L 23.765625 -23.0625 L 23.765625 -22.46875 C 22.941406 -22.414062 22.21875 -22.007812 21.59375 -21.25 C 20.96875 -20.488281 20.285156 -19.132812 19.546875 -17.1875 L 12.828125 0.5 L 12.1875 0.5 L 4.40625 -18.796875 C 4.019531 -19.765625 3.664062 -20.492188 3.34375 -20.984375 C 3.019531 -21.472656 2.632812 -21.828125 2.1875 -22.046875 C 1.738281 -22.273438 1.144531 -22.414062 0.40625 -22.46875 L 0.40625 -23.0625 L 10.171875 -23.0625 Z M 10.171875 -22.46875 "/></g></g></g><g fill="#ffffff" fill-opacity="1"><g transform="translate(79.463022, 164.925925)"><g><path d="M 3.859375 -4.46875 L 12.453125 -24.078125 L 13.0625 -24.078125 L 22.125 -3.1875 C 22.457031 -2.425781 22.773438 -1.859375 23.078125 -1.484375 C 23.378906 -1.117188 23.695312 -0.878906 24.03125 -0.765625 C 24.375 -0.660156 24.835938 -0.609375 25.421875 -0.609375 L 25.421875 0 L 15.953125 0 L 15.953125 -0.609375 C 16.753906 -0.609375 17.359375 -0.753906 17.765625 -1.046875 C 18.171875 -1.335938 18.375 -1.726562 18.375 -2.21875 C 18.375 -2.644531 18.226562 -3.171875 17.9375 -3.796875 L 16.1875 -7.75 L 6.890625 -7.75 L 4.96875 -3.359375 C 4.75 -2.910156 4.640625 -2.507812 4.640625 -2.15625 C 4.640625 -1.125 5.46875 -0.609375 7.125 -0.609375 L 7.125 0 L 0.46875 0 L 0.46875 -0.609375 C 1.03125 -0.671875 1.484375 -0.832031 1.828125 -1.09375 C 2.171875 -1.351562 2.484375 -1.726562 2.765625 -2.21875 C 3.046875 -2.707031 3.410156 -3.457031 3.859375 -4.46875 Z M 15.640625 -9.03125 L 11.546875 -18.40625 L 7.453125 -9.03125 Z M 15.640625 -9.03125 "/></g></g></g><g fill="#ffffff" fill-opacity="1"><g transform="translate(105.348789, 164.925925)"><g><path d="M 26.265625 -11.546875 C 26.265625 -9.242188 25.664062 -7.21875 24.46875 -5.46875 C 23.269531 -3.726562 21.648438 -2.378906 19.609375 -1.421875 C 17.566406 -0.472656 15.335938 0 12.921875 0 L 1.078125 0 L 1.078125 -0.609375 C 2.285156 -0.628906 3.148438 -0.828125 3.671875 -1.203125 C 4.203125 -1.585938 4.46875 -2.316406 4.46875 -3.390625 L 4.46875 -19.75 C 4.46875 -20.820312 4.1875 -21.539062 3.625 -21.90625 C 3.0625 -22.28125 2.210938 -22.46875 1.078125 -22.46875 L 1.078125 -23.0625 L 13.9375 -23.0625 C 16.507812 -23.0625 18.726562 -22.515625 20.59375 -21.421875 C 22.46875 -20.328125 23.878906 -18.898438 24.828125 -17.140625 C 25.785156 -15.378906 26.265625 -13.515625 26.265625 -11.546875 Z M 8.09375 -21.21875 L 8.09375 -1.671875 C 9.207031 -1.335938 10.414062 -1.171875 11.71875 -1.171875 C 13.78125 -1.171875 15.59375 -1.585938 17.15625 -2.421875 C 18.726562 -3.265625 19.9375 -4.457031 20.78125 -6 C 21.632812 -7.550781 22.0625 -9.332031 22.0625 -11.34375 C 22.0625 -13.363281 21.632812 -15.160156 20.78125 -16.734375 C 19.9375 -18.316406 18.734375 -19.554688 17.171875 -20.453125 C 15.617188 -21.347656 13.832031 -21.796875 11.8125 -21.796875 C 10.476562 -21.796875 9.238281 -21.601562 8.09375 -21.21875 Z M 8.09375 -21.21875 "/></g></g></g><g fill="#ffffff" fill-opacity="1"><g transform="translate(132.98042, 164.925925)"><g><path d="M 12.921875 -23.578125 C 15.054688 -23.578125 17.015625 -23.035156 18.796875 -21.953125 C 20.585938 -20.878906 22.007812 -19.421875 23.0625 -17.578125 C 24.113281 -15.734375 24.640625 -13.710938 24.640625 -11.515625 C 24.640625 -9.347656 24.113281 -7.335938 23.0625 -5.484375 C 22.007812 -3.640625 20.585938 -2.179688 18.796875 -1.109375 C 17.015625 -0.0351562 15.054688 0.5 12.921875 0.5 C 10.796875 0.5 8.835938 -0.0351562 7.046875 -1.109375 C 5.253906 -2.179688 3.835938 -3.640625 2.796875 -5.484375 C 1.765625 -7.335938 1.25 -9.347656 1.25 -11.515625 C 1.25 -13.710938 1.765625 -15.734375 2.796875 -17.578125 C 3.835938 -19.421875 5.253906 -20.878906 7.046875 -21.953125 C 8.835938 -23.035156 10.796875 -23.578125 12.921875 -23.578125 Z M 5.4375 -11.515625 C 5.4375 -9.367188 5.742188 -7.484375 6.359375 -5.859375 C 6.972656 -4.234375 7.84375 -2.976562 8.96875 -2.09375 C 10.101562 -1.207031 11.421875 -0.765625 12.921875 -0.765625 C 14.421875 -0.765625 15.742188 -1.207031 16.890625 -2.09375 C 18.035156 -2.976562 18.914062 -4.234375 19.53125 -5.859375 C 20.144531 -7.484375 20.453125 -9.367188 20.453125 -11.515625 C 20.453125 -13.617188 20.148438 -15.488281 19.546875 -17.125 C 18.941406 -18.757812 18.070312 -20.03125 16.9375 -20.9375 C 15.8125 -21.84375 14.460938 -22.296875 12.890625 -22.296875 C 11.347656 -22.296875 10.015625 -21.835938 8.890625 -20.921875 C 7.773438 -20.003906 6.921875 -18.726562 6.328125 -17.09375 C 5.734375 -15.457031 5.4375 -13.597656 5.4375 -11.515625 Z M 5.4375 -11.515625 "/></g></g></g><g fill="#ffffff" fill-opacity="1"><g transform="translate(158.866188, 164.925925)"><g/></g></g><g fill="#ffffff" fill-opacity="1"><g transform="translate(167.259753, 164.925925)"><g><path d="M 19.671875 -16.625 C 19.671875 -15.4375 19.347656 -14.351562 18.703125 -13.375 C 18.054688 -12.40625 17.164062 -11.640625 16.03125 -11.078125 C 14.90625 -10.515625 13.632812 -10.234375 12.21875 -10.234375 C 10.65625 -10.234375 9.164062 -10.492188 7.75 -11.015625 L 7.75 -3.390625 C 7.75 -2.273438 8.023438 -1.53125 8.578125 -1.15625 C 9.128906 -0.789062 10.007812 -0.609375 11.21875 -0.609375 L 11.21875 0 L 0.84375 0 L 0.84375 -0.609375 C 2.070312 -0.609375 2.925781 -0.8125 3.40625 -1.21875 C 3.882812 -1.632812 4.125 -2.359375 4.125 -3.390625 L 4.125 -19.703125 C 4.125 -20.753906 3.863281 -21.476562 3.34375 -21.875 C 2.832031 -22.269531 2.066406 -22.46875 1.046875 -22.46875 L 0.84375 -22.46875 L 0.84375 -23.0625 L 10.953125 -23.0625 C 12.398438 -23.0625 13.789062 -22.835938 15.125 -22.390625 C 16.457031 -21.941406 17.546875 -21.226562 18.390625 -20.25 C 19.242188 -19.28125 19.671875 -18.070312 19.671875 -16.625 Z M 7.75 -21.359375 L 7.75 -12.1875 C 8.800781 -11.738281 9.753906 -11.515625 10.609375 -11.515625 C 12.066406 -11.515625 13.242188 -11.96875 14.140625 -12.875 C 15.035156 -13.78125 15.484375 -14.984375 15.484375 -16.484375 C 15.484375 -18.054688 15.007812 -19.332031 14.0625 -20.3125 C 13.125 -21.300781 11.828125 -21.796875 10.171875 -21.796875 C 9.429688 -21.796875 8.625 -21.648438 7.75 -21.359375 Z M 7.75 -21.359375 "/></g></g></g><g fill="#ffffff" fill-opacity="1"><g transform="translate(187.538614, 164.925925)"><g><path d="M 19.875 -17.0625 C 19.875 -15.644531 19.390625 -14.425781 18.421875 -13.40625 C 17.460938 -12.394531 16 -11.640625 14.03125 -11.140625 L 19.375 -4.53125 C 20.019531 -3.726562 20.566406 -3.082031 21.015625 -2.59375 C 21.460938 -2.113281 22.015625 -1.675781 22.671875 -1.28125 C 23.335938 -0.894531 24.070312 -0.671875 24.875 -0.609375 L 24.875 0 L 18.875 0 L 10.171875 -10.8125 L 7.953125 -10.8125 L 7.953125 -3.328125 C 7.953125 -2.335938 8.203125 -1.632812 8.703125 -1.21875 C 9.210938 -0.8125 10.003906 -0.609375 11.078125 -0.609375 L 11.21875 -0.609375 L 11.21875 0 L 1.140625 0 L 1.140625 -0.609375 C 2.210938 -0.609375 3.007812 -0.796875 3.53125 -1.171875 C 4.0625 -1.554688 4.328125 -2.238281 4.328125 -3.21875 L 4.328125 -19.90625 C 4.328125 -20.800781 4.0625 -21.453125 3.53125 -21.859375 C 3.007812 -22.265625 2.210938 -22.46875 1.140625 -22.46875 L 1.140625 -23.0625 L 11.921875 -23.0625 C 14.109375 -23.0625 15.976562 -22.566406 17.53125 -21.578125 C 19.09375 -20.597656 19.875 -19.09375 19.875 -17.0625 Z M 7.953125 -21.28125 L 7.953125 -11.953125 L 8.796875 -11.953125 C 11.054688 -11.953125 12.769531 -12.394531 13.9375 -13.28125 C 15.101562 -14.164062 15.6875 -15.390625 15.6875 -16.953125 C 15.6875 -18.316406 15.242188 -19.476562 14.359375 -20.4375 C 13.472656 -21.40625 12.222656 -21.890625 10.609375 -21.890625 C 9.734375 -21.890625 8.847656 -21.6875 7.953125 -21.28125 Z M 7.953125 -21.28125 "/></g></g></g><g fill="#ffffff" fill-opacity="1"><g transform="translate(213.424392, 164.925925)"><g><path d="M 19.78125 -17.96875 L 19.203125 -17.96875 C 18.984375 -19.238281 18.570312 -20.179688 17.96875 -20.796875 C 17.363281 -21.410156 16.523438 -21.71875 15.453125 -21.71875 L 8.15625 -21.71875 L 8.15625 -12.828125 L 14.140625 -12.828125 C 15.210938 -12.828125 15.972656 -13.09375 16.421875 -13.625 C 16.867188 -14.164062 17.101562 -15.019531 17.125 -16.1875 L 17.734375 -16.1875 L 17.734375 -8.0625 L 17.125 -8.0625 C 17.125 -9.226562 16.898438 -10.085938 16.453125 -10.640625 C 16.003906 -11.203125 15.207031 -11.484375 14.0625 -11.484375 L 8.15625 -11.484375 L 8.15625 -3.0625 C 8.15625 -1.914062 8.601562 -1.34375 9.5 -1.34375 L 15.40625 -1.34375 C 16.644531 -1.34375 17.734375 -1.71875 18.671875 -2.46875 C 19.609375 -3.21875 20.367188 -4.304688 20.953125 -5.734375 L 21.65625 -5.734375 L 19.78125 0 L 1.203125 0 L 1.203125 -0.609375 C 2.367188 -0.609375 3.210938 -0.800781 3.734375 -1.1875 C 4.265625 -1.582031 4.53125 -2.316406 4.53125 -3.390625 L 4.53125 -19.90625 C 4.53125 -20.800781 4.265625 -21.453125 3.734375 -21.859375 C 3.210938 -22.265625 2.367188 -22.46875 1.203125 -22.46875 L 1.203125 -23.0625 L 19.515625 -23.0625 Z M 19.78125 -17.96875 "/></g></g></g><g fill="#ffffff" fill-opacity="1"><g transform="translate(235.818441, 164.925925)"><g><path d="M 16.6875 -5.4375 L 24.78125 -23.0625 L 31.796875 -23.0625 L 31.796875 -22.46875 L 31.5625 -22.46875 C 30.488281 -22.46875 29.691406 -22.273438 29.171875 -21.890625 C 28.660156 -21.515625 28.40625 -20.785156 28.40625 -19.703125 L 28.40625 -3.328125 C 28.40625 -2.335938 28.648438 -1.632812 29.140625 -1.21875 C 29.640625 -0.8125 30.46875 -0.609375 31.625 -0.609375 L 31.796875 -0.609375 L 31.796875 0 L 21.390625 0 L 21.390625 -0.609375 L 21.6875 -0.609375 C 22.738281 -0.609375 23.515625 -0.8125 24.015625 -1.21875 C 24.523438 -1.632812 24.78125 -2.359375 24.78125 -3.390625 L 24.78125 -19.34375 L 24.71875 -19.34375 L 15.84375 0 L 15.25 0 L 6.375 -19.34375 L 6.3125 -19.34375 L 6.3125 -3.359375 C 6.3125 -2.285156 6.554688 -1.5625 7.046875 -1.1875 C 7.546875 -0.820312 8.375 -0.628906 9.53125 -0.609375 L 9.53125 0 L 1.4375 0 L 1.4375 -0.609375 L 1.640625 -0.609375 C 2.710938 -0.609375 3.503906 -0.800781 4.015625 -1.1875 C 4.535156 -1.582031 4.796875 -2.316406 4.796875 -3.390625 L 4.796875 -19.140625 C 4.796875 -20.191406 4.523438 -20.976562 3.984375 -21.5 C 3.453125 -22.03125 2.601562 -22.351562 1.4375 -22.46875 L 1.4375 -23.0625 L 8.5 -23.0625 Z M 16.6875 -5.4375 "/></g></g></g><g fill="#ffffff" fill-opacity="1"><g transform="translate(269.056979, 164.925925)"><g><path d="M 11.78125 -22.46875 C 10.84375 -22.46875 10.125 -22.378906 9.625 -22.203125 C 9.132812 -22.035156 8.789062 -21.734375 8.59375 -21.296875 C 8.394531 -20.867188 8.296875 -20.238281 8.296875 -19.40625 L 8.296875 -3.359375 C 8.296875 -2.597656 8.414062 -2.019531 8.65625 -1.625 C 8.90625 -1.238281 9.273438 -0.976562 9.765625 -0.84375 C 10.265625 -0.707031 10.9375 -0.628906 11.78125 -0.609375 L 11.78125 0 L 1.171875 0 L 1.171875 -0.609375 C 2.066406 -0.628906 2.753906 -0.707031 3.234375 -0.84375 C 3.722656 -0.976562 4.082031 -1.238281 4.3125 -1.625 C 4.550781 -2.019531 4.671875 -2.609375 4.671875 -3.390625 L 4.671875 -19.40625 C 4.671875 -20.238281 4.5625 -20.863281 4.34375 -21.28125 C 4.132812 -21.707031 3.785156 -22.003906 3.296875 -22.171875 C 2.816406 -22.347656 2.109375 -22.445312 1.171875 -22.46875 L 1.171875 -23.0625 L 11.78125 -23.0625 Z M 11.78125 -22.46875 "/></g></g></g><g fill="#ffffff" fill-opacity="1"><g transform="translate(281.983079, 164.925925)"><g><path d="M 11.390625 -22.46875 C 10.617188 -22.445312 10.015625 -22.363281 9.578125 -22.21875 C 9.148438 -22.070312 8.8125 -21.800781 8.5625 -21.40625 C 8.3125 -21.007812 8.1875 -20.429688 8.1875 -19.671875 L 8.1875 -6.953125 C 8.1875 -5.222656 8.710938 -3.785156 9.765625 -2.640625 C 10.816406 -1.503906 12.394531 -0.9375 14.5 -0.9375 C 16.988281 -0.9375 18.859375 -1.550781 20.109375 -2.78125 C 21.367188 -4.019531 22 -5.859375 22 -8.296875 L 22 -19.75 C 22 -20.75 21.734375 -21.453125 21.203125 -21.859375 C 20.679688 -22.265625 19.90625 -22.46875 18.875 -22.46875 L 18.53125 -22.46875 L 18.53125 -23.0625 L 27 -23.0625 L 27 -22.46875 C 26.144531 -22.46875 25.460938 -22.398438 24.953125 -22.265625 C 24.453125 -22.128906 24.070312 -21.859375 23.8125 -21.453125 C 23.5625 -21.054688 23.4375 -20.460938 23.4375 -19.671875 L 23.4375 -7.890625 C 23.4375 -6.390625 23.097656 -5.003906 22.421875 -3.734375 C 21.753906 -2.472656 20.734375 -1.453125 19.359375 -0.671875 C 17.984375 0.109375 16.265625 0.5 14.203125 0.5 C 11.847656 0.5 9.953125 0.113281 8.515625 -0.65625 C 7.085938 -1.425781 6.070312 -2.410156 5.46875 -3.609375 C 4.863281 -4.804688 4.5625 -6.097656 4.5625 -7.484375 L 4.5625 -18.84375 C 4.5625 -19.820312 4.472656 -20.5625 4.296875 -21.0625 C 4.117188 -21.570312 3.800781 -21.929688 3.34375 -22.140625 C 2.882812 -22.359375 2.207031 -22.46875 1.3125 -22.46875 L 1.078125 -22.46875 L 1.078125 -23.0625 L 11.390625 -23.0625 Z M 11.390625 -22.46875 "/></g></g></g><g fill="#ffffff" fill-opacity="1"><g transform="translate(309.614722, 164.925925)"><g><path d="M 16.6875 -5.4375 L 24.78125 -23.0625 L 31.796875 -23.0625 L 31.796875 -22.46875 L 31.5625 -22.46875 C 30.488281 -22.46875 29.691406 -22.273438 29.171875 -21.890625 C 28.660156 -21.515625 28.40625 -20.785156 28.40625 -19.703125 L 28.40625 -3.328125 C 28.40625 -2.335938 28.648438 -1.632812 29.140625 -1.21875 C 29.640625 -0.8125 30.46875 -0.609375 31.625 -0.609375 L 31.796875 -0.609375 L 31.796875 0 L 21.390625 0 L 21.390625 -0.609375 L 21.6875 -0.609375 C 22.738281 -0.609375 23.515625 -0.8125 24.015625 -1.21875 C 24.523438 -1.632812 24.78125 -2.359375 24.78125 -3.390625 L 24.78125 -19.34375 L 24.71875 -19.34375 L 15.84375 0 L 15.25 0 L 6.375 -19.34375 L 6.3125 -19.34375 L 6.3125 -3.359375 C 6.3125 -2.285156 6.554688 -1.5625 7.046875 -1.1875 C 7.546875 -0.820312 8.375 -0.628906 9.53125 -0.609375 L 9.53125 0 L 1.4375 0 L 1.4375 -0.609375 L 1.640625 -0.609375 C 2.710938 -0.609375 3.503906 -0.800781 4.015625 -1.1875 C 4.535156 -1.582031 4.796875 -2.316406 4.796875 -3.390625 L 4.796875 -19.140625 C 4.796875 -20.191406 4.523438 -20.976562 3.984375 -21.5 C 3.453125 -22.03125 2.601562 -22.351562 1.4375 -22.46875 L 1.4375 -23.0625 L 8.5 -23.0625 Z M 16.6875 -5.4375 "/></g></g></g><g fill="#ffffff" fill-opacity="1"><g transform="translate(342.85326, 164.925925)"><g/></g></g><g fill="#ffffff" fill-opacity="1"><g transform="translate(351.246814, 164.925925)"><g><path d="M 19.671875 -16.625 C 19.671875 -15.4375 19.347656 -14.351562 18.703125 -13.375 C 18.054688 -12.40625 17.164062 -11.640625 16.03125 -11.078125 C 14.90625 -10.515625 13.632812 -10.234375 12.21875 -10.234375 C 10.65625 -10.234375 9.164062 -10.492188 7.75 -11.015625 L 7.75 -3.390625 C 7.75 -2.273438 8.023438 -1.53125 8.578125 -1.15625 C 9.128906 -0.789062 10.007812 -0.609375 11.21875 -0.609375 L 11.21875 0 L 0.84375 0 L 0.84375 -0.609375 C 2.070312 -0.609375 2.925781 -0.8125 3.40625 -1.21875 C 3.882812 -1.632812 4.125 -2.359375 4.125 -3.390625 L 4.125 -19.703125 C 4.125 -20.753906 3.863281 -21.476562 3.34375 -21.875 C 2.832031 -22.269531 2.066406 -22.46875 1.046875 -22.46875 L 0.84375 -22.46875 L 0.84375 -23.0625 L 10.953125 -23.0625 C 12.398438 -23.0625 13.789062 -22.835938 15.125 -22.390625 C 16.457031 -21.941406 17.546875 -21.226562 18.390625 -20.25 C 19.242188 -19.28125 19.671875 -18.070312 19.671875 -16.625 Z M 7.75 -21.359375 L 7.75 -12.1875 C 8.800781 -11.738281 9.753906 -11.515625 10.609375 -11.515625 C 12.066406 -11.515625 13.242188 -11.96875 14.140625 -12.875 C 15.035156 -13.78125 15.484375 -14.984375 15.484375 -16.484375 C 15.484375 -18.054688 15.007812 -19.332031 14.0625 -20.3125 C 13.125 -21.300781 11.828125 -21.796875 10.171875 -21.796875 C 9.429688 -21.796875 8.625 -21.648438 7.75 -21.359375 Z M 7.75 -21.359375 "/></g></g></g><g fill="#ffffff" fill-opacity="1"><g transform="translate(371.525675, 164.925925)"><g><path d="M 11.75 -22.46875 C 10.582031 -22.46875 9.75 -22.28125 9.25 -21.90625 C 8.75 -21.539062 8.5 -20.796875 8.5 -19.671875 L 8.5 -2.828125 C 8.5 -2.347656 8.59375 -2.007812 8.78125 -1.8125 C 8.96875 -1.613281 9.285156 -1.515625 9.734375 -1.515625 L 14.734375 -1.515625 C 15.898438 -1.515625 16.863281 -1.664062 17.625 -1.96875 C 18.382812 -2.269531 19.039062 -2.757812 19.59375 -3.4375 C 20.144531 -4.125 20.675781 -5.09375 21.1875 -6.34375 L 21.765625 -6.140625 L 19.8125 0 L 1.40625 0 L 1.40625 -0.609375 L 1.640625 -0.609375 C 2.785156 -0.609375 3.609375 -0.804688 4.109375 -1.203125 C 4.617188 -1.609375 4.875 -2.335938 4.875 -3.390625 L 4.875 -19.703125 C 4.875 -20.734375 4.609375 -21.453125 4.078125 -21.859375 C 3.554688 -22.265625 2.734375 -22.46875 1.609375 -22.46875 L 1.40625 -22.46875 L 1.40625 -23.0625 L 11.75 -23.0625 Z M 11.75 -22.46875 "/></g></g></g><g fill="#ffffff" fill-opacity="1"><g transform="translate(393.919723, 164.925925)"><g><path d="M 11.390625 -22.46875 C 10.617188 -22.445312 10.015625 -22.363281 9.578125 -22.21875 C 9.148438 -22.070312 8.8125 -21.800781 8.5625 -21.40625 C 8.3125 -21.007812 8.1875 -20.429688 8.1875 -19.671875 L 8.1875 -6.953125 C 8.1875 -5.222656 8.710938 -3.785156 9.765625 -2.640625 C 10.816406 -1.503906 12.394531 -0.9375 14.5 -0.9375 C 16.988281 -0.9375 18.859375 -1.550781 20.109375 -2.78125 C 21.367188 -4.019531 22 -5.859375 22 -8.296875 L 22 -19.75 C 22 -20.75 21.734375 -21.453125 21.203125 -21.859375 C 20.679688 -22.265625 19.90625 -22.46875 18.875 -22.46875 L 18.53125 -22.46875 L 18.53125 -23.0625 L 27 -23.0625 L 27 -22.46875 C 26.144531 -22.46875 25.460938 -22.398438 24.953125 -22.265625 C 24.453125 -22.128906 24.070312 -21.859375 23.8125 -21.453125 C 23.5625 -21.054688 23.4375 -20.460938 23.4375 -19.671875 L 23.4375 -7.890625 C 23.4375 -6.390625 23.097656 -5.003906 22.421875 -3.734375 C 21.753906 -2.472656 20.734375 -1.453125 19.359375 -0.671875 C 17.984375 0.109375 16.265625 0.5 14.203125 0.5 C 11.847656 0.5 9.953125 0.113281 8.515625 -0.65625 C 7.085938 -1.425781 6.070312 -2.410156 5.46875 -3.609375 C 4.863281 -4.804688 4.5625 -6.097656 4.5625 -7.484375 L 4.5625 -18.84375 C 4.5625 -19.820312 4.472656 -20.5625 4.296875 -21.0625 C 4.117188 -21.570312 3.800781 -21.929688 3.34375 -22.140625 C 2.882812 -22.359375 2.207031 -22.46875 1.3125 -22.46875 L 1.078125 -22.46875 L 1.078125 -23.0625 L 11.390625 -23.0625 Z M 11.390625 -22.46875 "/></g></g></g><g fill="#ffffff" fill-opacity="1"><g transform="translate(421.551343, 164.925925)"><g><path d="M 8.46875 -23.578125 C 9.226562 -23.578125 9.882812 -23.503906 10.4375 -23.359375 C 11 -23.210938 11.570312 -23.015625 12.15625 -22.765625 C 12.445312 -22.648438 12.734375 -22.546875 13.015625 -22.453125 C 13.296875 -22.367188 13.546875 -22.328125 13.765625 -22.328125 C 14.304688 -22.328125 14.734375 -22.742188 15.046875 -23.578125 L 15.6875 -23.578125 L 15.6875 -15.921875 L 15.046875 -15.921875 C 14.929688 -17.109375 14.578125 -18.1875 13.984375 -19.15625 C 13.390625 -20.125 12.648438 -20.890625 11.765625 -21.453125 C 10.878906 -22.015625 9.9375 -22.296875 8.9375 -22.296875 C 7.832031 -22.296875 6.890625 -21.960938 6.109375 -21.296875 C 5.328125 -20.640625 4.9375 -19.84375 4.9375 -18.90625 C 4.9375 -17.8125 5.472656 -16.859375 6.546875 -16.046875 C 7.304688 -15.484375 8.367188 -14.8125 9.734375 -14.03125 C 10.941406 -13.289062 11.945312 -12.648438 12.75 -12.109375 C 13.5625 -11.578125 14.316406 -11 15.015625 -10.375 C 15.640625 -9.769531 16.132812 -9.078125 16.5 -8.296875 C 16.875 -7.515625 17.0625 -6.707031 17.0625 -5.875 C 17.0625 -4.726562 16.742188 -3.660156 16.109375 -2.671875 C 15.484375 -1.691406 14.628906 -0.914062 13.546875 -0.34375 C 12.460938 0.21875 11.269531 0.5 9.96875 0.5 C 9.144531 0.5 8.410156 0.425781 7.765625 0.28125 C 7.128906 0.132812 6.46875 -0.0546875 5.78125 -0.296875 C 5.019531 -0.566406 4.445312 -0.703125 4.0625 -0.703125 C 3.457031 -0.703125 3 -0.300781 2.6875 0.5 L 2.078125 0.5 L 2.078125 -7.25 L 2.6875 -7.25 C 3.0625 -5.257812 3.816406 -3.679688 4.953125 -2.515625 C 6.085938 -1.347656 7.546875 -0.765625 9.328125 -0.765625 C 10.609375 -0.765625 11.660156 -1.113281 12.484375 -1.8125 C 13.316406 -2.507812 13.734375 -3.382812 13.734375 -4.4375 C 13.734375 -4.96875 13.628906 -5.457031 13.421875 -5.90625 C 13.222656 -6.351562 12.890625 -6.835938 12.421875 -7.359375 C 11.992188 -7.804688 11.390625 -8.289062 10.609375 -8.8125 C 9.828125 -9.34375 8.785156 -10 7.484375 -10.78125 C 6.390625 -11.445312 5.550781 -11.976562 4.96875 -12.375 C 4.382812 -12.769531 3.945312 -13.109375 3.65625 -13.390625 C 2.519531 -14.554688 1.953125 -15.957031 1.953125 -17.59375 C 1.953125 -18.71875 2.234375 -19.734375 2.796875 -20.640625 C 3.367188 -21.546875 4.144531 -22.257812 5.125 -22.78125 C 6.113281 -23.3125 7.226562 -23.578125 8.46875 -23.578125 Z M 8.46875 -23.578125 "/></g></g></g></svg>