<svg xmlns="http://www.w3.org/2000/svg" xmlns:xlink="http://www.w3.org/1999/xlink" width="600" zoomAndPan="magnify" viewBox="0 0 450 299.999988" height="400" preserveAspectRatio="xMidYMid meet" version="1.0"><defs><filter x="0%" y="0%" width="100%" height="100%" id="0eeb090e6f"><feColorMatrix values="0 0 0 0 1 0 0 0 0 1 0 0 0 0 1 0 0 0 1 0" color-interpolation-filters="sRGB"/></filter><g/><mask id="f538ad870b"><g filter="url(#0eeb090e6f)"><rect x="-45" width="540" fill="#000000" y="-29.999999" height="359.999986" fill-opacity="0.3"/></g></mask><clipPath id="ae3e66b96c"><path d="M 0.375 0.523438 L 95.675781 0.523438 L 95.675781 143.476562 L 0.375 143.476562 Z M 0.375 0.523438 " clip-rule="nonzero"/></clipPath><clipPath id="aa4aa52f47"><path d="M 48.023438 0.523438 L 95.675781 0.523438 L 48.023438 143.476562 L 0.375 143.476562 Z M 48.023438 0.523438 " clip-rule="nonzero"/></clipPath><clipPath id="0c3f2ad6ae"><rect x="0" width="96" y="0" height="144"/></clipPath><mask id="227a9badea"><g filter="url(#0eeb090e6f)"><rect x="-45" width="540" fill="#000000" y="-29.999999" height="359.999986" fill-opacity="0.3"/></g></mask><clipPath id="bee9d442a3"><path d="M 1.007812 0.523438 L 96.308594 0.523438 L 96.308594 143.476562 L 1.007812 143.476562 Z M 1.007812 0.523438 " clip-rule="nonzero"/></clipPath><clipPath id="79772ccab5"><path d="M 48.660156 0.523438 L 96.308594 0.523438 L 48.660156 143.476562 L 1.007812 143.476562 Z M 48.660156 0.523438 " clip-rule="nonzero"/></clipPath><clipPath id="04af8e2d3d"><rect x="0" width="97" y="0" height="144"/></clipPath><mask id="2e5d693f0e"><g filter="url(#0eeb090e6f)"><rect x="-45" width="540" fill="#000000" y="-29.999999" height="359.999986" fill-opacity="0.3"/></g></mask><clipPath id="e878db5ce8"><path d="M 0.96875 0.523438 L 96.269531 0.523438 L 96.269531 143.476562 L 0.96875 143.476562 Z M 0.96875 0.523438 " clip-rule="nonzero"/></clipPath><clipPath id="5f5af3c82d"><path d="M 48.617188 0.523438 L 96.269531 0.523438 L 48.617188 143.476562 L 0.96875 143.476562 Z M 48.617188 0.523438 " clip-rule="nonzero"/></clipPath><clipPath id="625ca80ed3"><rect x="0" width="97" y="0" height="144"/></clipPath></defs><g mask="url(#f538ad870b)"><g transform="matrix(1, 0, 0, 1, 151, 78)"><g clip-path="url(#0c3f2ad6ae)"><g clip-path="url(#ae3e66b96c)"><g clip-path="url(#aa4aa52f47)"><path fill="#6b6058" d="M 0.375 0.523438 L 95.675781 0.523438 L 95.675781 143.476562 L 0.375 143.476562 Z M 0.375 0.523438 " fill-opacity="1" fill-rule="nonzero"/></g></g></g></g></g><g mask="url(#227a9badea)"><g transform="matrix(1, 0, 0, 1, 211, 78)"><g clip-path="url(#04af8e2d3d)"><g clip-path="url(#bee9d442a3)"><g clip-path="url(#79772ccab5)"><path fill="#343e36" d="M 1.007812 0.523438 L 96.308594 0.523438 L 96.308594 143.476562 L 1.007812 143.476562 Z M 1.007812 0.523438 " fill-opacity="1" fill-rule="nonzero"/></g></g></g></g></g><g mask="url(#2e5d693f0e)"><g transform="matrix(1, 0, 0, 1, 272, 78)"><g clip-path="url(#625ca80ed3)"><g clip-path="url(#e878db5ce8)"><g clip-path="url(#5f5af3c82d)"><path fill="#000000" d="M 0.96875 0.523438 L 96.269531 0.523438 L 96.269531 143.476562 L 0.96875 143.476562 Z M 0.96875 0.523438 " fill-opacity="1" fill-rule="nonzero"/></g></g></g></g></g><g fill="#ffffff" fill-opacity="1"><g transform="translate(3.407235, 166.623502)"><g><path d="M 28.609375 -12.578125 C 28.609375 -10.066406 27.953125 -7.859375 26.640625 -5.953125 C 25.335938 -4.054688 23.578125 -2.585938 21.359375 -1.546875 C 19.140625 -0.515625 16.710938 0 14.078125 0 L 1.171875 0 L 1.171875 -0.65625 C 2.484375 -0.675781 3.425781 -0.894531 4 -1.3125 C 4.570312 -1.726562 4.859375 -2.519531 4.859375 -3.6875 L 4.859375 -21.515625 C 4.859375 -22.679688 4.550781 -23.460938 3.9375 -23.859375 C 3.332031 -24.265625 2.410156 -24.46875 1.171875 -24.46875 L 1.171875 -25.125 L 15.1875 -25.125 C 17.988281 -25.125 20.40625 -24.523438 22.4375 -23.328125 C 24.476562 -22.140625 26.015625 -20.585938 27.046875 -18.671875 C 28.085938 -16.753906 28.609375 -14.722656 28.609375 -12.578125 Z M 8.8125 -23.125 L 8.8125 -1.828125 C 10.03125 -1.460938 11.347656 -1.28125 12.765625 -1.28125 C 15.003906 -1.28125 16.976562 -1.738281 18.6875 -2.65625 C 20.394531 -3.570312 21.710938 -4.867188 22.640625 -6.546875 C 23.566406 -8.234375 24.03125 -10.171875 24.03125 -12.359375 C 24.03125 -14.554688 23.566406 -16.515625 22.640625 -18.234375 C 21.710938 -19.953125 20.398438 -21.296875 18.703125 -22.265625 C 17.015625 -23.242188 15.070312 -23.734375 12.875 -23.734375 C 11.414062 -23.734375 10.0625 -23.53125 8.8125 -23.125 Z M 8.8125 -23.125 "/></g></g></g><g fill="#ffffff" fill-opacity="1"><g transform="translate(33.507838, 166.623502)"><g><path d="M 21.546875 -19.5625 L 20.921875 -19.5625 C 20.679688 -20.957031 20.226562 -21.988281 19.5625 -22.65625 C 18.90625 -23.332031 17.992188 -23.671875 16.828125 -23.671875 L 8.890625 -23.671875 L 8.890625 -13.96875 L 15.40625 -13.96875 C 16.570312 -13.96875 17.398438 -14.257812 17.890625 -14.84375 C 18.378906 -15.4375 18.632812 -16.363281 18.65625 -17.625 L 19.3125 -17.625 L 19.3125 -8.78125 L 18.65625 -8.78125 C 18.65625 -10.050781 18.410156 -10.988281 17.921875 -11.59375 C 17.429688 -12.207031 16.566406 -12.515625 15.328125 -12.515625 L 8.890625 -12.515625 L 8.890625 -3.328125 C 8.890625 -2.085938 9.378906 -1.46875 10.359375 -1.46875 L 16.796875 -1.46875 C 18.128906 -1.46875 19.304688 -1.875 20.328125 -2.6875 C 21.359375 -3.5 22.191406 -4.6875 22.828125 -6.25 L 23.59375 -6.25 L 21.546875 0 L 1.3125 0 L 1.3125 -0.65625 C 2.582031 -0.65625 3.503906 -0.867188 4.078125 -1.296875 C 4.648438 -1.722656 4.9375 -2.519531 4.9375 -3.6875 L 4.9375 -21.6875 C 4.9375 -22.664062 4.648438 -23.375 4.078125 -23.8125 C 3.503906 -24.25 2.582031 -24.46875 1.3125 -24.46875 L 1.3125 -25.125 L 21.25 -25.125 Z M 21.546875 -19.5625 "/></g></g></g><g fill="#ffffff" fill-opacity="1"><g transform="translate(57.902852, 166.623502)"><g><path d="M 23.484375 -19.421875 L 22.78125 -19.421875 C 22.445312 -22.148438 20.972656 -23.515625 18.359375 -23.515625 L 14.15625 -23.515625 L 14.15625 -3.4375 C 14.15625 -2.34375 14.472656 -1.601562 15.109375 -1.21875 C 15.742188 -0.84375 16.644531 -0.65625 17.8125 -0.65625 L 17.8125 0 L 6.546875 0 L 6.546875 -0.65625 C 7.835938 -0.65625 8.769531 -0.875 9.34375 -1.3125 C 9.914062 -1.75 10.203125 -2.539062 10.203125 -3.6875 L 10.203125 -23.515625 L 5.75 -23.515625 C 4.601562 -23.515625 3.644531 -23.179688 2.875 -22.515625 C 2.101562 -21.847656 1.671875 -20.816406 1.578125 -19.421875 L 0.921875 -19.421875 L 1.09375 -25.125 L 23.296875 -25.125 Z M 23.484375 -19.421875 "/></g></g></g><g fill="#ffffff" fill-opacity="1"><g transform="translate(82.297866, 166.623502)"><g><path d="M 4.203125 -4.859375 L 13.578125 -26.21875 L 14.234375 -26.21875 L 24.109375 -3.46875 C 24.472656 -2.644531 24.816406 -2.03125 25.140625 -1.625 C 25.472656 -1.226562 25.820312 -0.96875 26.1875 -0.84375 C 26.550781 -0.71875 27.050781 -0.65625 27.6875 -0.65625 L 27.6875 0 L 17.375 0 L 17.375 -0.65625 C 18.25 -0.65625 18.90625 -0.8125 19.34375 -1.125 C 19.789062 -1.445312 20.015625 -1.878906 20.015625 -2.421875 C 20.015625 -2.878906 19.851562 -3.453125 19.53125 -4.140625 L 17.625 -8.453125 L 7.5 -8.453125 L 5.40625 -3.65625 C 5.164062 -3.164062 5.046875 -2.726562 5.046875 -2.34375 C 5.046875 -1.21875 5.945312 -0.65625 7.75 -0.65625 L 7.75 0 L 0.515625 0 L 0.515625 -0.65625 C 1.117188 -0.726562 1.609375 -0.90625 1.984375 -1.1875 C 2.367188 -1.46875 2.710938 -1.875 3.015625 -2.40625 C 3.316406 -2.945312 3.710938 -3.765625 4.203125 -4.859375 Z M 17.046875 -9.84375 L 12.578125 -20.046875 L 8.125 -9.84375 Z M 17.046875 -9.84375 "/></g></g></g><g fill="#ffffff" fill-opacity="1"><g transform="translate(110.49661, 166.623502)"><g><path d="M 12.796875 -24.46875 C 11.535156 -24.46875 10.628906 -24.265625 10.078125 -23.859375 C 9.523438 -23.460938 9.25 -22.65625 9.25 -21.4375 L 9.25 -3.078125 C 9.25 -2.554688 9.351562 -2.1875 9.5625 -1.96875 C 9.769531 -1.75 10.117188 -1.640625 10.609375 -1.640625 L 16.0625 -1.640625 C 17.320312 -1.640625 18.367188 -1.804688 19.203125 -2.140625 C 20.035156 -2.472656 20.75 -3.007812 21.34375 -3.75 C 21.9375 -4.488281 22.515625 -5.539062 23.078125 -6.90625 L 23.703125 -6.6875 L 21.578125 0 L 1.53125 0 L 1.53125 -0.65625 L 1.796875 -0.65625 C 3.035156 -0.65625 3.925781 -0.875 4.46875 -1.3125 C 5.019531 -1.75 5.296875 -2.539062 5.296875 -3.6875 L 5.296875 -21.46875 C 5.296875 -22.59375 5.007812 -23.375 4.4375 -23.8125 C 3.863281 -24.25 2.96875 -24.46875 1.75 -24.46875 L 1.53125 -24.46875 L 1.53125 -25.125 L 12.796875 -25.125 Z M 12.796875 -24.46875 "/></g></g></g><g fill="#ffffff" fill-opacity="1"><g transform="translate(134.891624, 166.623502)"><g><path d="M 12.796875 -24.46875 C 11.535156 -24.46875 10.628906 -24.265625 10.078125 -23.859375 C 9.523438 -23.460938 9.25 -22.65625 9.25 -21.4375 L 9.25 -3.078125 C 9.25 -2.554688 9.351562 -2.1875 9.5625 -1.96875 C 9.769531 -1.75 10.117188 -1.640625 10.609375 -1.640625 L 16.0625 -1.640625 C 17.320312 -1.640625 18.367188 -1.804688 19.203125 -2.140625 C 20.035156 -2.472656 20.75 -3.007812 21.34375 -3.75 C 21.9375 -4.488281 22.515625 -5.539062 23.078125 -6.90625 L 23.703125 -6.6875 L 21.578125 0 L 1.53125 0 L 1.53125 -0.65625 L 1.796875 -0.65625 C 3.035156 -0.65625 3.925781 -0.875 4.46875 -1.3125 C 5.019531 -1.75 5.296875 -2.539062 5.296875 -3.6875 L 5.296875 -21.46875 C 5.296875 -22.59375 5.007812 -23.375 4.4375 -23.8125 C 3.863281 -24.25 2.96875 -24.46875 1.75 -24.46875 L 1.53125 -24.46875 L 1.53125 -25.125 L 12.796875 -25.125 Z M 12.796875 -24.46875 "/></g></g></g><g fill="#ffffff" fill-opacity="1"><g transform="translate(159.286638, 166.623502)"><g><path d="M 4.203125 -4.859375 L 13.578125 -26.21875 L 14.234375 -26.21875 L 24.109375 -3.46875 C 24.472656 -2.644531 24.816406 -2.03125 25.140625 -1.625 C 25.472656 -1.226562 25.820312 -0.96875 26.1875 -0.84375 C 26.550781 -0.71875 27.050781 -0.65625 27.6875 -0.65625 L 27.6875 0 L 17.375 0 L 17.375 -0.65625 C 18.25 -0.65625 18.90625 -0.8125 19.34375 -1.125 C 19.789062 -1.445312 20.015625 -1.878906 20.015625 -2.421875 C 20.015625 -2.878906 19.851562 -3.453125 19.53125 -4.140625 L 17.625 -8.453125 L 7.5 -8.453125 L 5.40625 -3.65625 C 5.164062 -3.164062 5.046875 -2.726562 5.046875 -2.34375 C 5.046875 -1.21875 5.945312 -0.65625 7.75 -0.65625 L 7.75 0 L 0.515625 0 L 0.515625 -0.65625 C 1.117188 -0.726562 1.609375 -0.90625 1.984375 -1.1875 C 2.367188 -1.46875 2.710938 -1.875 3.015625 -2.40625 C 3.316406 -2.945312 3.710938 -3.765625 4.203125 -4.859375 Z M 17.046875 -9.84375 L 12.578125 -20.046875 L 8.125 -9.84375 Z M 17.046875 -9.84375 "/></g></g></g><g fill="#ffffff" fill-opacity="1"><g transform="translate(187.485381, 166.623502)"><g><path d="M 28.609375 -12.578125 C 28.609375 -10.066406 27.953125 -7.859375 26.640625 -5.953125 C 25.335938 -4.054688 23.578125 -2.585938 21.359375 -1.546875 C 19.140625 -0.515625 16.710938 0 14.078125 0 L 1.171875 0 L 1.171875 -0.65625 C 2.484375 -0.675781 3.425781 -0.894531 4 -1.3125 C 4.570312 -1.726562 4.859375 -2.519531 4.859375 -3.6875 L 4.859375 -21.515625 C 4.859375 -22.679688 4.550781 -23.460938 3.9375 -23.859375 C 3.332031 -24.265625 2.410156 -24.46875 1.171875 -24.46875 L 1.171875 -25.125 L 15.1875 -25.125 C 17.988281 -25.125 20.40625 -24.523438 22.4375 -23.328125 C 24.476562 -22.140625 26.015625 -20.585938 27.046875 -18.671875 C 28.085938 -16.753906 28.609375 -14.722656 28.609375 -12.578125 Z M 8.8125 -23.125 L 8.8125 -1.828125 C 10.03125 -1.460938 11.347656 -1.28125 12.765625 -1.28125 C 15.003906 -1.28125 16.976562 -1.738281 18.6875 -2.65625 C 20.394531 -3.570312 21.710938 -4.867188 22.640625 -6.546875 C 23.566406 -8.234375 24.03125 -10.171875 24.03125 -12.359375 C 24.03125 -14.554688 23.566406 -16.515625 22.640625 -18.234375 C 21.710938 -19.953125 20.398438 -21.296875 18.703125 -22.265625 C 17.015625 -23.242188 15.070312 -23.734375 12.875 -23.734375 C 11.414062 -23.734375 10.0625 -23.53125 8.8125 -23.125 Z M 8.8125 -23.125 "/></g></g></g><g fill="#ffffff" fill-opacity="1"><g transform="translate(217.585984, 166.623502)"><g><path d="M 14.078125 -25.671875 C 16.398438 -25.671875 18.535156 -25.085938 20.484375 -23.921875 C 22.429688 -22.753906 23.976562 -21.160156 25.125 -19.140625 C 26.269531 -17.128906 26.84375 -14.929688 26.84375 -12.546875 C 26.84375 -10.179688 26.269531 -7.992188 25.125 -5.984375 C 23.976562 -3.972656 22.429688 -2.378906 20.484375 -1.203125 C 18.535156 -0.0351562 16.398438 0.546875 14.078125 0.546875 C 11.765625 0.546875 9.628906 -0.0351562 7.671875 -1.203125 C 5.722656 -2.378906 4.179688 -3.972656 3.046875 -5.984375 C 1.921875 -7.992188 1.359375 -10.179688 1.359375 -12.546875 C 1.359375 -14.929688 1.921875 -17.128906 3.046875 -19.140625 C 4.179688 -21.160156 5.722656 -22.753906 7.671875 -23.921875 C 9.628906 -25.085938 11.765625 -25.671875 14.078125 -25.671875 Z M 5.921875 -12.546875 C 5.921875 -10.203125 6.253906 -8.144531 6.921875 -6.375 C 7.597656 -4.613281 8.550781 -3.25 9.78125 -2.28125 C 11.007812 -1.320312 12.441406 -0.84375 14.078125 -0.84375 C 15.710938 -0.84375 17.148438 -1.320312 18.390625 -2.28125 C 19.640625 -3.25 20.597656 -4.613281 21.265625 -6.375 C 21.941406 -8.144531 22.28125 -10.203125 22.28125 -12.546875 C 22.28125 -14.835938 21.945312 -16.875 21.28125 -18.65625 C 20.625 -20.4375 19.679688 -21.816406 18.453125 -22.796875 C 17.222656 -23.785156 15.753906 -24.28125 14.046875 -24.28125 C 12.359375 -24.28125 10.90625 -23.78125 9.6875 -22.78125 C 8.46875 -21.78125 7.535156 -20.390625 6.890625 -18.609375 C 6.242188 -16.835938 5.921875 -14.816406 5.921875 -12.546875 Z M 5.921875 -12.546875 "/></g></g></g><g fill="#ffffff" fill-opacity="1"><g transform="translate(245.784727, 166.623502)"><g/></g></g><g fill="#ffffff" fill-opacity="1"><g transform="translate(254.928304, 166.623502)"><g><path d="M 12.84375 -24.46875 C 11.8125 -24.46875 11.023438 -24.375 10.484375 -24.1875 C 9.953125 -24.007812 9.578125 -23.679688 9.359375 -23.203125 C 9.140625 -22.734375 9.03125 -22.046875 9.03125 -21.140625 L 9.03125 -3.65625 C 9.03125 -2.832031 9.164062 -2.207031 9.4375 -1.78125 C 9.707031 -1.351562 10.109375 -1.0625 10.640625 -0.90625 C 11.179688 -0.757812 11.914062 -0.675781 12.84375 -0.65625 L 12.84375 0 L 1.28125 0 L 1.28125 -0.65625 C 2.257812 -0.675781 3.007812 -0.757812 3.53125 -0.90625 C 4.050781 -1.0625 4.4375 -1.351562 4.6875 -1.78125 C 4.945312 -2.207031 5.078125 -2.84375 5.078125 -3.6875 L 5.078125 -21.140625 C 5.078125 -22.046875 4.960938 -22.726562 4.734375 -23.1875 C 4.503906 -23.65625 4.125 -23.976562 3.59375 -24.15625 C 3.070312 -24.34375 2.300781 -24.445312 1.28125 -24.46875 L 1.28125 -25.125 L 12.84375 -25.125 Z M 12.84375 -24.46875 "/></g></g></g><g fill="#ffffff" fill-opacity="1"><g transform="translate(269.009388, 166.623502)"><g><path d="M 24.03125 -6.578125 L 24.03125 -21.65625 C 24.03125 -22.75 23.832031 -23.484375 23.4375 -23.859375 C 23.050781 -24.242188 22.332031 -24.445312 21.28125 -24.46875 L 20.375 -24.46875 L 20.375 -25.125 L 29.625 -25.125 L 29.625 -24.46875 L 28.859375 -24.46875 C 27.878906 -24.46875 27.179688 -24.40625 26.765625 -24.28125 C 26.359375 -24.164062 26.070312 -23.878906 25.90625 -23.421875 C 25.75 -22.972656 25.671875 -22.238281 25.671875 -21.21875 L 25.671875 0.296875 L 25.171875 0.296875 L 7.203125 -19.9375 L 7.203125 -4.25 C 7.203125 -2.875 7.476562 -1.929688 8.03125 -1.421875 C 8.582031 -0.910156 9.523438 -0.65625 10.859375 -0.65625 L 10.859375 0 L 1.796875 0 L 1.796875 -0.65625 L 2.015625 -0.65625 C 3.179688 -0.65625 4.066406 -0.867188 4.671875 -1.296875 C 5.285156 -1.722656 5.59375 -2.507812 5.59375 -3.65625 L 5.59375 -21.546875 C 4.957031 -22.617188 4.238281 -23.375 3.4375 -23.8125 C 2.632812 -24.25 1.644531 -24.46875 0.46875 -24.46875 L 0.46875 -25.125 L 7.796875 -25.125 Z M 24.03125 -6.578125 "/></g></g></g><g fill="#ffffff" fill-opacity="1"><g transform="translate(299.110002, 166.623502)"><g><path d="M 23.484375 -19.421875 L 22.78125 -19.421875 C 22.445312 -22.148438 20.972656 -23.515625 18.359375 -23.515625 L 14.15625 -23.515625 L 14.15625 -3.4375 C 14.15625 -2.34375 14.472656 -1.601562 15.109375 -1.21875 C 15.742188 -0.84375 16.644531 -0.65625 17.8125 -0.65625 L 17.8125 0 L 6.546875 0 L 6.546875 -0.65625 C 7.835938 -0.65625 8.769531 -0.875 9.34375 -1.3125 C 9.914062 -1.75 10.203125 -2.539062 10.203125 -3.6875 L 10.203125 -23.515625 L 5.75 -23.515625 C 4.601562 -23.515625 3.644531 -23.179688 2.875 -22.515625 C 2.101562 -21.847656 1.671875 -20.816406 1.578125 -19.421875 L 0.921875 -19.421875 L 1.09375 -25.125 L 23.296875 -25.125 Z M 23.484375 -19.421875 "/></g></g></g><g fill="#ffffff" fill-opacity="1"><g transform="translate(323.505004, 166.623502)"><g><path d="M 21.546875 -19.5625 L 20.921875 -19.5625 C 20.679688 -20.957031 20.226562 -21.988281 19.5625 -22.65625 C 18.90625 -23.332031 17.992188 -23.671875 16.828125 -23.671875 L 8.890625 -23.671875 L 8.890625 -13.96875 L 15.40625 -13.96875 C 16.570312 -13.96875 17.398438 -14.257812 17.890625 -14.84375 C 18.378906 -15.4375 18.632812 -16.363281 18.65625 -17.625 L 19.3125 -17.625 L 19.3125 -8.78125 L 18.65625 -8.78125 C 18.65625 -10.050781 18.410156 -10.988281 17.921875 -11.59375 C 17.429688 -12.207031 16.566406 -12.515625 15.328125 -12.515625 L 8.890625 -12.515625 L 8.890625 -3.328125 C 8.890625 -2.085938 9.378906 -1.46875 10.359375 -1.46875 L 16.796875 -1.46875 C 18.128906 -1.46875 19.304688 -1.875 20.328125 -2.6875 C 21.359375 -3.5 22.191406 -4.6875 22.828125 -6.25 L 23.59375 -6.25 L 21.546875 0 L 1.3125 0 L 1.3125 -0.65625 C 2.582031 -0.65625 3.503906 -0.867188 4.078125 -1.296875 C 4.648438 -1.722656 4.9375 -2.519531 4.9375 -3.6875 L 4.9375 -21.6875 C 4.9375 -22.664062 4.648438 -23.375 4.078125 -23.8125 C 3.503906 -24.25 2.582031 -24.46875 1.3125 -24.46875 L 1.3125 -25.125 L 21.25 -25.125 Z M 21.546875 -19.5625 "/></g></g></g><g fill="#ffffff" fill-opacity="1"><g transform="translate(347.900006, 166.623502)"><g><path d="M 21.65625 -18.578125 C 21.65625 -17.046875 21.128906 -15.722656 20.078125 -14.609375 C 19.035156 -13.503906 17.441406 -12.679688 15.296875 -12.140625 L 21.109375 -4.9375 C 21.816406 -4.0625 22.410156 -3.359375 22.890625 -2.828125 C 23.378906 -2.304688 23.984375 -1.832031 24.703125 -1.40625 C 25.421875 -0.976562 26.222656 -0.726562 27.109375 -0.65625 L 27.109375 0 L 20.5625 0 L 11.078125 -11.78125 L 8.671875 -11.78125 L 8.671875 -3.625 C 8.671875 -2.550781 8.941406 -1.785156 9.484375 -1.328125 C 10.035156 -0.878906 10.898438 -0.65625 12.078125 -0.65625 L 12.21875 -0.65625 L 12.21875 0 L 1.25 0 L 1.25 -0.65625 C 2.414062 -0.65625 3.285156 -0.863281 3.859375 -1.28125 C 4.429688 -1.695312 4.71875 -2.441406 4.71875 -3.515625 L 4.71875 -21.6875 C 4.71875 -22.664062 4.429688 -23.375 3.859375 -23.8125 C 3.285156 -24.25 2.414062 -24.46875 1.25 -24.46875 L 1.25 -25.125 L 12.984375 -25.125 C 15.367188 -25.125 17.410156 -24.585938 19.109375 -23.515625 C 20.804688 -22.441406 21.65625 -20.796875 21.65625 -18.578125 Z M 8.671875 -23.1875 L 8.671875 -13.015625 L 9.578125 -13.015625 C 12.046875 -13.015625 13.910156 -13.492188 15.171875 -14.453125 C 16.441406 -15.421875 17.078125 -16.757812 17.078125 -18.46875 C 17.078125 -19.957031 16.59375 -21.222656 15.625 -22.265625 C 14.664062 -23.316406 13.3125 -23.84375 11.5625 -23.84375 C 10.601562 -23.84375 9.640625 -23.625 8.671875 -23.1875 Z M 8.671875 -23.1875 "/></g></g></g><g fill="#ffffff" fill-opacity="1"><g transform="translate(376.09875, 166.623502)"><g><path d="M 12.84375 -24.46875 C 11.8125 -24.46875 11.023438 -24.375 10.484375 -24.1875 C 9.953125 -24.007812 9.578125 -23.679688 9.359375 -23.203125 C 9.140625 -22.734375 9.03125 -22.046875 9.03125 -21.140625 L 9.03125 -3.65625 C 9.03125 -2.832031 9.164062 -2.207031 9.4375 -1.78125 C 9.707031 -1.351562 10.109375 -1.0625 10.640625 -0.90625 C 11.179688 -0.757812 11.914062 -0.675781 12.84375 -0.65625 L 12.84375 0 L 1.28125 0 L 1.28125 -0.65625 C 2.257812 -0.675781 3.007812 -0.757812 3.53125 -0.90625 C 4.050781 -1.0625 4.4375 -1.351562 4.6875 -1.78125 C 4.945312 -2.207031 5.078125 -2.84375 5.078125 -3.6875 L 5.078125 -21.140625 C 5.078125 -22.046875 4.960938 -22.726562 4.734375 -23.1875 C 4.503906 -23.65625 4.125 -23.976562 3.59375 -24.15625 C 3.070312 -24.34375 2.300781 -24.445312 1.28125 -24.46875 L 1.28125 -25.125 L 12.84375 -25.125 Z M 12.84375 -24.46875 "/></g></g></g><g fill="#ffffff" fill-opacity="1"><g transform="translate(390.179834, 166.623502)"><g><path d="M 14.078125 -25.671875 C 16.398438 -25.671875 18.535156 -25.085938 20.484375 -23.921875 C 22.429688 -22.753906 23.976562 -21.160156 25.125 -19.140625 C 26.269531 -17.128906 26.84375 -14.929688 26.84375 -12.546875 C 26.84375 -10.179688 26.269531 -7.992188 25.125 -5.984375 C 23.976562 -3.972656 22.429688 -2.378906 20.484375 -1.203125 C 18.535156 -0.0351562 16.398438 0.546875 14.078125 0.546875 C 11.765625 0.546875 9.628906 -0.0351562 7.671875 -1.203125 C 5.722656 -2.378906 4.179688 -3.972656 3.046875 -5.984375 C 1.921875 -7.992188 1.359375 -10.179688 1.359375 -12.546875 C 1.359375 -14.929688 1.921875 -17.128906 3.046875 -19.140625 C 4.179688 -21.160156 5.722656 -22.753906 7.671875 -23.921875 C 9.628906 -25.085938 11.765625 -25.671875 14.078125 -25.671875 Z M 5.921875 -12.546875 C 5.921875 -10.203125 6.253906 -8.144531 6.921875 -6.375 C 7.597656 -4.613281 8.550781 -3.25 9.78125 -2.28125 C 11.007812 -1.320312 12.441406 -0.84375 14.078125 -0.84375 C 15.710938 -0.84375 17.148438 -1.320312 18.390625 -2.28125 C 19.640625 -3.25 20.597656 -4.613281 21.265625 -6.375 C 21.941406 -8.144531 22.28125 -10.203125 22.28125 -12.546875 C 22.28125 -14.835938 21.945312 -16.875 21.28125 -18.65625 C 20.625 -20.4375 19.679688 -21.816406 18.453125 -22.796875 C 17.222656 -23.785156 15.753906 -24.28125 14.046875 -24.28125 C 12.359375 -24.28125 10.90625 -23.78125 9.6875 -22.78125 C 8.46875 -21.78125 7.535156 -20.390625 6.890625 -18.609375 C 6.242188 -16.835938 5.921875 -14.816406 5.921875 -12.546875 Z M 5.921875 -12.546875 "/></g></g></g><g fill="#ffffff" fill-opacity="1"><g transform="translate(418.378577, 166.623502)"><g><path d="M 21.65625 -18.578125 C 21.65625 -17.046875 21.128906 -15.722656 20.078125 -14.609375 C 19.035156 -13.503906 17.441406 -12.679688 15.296875 -12.140625 L 21.109375 -4.9375 C 21.816406 -4.0625 22.410156 -3.359375 22.890625 -2.828125 C 23.378906 -2.304688 23.984375 -1.832031 24.703125 -1.40625 C 25.421875 -0.976562 26.222656 -0.726562 27.109375 -0.65625 L 27.109375 0 L 20.5625 0 L 11.078125 -11.78125 L 8.671875 -11.78125 L 8.671875 -3.625 C 8.671875 -2.550781 8.941406 -1.785156 9.484375 -1.328125 C 10.035156 -0.878906 10.898438 -0.65625 12.078125 -0.65625 L 12.21875 -0.65625 L 12.21875 0 L 1.25 0 L 1.25 -0.65625 C 2.414062 -0.65625 3.285156 -0.863281 3.859375 -1.28125 C 4.429688 -1.695312 4.71875 -2.441406 4.71875 -3.515625 L 4.71875 -21.6875 C 4.71875 -22.664062 4.429688 -23.375 3.859375 -23.8125 C 3.285156 -24.25 2.414062 -24.46875 1.25 -24.46875 L 1.25 -25.125 L 12.984375 -25.125 C 15.367188 -25.125 17.410156 -24.585938 19.109375 -23.515625 C 20.804688 -22.441406 21.65625 -20.796875 21.65625 -18.578125 Z M 8.671875 -23.1875 L 8.671875 -13.015625 L 9.578125 -13.015625 C 12.046875 -13.015625 13.910156 -13.492188 15.171875 -14.453125 C 16.441406 -15.421875 17.078125 -16.757812 17.078125 -18.46875 C 17.078125 -19.957031 16.59375 -21.222656 15.625 -22.265625 C 14.664062 -23.316406 13.3125 -23.84375 11.5625 -23.84375 C 10.601562 -23.84375 9.640625 -23.625 8.671875 -23.1875 Z M 8.671875 -23.1875 "/></g></g></g><g fill="#ffffff" fill-opacity="1"><g transform="translate(7.081742, 193.026021)"><g><path d="M 7.6875 -6.359375 L 7.453125 -6.359375 C 7.335938 -7.253906 6.859375 -7.703125 6.015625 -7.703125 L 4.625 -7.703125 L 4.625 -1.125 C 4.625 -0.769531 4.726562 -0.53125 4.9375 -0.40625 C 5.144531 -0.28125 5.441406 -0.21875 5.828125 -0.21875 L 5.828125 0 L 2.140625 0 L 2.140625 -0.21875 C 2.566406 -0.21875 2.875 -0.285156 3.0625 -0.421875 C 3.25 -0.566406 3.34375 -0.828125 3.34375 -1.203125 L 3.34375 -7.703125 L 1.875 -7.703125 C 1.5 -7.703125 1.1875 -7.585938 0.9375 -7.359375 C 0.6875 -7.140625 0.546875 -6.804688 0.515625 -6.359375 L 0.296875 -6.359375 L 0.359375 -8.21875 L 7.625 -8.21875 Z M 7.6875 -6.359375 "/></g></g></g><g fill="#ffffff" fill-opacity="1"><g transform="translate(15.055188, 193.026021)"><g><path d="M 7.078125 -6.078125 C 7.078125 -5.578125 6.90625 -5.144531 6.5625 -4.78125 C 6.226562 -4.414062 5.707031 -4.144531 5 -3.96875 L 6.90625 -1.609375 C 7.132812 -1.328125 7.328125 -1.097656 7.484375 -0.921875 C 7.648438 -0.753906 7.847656 -0.597656 8.078125 -0.453125 C 8.316406 -0.316406 8.582031 -0.238281 8.875 -0.21875 L 8.875 0 L 6.71875 0 L 3.625 -3.859375 L 2.84375 -3.859375 L 2.84375 -1.1875 C 2.84375 -0.832031 2.929688 -0.582031 3.109375 -0.4375 C 3.285156 -0.289062 3.566406 -0.21875 3.953125 -0.21875 L 4 -0.21875 L 4 0 L 0.40625 0 L 0.40625 -0.21875 C 0.789062 -0.21875 1.078125 -0.285156 1.265625 -0.421875 C 1.453125 -0.554688 1.546875 -0.800781 1.546875 -1.15625 L 1.546875 -7.09375 C 1.546875 -7.414062 1.453125 -7.644531 1.265625 -7.78125 C 1.078125 -7.925781 0.789062 -8 0.40625 -8 L 0.40625 -8.21875 L 4.25 -8.21875 C 5.03125 -8.21875 5.695312 -8.039062 6.25 -7.6875 C 6.800781 -7.34375 7.078125 -6.804688 7.078125 -6.078125 Z M 2.84375 -7.59375 L 2.84375 -4.265625 L 3.140625 -4.265625 C 3.941406 -4.265625 4.550781 -4.421875 4.96875 -4.734375 C 5.382812 -5.046875 5.59375 -5.484375 5.59375 -6.046875 C 5.59375 -6.535156 5.429688 -6.945312 5.109375 -7.28125 C 4.796875 -7.625 4.351562 -7.796875 3.78125 -7.796875 C 3.46875 -7.796875 3.15625 -7.726562 2.84375 -7.59375 Z M 2.84375 -7.59375 "/></g></g></g><g fill="#ffffff" fill-opacity="1"><g transform="translate(24.271877, 193.026021)"><g><path d="M 1.375 -1.59375 L 4.4375 -8.578125 L 4.65625 -8.578125 L 7.890625 -1.140625 C 8.003906 -0.867188 8.113281 -0.664062 8.21875 -0.53125 C 8.332031 -0.394531 8.445312 -0.304688 8.5625 -0.265625 C 8.6875 -0.234375 8.851562 -0.21875 9.0625 -0.21875 L 9.0625 0 L 5.6875 0 L 5.6875 -0.21875 C 5.96875 -0.21875 6.179688 -0.269531 6.328125 -0.375 C 6.472656 -0.476562 6.546875 -0.617188 6.546875 -0.796875 C 6.546875 -0.941406 6.492188 -1.128906 6.390625 -1.359375 L 5.765625 -2.765625 L 2.453125 -2.765625 L 1.765625 -1.203125 C 1.691406 -1.035156 1.65625 -0.890625 1.65625 -0.765625 C 1.65625 -0.398438 1.945312 -0.21875 2.53125 -0.21875 L 2.53125 0 L 0.171875 0 L 0.171875 -0.21875 C 0.367188 -0.238281 0.53125 -0.296875 0.65625 -0.390625 C 0.78125 -0.484375 0.890625 -0.613281 0.984375 -0.78125 C 1.085938 -0.957031 1.21875 -1.226562 1.375 -1.59375 Z M 5.578125 -3.21875 L 4.125 -6.5625 L 2.65625 -3.21875 Z M 5.578125 -3.21875 "/></g></g></g><g fill="#ffffff" fill-opacity="1"><g transform="translate(33.488565, 193.026021)"><g><path d="M 7.6875 -6.359375 L 7.453125 -6.359375 C 7.335938 -7.253906 6.859375 -7.703125 6.015625 -7.703125 L 4.625 -7.703125 L 4.625 -1.125 C 4.625 -0.769531 4.726562 -0.53125 4.9375 -0.40625 C 5.144531 -0.28125 5.441406 -0.21875 5.828125 -0.21875 L 5.828125 0 L 2.140625 0 L 2.140625 -0.21875 C 2.566406 -0.21875 2.875 -0.285156 3.0625 -0.421875 C 3.25 -0.566406 3.34375 -0.828125 3.34375 -1.203125 L 3.34375 -7.703125 L 1.875 -7.703125 C 1.5 -7.703125 1.1875 -7.585938 0.9375 -7.359375 C 0.6875 -7.140625 0.546875 -6.804688 0.515625 -6.359375 L 0.296875 -6.359375 L 0.359375 -8.21875 L 7.625 -8.21875 Z M 7.6875 -6.359375 "/></g></g></g><g fill="#ffffff" fill-opacity="1"><g transform="translate(41.462012, 193.026021)"><g><path d="M 1.375 -1.59375 L 4.4375 -8.578125 L 4.65625 -8.578125 L 7.890625 -1.140625 C 8.003906 -0.867188 8.113281 -0.664062 8.21875 -0.53125 C 8.332031 -0.394531 8.445312 -0.304688 8.5625 -0.265625 C 8.6875 -0.234375 8.851562 -0.21875 9.0625 -0.21875 L 9.0625 0 L 5.6875 0 L 5.6875 -0.21875 C 5.96875 -0.21875 6.179688 -0.269531 6.328125 -0.375 C 6.472656 -0.476562 6.546875 -0.617188 6.546875 -0.796875 C 6.546875 -0.941406 6.492188 -1.128906 6.390625 -1.359375 L 5.765625 -2.765625 L 2.453125 -2.765625 L 1.765625 -1.203125 C 1.691406 -1.035156 1.65625 -0.890625 1.65625 -0.765625 C 1.65625 -0.398438 1.945312 -0.21875 2.53125 -0.21875 L 2.53125 0 L 0.171875 0 L 0.171875 -0.21875 C 0.367188 -0.238281 0.53125 -0.296875 0.65625 -0.390625 C 0.78125 -0.484375 0.890625 -0.613281 0.984375 -0.78125 C 1.085938 -0.957031 1.21875 -1.226562 1.375 -1.59375 Z M 5.578125 -3.21875 L 4.125 -6.5625 L 2.65625 -3.21875 Z M 5.578125 -3.21875 "/></g></g></g><g fill="#ffffff" fill-opacity="1"><g transform="translate(50.6787, 193.026021)"><g><path d="M 5.953125 -1.9375 L 8.828125 -8.21875 L 11.328125 -8.21875 L 11.328125 -8 L 11.25 -8 C 10.863281 -8 10.578125 -7.929688 10.390625 -7.796875 C 10.210938 -7.660156 10.125 -7.40625 10.125 -7.03125 L 10.125 -1.1875 C 10.125 -0.832031 10.210938 -0.582031 10.390625 -0.4375 C 10.566406 -0.289062 10.863281 -0.21875 11.28125 -0.21875 L 11.328125 -0.21875 L 11.328125 0 L 7.625 0 L 7.625 -0.21875 L 7.734375 -0.21875 C 8.109375 -0.21875 8.382812 -0.289062 8.5625 -0.4375 C 8.738281 -0.582031 8.828125 -0.835938 8.828125 -1.203125 L 8.828125 -6.890625 L 8.8125 -6.890625 L 5.65625 0 L 5.4375 0 L 2.28125 -6.890625 L 2.25 -6.890625 L 2.25 -1.203125 C 2.25 -0.816406 2.335938 -0.554688 2.515625 -0.421875 C 2.691406 -0.296875 2.988281 -0.226562 3.40625 -0.21875 L 3.40625 0 L 0.515625 0 L 0.515625 -0.21875 L 0.59375 -0.21875 C 0.96875 -0.21875 1.25 -0.285156 1.4375 -0.421875 C 1.625 -0.566406 1.71875 -0.828125 1.71875 -1.203125 L 1.71875 -6.828125 C 1.71875 -7.203125 1.617188 -7.484375 1.421875 -7.671875 C 1.234375 -7.859375 0.929688 -7.96875 0.515625 -8 L 0.515625 -8.21875 L 3.03125 -8.21875 Z M 5.953125 -1.9375 "/></g></g></g><g fill="#ffffff" fill-opacity="1"><g transform="translate(62.513356, 193.026021)"><g><path d="M 4.203125 -8 C 3.867188 -8 3.613281 -7.96875 3.4375 -7.90625 C 3.257812 -7.851562 3.132812 -7.75 3.0625 -7.59375 C 2.988281 -7.4375 2.953125 -7.210938 2.953125 -6.921875 L 2.953125 -1.203125 C 2.953125 -0.929688 2.992188 -0.722656 3.078125 -0.578125 C 3.171875 -0.441406 3.304688 -0.347656 3.484375 -0.296875 C 3.660156 -0.253906 3.898438 -0.226562 4.203125 -0.21875 L 4.203125 0 L 0.421875 0 L 0.421875 -0.21875 C 0.734375 -0.226562 0.972656 -0.253906 1.140625 -0.296875 C 1.316406 -0.347656 1.445312 -0.441406 1.53125 -0.578125 C 1.613281 -0.722656 1.65625 -0.929688 1.65625 -1.203125 L 1.65625 -6.921875 C 1.65625 -7.210938 1.617188 -7.429688 1.546875 -7.578125 C 1.472656 -7.734375 1.347656 -7.84375 1.171875 -7.90625 C 1.003906 -7.96875 0.753906 -8 0.421875 -8 L 0.421875 -8.21875 L 4.203125 -8.21875 Z M 4.203125 -8 "/></g></g></g><g fill="#ffffff" fill-opacity="1"><g transform="translate(67.115722, 193.026021)"><g><path d="M 7.046875 -6.40625 L 6.84375 -6.40625 C 6.757812 -6.851562 6.609375 -7.1875 6.390625 -7.40625 C 6.179688 -7.632812 5.882812 -7.75 5.5 -7.75 L 2.90625 -7.75 L 2.90625 -4.578125 L 5.03125 -4.578125 C 5.414062 -4.578125 5.6875 -4.671875 5.84375 -4.859375 C 6.007812 -5.046875 6.097656 -5.347656 6.109375 -5.765625 L 6.3125 -5.765625 L 6.3125 -2.875 L 6.109375 -2.875 C 6.109375 -3.289062 6.023438 -3.597656 5.859375 -3.796875 C 5.703125 -3.992188 5.421875 -4.09375 5.015625 -4.09375 L 2.90625 -4.09375 L 2.90625 -1.09375 C 2.90625 -0.6875 3.066406 -0.484375 3.390625 -0.484375 L 5.5 -0.484375 C 5.9375 -0.484375 6.320312 -0.613281 6.65625 -0.875 C 6.988281 -1.144531 7.257812 -1.535156 7.46875 -2.046875 L 7.71875 -2.046875 L 7.046875 0 L 0.4375 0 L 0.4375 -0.21875 C 0.84375 -0.21875 1.140625 -0.285156 1.328125 -0.421875 C 1.515625 -0.566406 1.609375 -0.828125 1.609375 -1.203125 L 1.609375 -7.09375 C 1.609375 -7.414062 1.515625 -7.644531 1.328125 -7.78125 C 1.140625 -7.925781 0.84375 -8 0.4375 -8 L 0.4375 -8.21875 L 6.953125 -8.21875 Z M 7.046875 -6.40625 "/></g></g></g><g fill="#ffffff" fill-opacity="1"><g transform="translate(75.089169, 193.026021)"><g><path d="M 7.859375 -2.15625 L 7.859375 -7.078125 C 7.859375 -7.441406 7.796875 -7.6875 7.671875 -7.8125 C 7.546875 -7.9375 7.3125 -8 6.96875 -8 L 6.671875 -8 L 6.671875 -8.21875 L 9.6875 -8.21875 L 9.6875 -8 L 9.4375 -8 C 9.125 -8 8.898438 -7.976562 8.765625 -7.9375 C 8.628906 -7.90625 8.535156 -7.8125 8.484375 -7.65625 C 8.429688 -7.507812 8.40625 -7.269531 8.40625 -6.9375 L 8.40625 0.09375 L 8.234375 0.09375 L 2.359375 -6.515625 L 2.359375 -1.390625 C 2.359375 -0.941406 2.445312 -0.632812 2.625 -0.46875 C 2.800781 -0.300781 3.113281 -0.21875 3.5625 -0.21875 L 3.5625 0 L 0.59375 0 L 0.59375 -0.21875 L 0.65625 -0.21875 C 1.039062 -0.21875 1.332031 -0.285156 1.53125 -0.421875 C 1.726562 -0.566406 1.828125 -0.828125 1.828125 -1.203125 L 1.828125 -7.046875 C 1.617188 -7.398438 1.382812 -7.644531 1.125 -7.78125 C 0.863281 -7.925781 0.539062 -8 0.15625 -8 L 0.15625 -8.21875 L 2.546875 -8.21875 Z M 7.859375 -2.15625 "/></g></g></g><g fill="#ffffff" fill-opacity="1"><g transform="translate(84.927469, 193.026021)"><g><path d="M 7.6875 -6.359375 L 7.453125 -6.359375 C 7.335938 -7.253906 6.859375 -7.703125 6.015625 -7.703125 L 4.625 -7.703125 L 4.625 -1.125 C 4.625 -0.769531 4.726562 -0.53125 4.9375 -0.40625 C 5.144531 -0.28125 5.441406 -0.21875 5.828125 -0.21875 L 5.828125 0 L 2.140625 0 L 2.140625 -0.21875 C 2.566406 -0.21875 2.875 -0.285156 3.0625 -0.421875 C 3.25 -0.566406 3.34375 -0.828125 3.34375 -1.203125 L 3.34375 -7.703125 L 1.875 -7.703125 C 1.5 -7.703125 1.1875 -7.585938 0.9375 -7.359375 C 0.6875 -7.140625 0.546875 -6.804688 0.515625 -6.359375 L 0.296875 -6.359375 L 0.359375 -8.21875 L 7.625 -8.21875 Z M 7.6875 -6.359375 "/></g></g></g><g fill="#ffffff" fill-opacity="1"><g transform="translate(92.900915, 193.026021)"><g><path d="M 4.609375 -8.40625 C 5.367188 -8.40625 6.066406 -8.210938 6.703125 -7.828125 C 7.335938 -7.441406 7.84375 -6.921875 8.21875 -6.265625 C 8.59375 -5.609375 8.78125 -4.890625 8.78125 -4.109375 C 8.78125 -3.328125 8.59375 -2.609375 8.21875 -1.953125 C 7.84375 -1.296875 7.335938 -0.773438 6.703125 -0.390625 C 6.066406 -0.015625 5.367188 0.171875 4.609375 0.171875 C 3.847656 0.171875 3.148438 -0.015625 2.515625 -0.390625 C 1.878906 -0.773438 1.375 -1.296875 1 -1.953125 C 0.625 -2.609375 0.4375 -3.328125 0.4375 -4.109375 C 0.4375 -4.890625 0.625 -5.609375 1 -6.265625 C 1.375 -6.921875 1.878906 -7.441406 2.515625 -7.828125 C 3.148438 -8.210938 3.847656 -8.40625 4.609375 -8.40625 Z M 1.9375 -4.109375 C 1.9375 -3.335938 2.046875 -2.660156 2.265625 -2.078125 C 2.484375 -1.503906 2.796875 -1.0625 3.203125 -0.75 C 3.609375 -0.4375 4.078125 -0.28125 4.609375 -0.28125 C 5.140625 -0.28125 5.609375 -0.4375 6.015625 -0.75 C 6.421875 -1.0625 6.734375 -1.503906 6.953125 -2.078125 C 7.171875 -2.660156 7.28125 -3.335938 7.28125 -4.109375 C 7.28125 -4.859375 7.171875 -5.523438 6.953125 -6.109375 C 6.742188 -6.691406 6.4375 -7.144531 6.03125 -7.46875 C 5.632812 -7.789062 5.15625 -7.953125 4.59375 -7.953125 C 4.039062 -7.953125 3.566406 -7.785156 3.171875 -7.453125 C 2.773438 -7.128906 2.46875 -6.675781 2.25 -6.09375 C 2.039062 -5.507812 1.9375 -4.847656 1.9375 -4.109375 Z M 1.9375 -4.109375 "/></g></g></g><path stroke-linecap="butt" transform="matrix(0.75055, 0, 0, 0.75, 7.043304, 178.066742)" fill="none" stroke-linejoin="miter" d="M -0.000446706 0.499552 L 575.593301 0.499552 " stroke="#ffffff" stroke-width="1" stroke-opacity="1" stroke-miterlimit="4"/></svg>