<svg xmlns="http://www.w3.org/2000/svg" xmlns:xlink="http://www.w3.org/1999/xlink" width="600" zoomAndPan="magnify" viewBox="0 0 450 299.999988" height="400" preserveAspectRatio="xMidYMid meet" version="1.0"><defs><filter x="0%" y="0%" width="100%" height="100%" id="d48608c771"><feColorMatrix values="0 0 0 0 1 0 0 0 0 1 0 0 0 0 1 0 0 0 1 0" color-interpolation-filters="sRGB"/></filter><g/><mask id="3dc5b23198"><g filter="url(#d48608c771)"><rect x="-45" width="540" fill="#000000" y="-29.999999" height="359.999986" fill-opacity="0.3"/></g></mask><clipPath id="5063604e17"><path d="M 0.375 0.523438 L 95.675781 0.523438 L 95.675781 143.476562 L 0.375 143.476562 Z M 0.375 0.523438 " clip-rule="nonzero"/></clipPath><clipPath id="e4c43cd434"><path d="M 48.023438 0.523438 L 95.675781 0.523438 L 48.023438 143.476562 L 0.375 143.476562 Z M 48.023438 0.523438 " clip-rule="nonzero"/></clipPath><clipPath id="866c23608b"><rect x="0" width="96" y="0" height="144"/></clipPath><mask id="44985f28d3"><g filter="url(#d48608c771)"><rect x="-45" width="540" fill="#000000" y="-29.999999" height="359.999986" fill-opacity="0.3"/></g></mask><clipPath id="6fd8cf1127"><path d="M 1.007812 0.523438 L 96.308594 0.523438 L 96.308594 143.476562 L 1.007812 143.476562 Z M 1.007812 0.523438 " clip-rule="nonzero"/></clipPath><clipPath id="a2869b0351"><path d="M 48.660156 0.523438 L 96.308594 0.523438 L 48.660156 143.476562 L 1.007812 143.476562 Z M 48.660156 0.523438 " clip-rule="nonzero"/></clipPath><clipPath id="30d3d9de48"><rect x="0" width="97" y="0" height="144"/></clipPath><mask id="c7c1d3f8cb"><g filter="url(#d48608c771)"><rect x="-45" width="540" fill="#000000" y="-29.999999" height="359.999986" fill-opacity="0.3"/></g></mask><clipPath id="5d37cceae1"><path d="M 0.96875 0.523438 L 96.269531 0.523438 L 96.269531 143.476562 L 0.96875 143.476562 Z M 0.96875 0.523438 " clip-rule="nonzero"/></clipPath><clipPath id="763e7885f9"><path d="M 48.617188 0.523438 L 96.269531 0.523438 L 48.617188 143.476562 L 0.96875 143.476562 Z M 48.617188 0.523438 " clip-rule="nonzero"/></clipPath><clipPath id="5c7a7568aa"><rect x="0" width="97" y="0" height="144"/></clipPath></defs><g mask="url(#3dc5b23198)"><g transform="matrix(1, 0, 0, 1, 151, 78)"><g clip-path="url(#866c23608b)"><g clip-path="url(#5063604e17)"><g clip-path="url(#e4c43cd434)"><path fill="#6b6058" d="M 0.375 0.523438 L 95.675781 0.523438 L 95.675781 143.476562 L 0.375 143.476562 Z M 0.375 0.523438 " fill-opacity="1" fill-rule="nonzero"/></g></g></g></g></g><g mask="url(#44985f28d3)"><g transform="matrix(1, 0, 0, 1, 211, 78)"><g clip-path="url(#30d3d9de48)"><g clip-path="url(#6fd8cf1127)"><g clip-path="url(#a2869b0351)"><path fill="#343e36" d="M 1.007812 0.523438 L 96.308594 0.523438 L 96.308594 143.476562 L 1.007812 143.476562 Z M 1.007812 0.523438 " fill-opacity="1" fill-rule="nonzero"/></g></g></g></g></g><g mask="url(#c7c1d3f8cb)"><g transform="matrix(1, 0, 0, 1, 272, 78)"><g clip-path="url(#5c7a7568aa)"><g clip-path="url(#5d37cceae1)"><g clip-path="url(#763e7885f9)"><path fill="#000000" d="M 0.96875 0.523438 L 96.269531 0.523438 L 96.269531 143.476562 L 0.96875 143.476562 Z M 0.96875 0.523438 " fill-opacity="1" fill-rule="nonzero"/></g></g></g></g></g><g fill="#ffffff" fill-opacity="1"><g transform="translate(7.090179, 169.673425)"><g><path d="M 20.859375 -17.625 C 20.859375 -16.363281 20.515625 -15.21875 19.828125 -14.1875 C 19.140625 -13.15625 18.195312 -12.34375 17 -11.75 C 15.800781 -11.15625 14.453125 -10.859375 12.953125 -10.859375 C 11.296875 -10.859375 9.71875 -11.128906 8.21875 -11.671875 L 8.21875 -3.59375 C 8.21875 -2.40625 8.507812 -1.613281 9.09375 -1.21875 C 9.675781 -0.832031 10.609375 -0.640625 11.890625 -0.640625 L 11.890625 0 L 0.890625 0 L 0.890625 -0.640625 C 2.191406 -0.640625 3.097656 -0.859375 3.609375 -1.296875 C 4.117188 -1.734375 4.375 -2.5 4.375 -3.59375 L 4.375 -20.890625 C 4.375 -22.003906 4.097656 -22.769531 3.546875 -23.1875 C 3.003906 -23.601562 2.191406 -23.8125 1.109375 -23.8125 L 0.890625 -23.8125 L 0.890625 -24.453125 L 11.609375 -24.453125 C 13.148438 -24.453125 14.625 -24.210938 16.03125 -23.734375 C 17.445312 -23.265625 18.601562 -22.515625 19.5 -21.484375 C 20.40625 -20.453125 20.859375 -19.164062 20.859375 -17.625 Z M 8.21875 -22.640625 L 8.21875 -12.921875 C 9.332031 -12.441406 10.34375 -12.203125 11.25 -12.203125 C 12.789062 -12.203125 14.035156 -12.679688 14.984375 -13.640625 C 15.929688 -14.609375 16.40625 -15.882812 16.40625 -17.46875 C 16.40625 -19.132812 15.90625 -20.488281 14.90625 -21.53125 C 13.914062 -22.570312 12.539062 -23.09375 10.78125 -23.09375 C 10 -23.09375 9.144531 -22.941406 8.21875 -22.640625 Z M 8.21875 -22.640625 "/></g></g></g><g fill="#ffffff" fill-opacity="1"><g transform="translate(28.579332, 169.673425)"><g><path d="M 20.859375 -17.625 C 20.859375 -16.363281 20.515625 -15.21875 19.828125 -14.1875 C 19.140625 -13.15625 18.195312 -12.34375 17 -11.75 C 15.800781 -11.15625 14.453125 -10.859375 12.953125 -10.859375 C 11.296875 -10.859375 9.71875 -11.128906 8.21875 -11.671875 L 8.21875 -3.59375 C 8.21875 -2.40625 8.507812 -1.613281 9.09375 -1.21875 C 9.675781 -0.832031 10.609375 -0.640625 11.890625 -0.640625 L 11.890625 0 L 0.890625 0 L 0.890625 -0.640625 C 2.191406 -0.640625 3.097656 -0.859375 3.609375 -1.296875 C 4.117188 -1.734375 4.375 -2.5 4.375 -3.59375 L 4.375 -20.890625 C 4.375 -22.003906 4.097656 -22.769531 3.546875 -23.1875 C 3.003906 -23.601562 2.191406 -23.8125 1.109375 -23.8125 L 0.890625 -23.8125 L 0.890625 -24.453125 L 11.609375 -24.453125 C 13.148438 -24.453125 14.625 -24.210938 16.03125 -23.734375 C 17.445312 -23.265625 18.601562 -22.515625 19.5 -21.484375 C 20.40625 -20.453125 20.859375 -19.164062 20.859375 -17.625 Z M 8.21875 -22.640625 L 8.21875 -12.921875 C 9.332031 -12.441406 10.34375 -12.203125 11.25 -12.203125 C 12.789062 -12.203125 14.035156 -12.679688 14.984375 -13.640625 C 15.929688 -14.609375 16.40625 -15.882812 16.40625 -17.46875 C 16.40625 -19.132812 15.90625 -20.488281 14.90625 -21.53125 C 13.914062 -22.570312 12.539062 -23.09375 10.78125 -23.09375 C 10 -23.09375 9.144531 -22.941406 8.21875 -22.640625 Z M 8.21875 -22.640625 "/></g></g></g><g fill="#ffffff" fill-opacity="1"><g transform="translate(50.068485, 169.673425)"><g><path d="M 22.53125 -19.1875 L 21.859375 -19.1875 C 21.691406 -20.5625 21.1875 -21.582031 20.34375 -22.25 C 19.5 -22.914062 18.222656 -23.25 16.515625 -23.25 L 8.796875 -23.25 L 8.796875 -13.59375 L 14.84375 -13.59375 C 16.125 -13.59375 17.019531 -13.820312 17.53125 -14.28125 C 18.039062 -14.75 18.296875 -15.484375 18.296875 -16.484375 L 18.296875 -17.046875 L 18.9375 -17.046875 L 18.9375 -8.71875 L 18.296875 -8.71875 L 18.296875 -9.140625 C 18.296875 -10.191406 18.046875 -10.957031 17.546875 -11.4375 C 17.046875 -11.925781 16.265625 -12.171875 15.203125 -12.171875 L 8.796875 -12.171875 L 8.796875 -3.5625 C 8.796875 -2.414062 9.078125 -1.640625 9.640625 -1.234375 C 10.210938 -0.835938 11.101562 -0.640625 12.3125 -0.640625 L 12.3125 0 L 1.53125 0 L 1.53125 -0.640625 L 1.75 -0.640625 C 2.8125 -0.640625 3.609375 -0.859375 4.140625 -1.296875 C 4.679688 -1.734375 4.953125 -2.5 4.953125 -3.59375 L 4.953125 -21.03125 C 4.953125 -22.03125 4.675781 -22.742188 4.125 -23.171875 C 3.582031 -23.597656 2.71875 -23.8125 1.53125 -23.8125 L 1.53125 -24.453125 L 22.28125 -24.453125 Z M 22.53125 -19.1875 "/></g></g></g><g fill="#ffffff" fill-opacity="1"><g transform="translate(73.799054, 169.673425)"><g/></g></g><g fill="#ffffff" fill-opacity="1"><g transform="translate(82.693573, 169.673425)"><g><path d="M 4.09375 -4.734375 L 13.203125 -25.515625 L 13.84375 -25.515625 L 23.453125 -3.375 C 23.804688 -2.570312 24.144531 -1.972656 24.46875 -1.578125 C 24.789062 -1.191406 25.128906 -0.9375 25.484375 -0.8125 C 25.835938 -0.695312 26.320312 -0.640625 26.9375 -0.640625 L 26.9375 0 L 16.90625 0 L 16.90625 -0.640625 C 17.757812 -0.640625 18.398438 -0.789062 18.828125 -1.09375 C 19.253906 -1.40625 19.46875 -1.820312 19.46875 -2.34375 C 19.46875 -2.800781 19.3125 -3.359375 19 -4.015625 L 17.15625 -8.21875 L 7.296875 -8.21875 L 5.265625 -3.5625 C 5.023438 -3.082031 4.90625 -2.65625 4.90625 -2.28125 C 4.90625 -1.1875 5.785156 -0.640625 7.546875 -0.640625 L 7.546875 0 L 0.5 0 L 0.5 -0.640625 C 1.09375 -0.710938 1.570312 -0.882812 1.9375 -1.15625 C 2.300781 -1.425781 2.628906 -1.820312 2.921875 -2.34375 C 3.222656 -2.863281 3.613281 -3.660156 4.09375 -4.734375 Z M 16.59375 -9.578125 L 12.25 -19.5 L 7.90625 -9.578125 Z M 16.59375 -9.578125 "/></g></g></g><g fill="#ffffff" fill-opacity="1"><g transform="translate(110.12427, 169.673425)"><g><path d="M 12.0625 -23.8125 C 11.257812 -23.789062 10.625 -23.703125 10.15625 -23.546875 C 9.695312 -23.390625 9.335938 -23.101562 9.078125 -22.6875 C 8.816406 -22.269531 8.6875 -21.660156 8.6875 -20.859375 L 8.6875 -7.375 C 8.6875 -5.539062 9.242188 -4.019531 10.359375 -2.8125 C 11.472656 -1.601562 13.144531 -1 15.375 -1 C 18.007812 -1 19.988281 -1.648438 21.3125 -2.953125 C 22.644531 -4.253906 23.3125 -6.203125 23.3125 -8.796875 L 23.3125 -20.921875 C 23.3125 -21.992188 23.03125 -22.742188 22.46875 -23.171875 C 21.914062 -23.597656 21.09375 -23.8125 20 -23.8125 L 19.640625 -23.8125 L 19.640625 -24.453125 L 28.625 -24.453125 L 28.625 -23.8125 C 27.71875 -23.8125 26.992188 -23.738281 26.453125 -23.59375 C 25.921875 -23.457031 25.519531 -23.175781 25.25 -22.75 C 24.976562 -22.320312 24.84375 -21.691406 24.84375 -20.859375 L 24.84375 -8.359375 C 24.84375 -6.773438 24.484375 -5.3125 23.765625 -3.96875 C 23.054688 -2.625 21.972656 -1.535156 20.515625 -0.703125 C 19.054688 0.117188 17.238281 0.53125 15.0625 0.53125 C 12.5625 0.53125 10.550781 0.125 9.03125 -0.6875 C 7.519531 -1.507812 6.441406 -2.554688 5.796875 -3.828125 C 5.160156 -5.097656 4.84375 -6.46875 4.84375 -7.9375 L 4.84375 -19.96875 C 4.84375 -21.007812 4.742188 -21.796875 4.546875 -22.328125 C 4.359375 -22.867188 4.019531 -23.25 3.53125 -23.46875 C 3.050781 -23.695312 2.335938 -23.8125 1.390625 -23.8125 L 1.140625 -23.8125 L 1.140625 -24.453125 L 12.0625 -24.453125 Z M 12.0625 -23.8125 "/></g></g></g><g fill="#ffffff" fill-opacity="1"><g transform="translate(139.405017, 169.673425)"><g><path d="M 22.84375 -18.90625 L 22.171875 -18.90625 C 21.835938 -21.5625 20.40625 -22.890625 17.875 -22.890625 L 13.78125 -22.890625 L 13.78125 -3.34375 C 13.78125 -2.28125 14.085938 -1.5625 14.703125 -1.1875 C 15.316406 -0.820312 16.191406 -0.640625 17.328125 -0.640625 L 17.328125 0 L 6.375 0 L 6.375 -0.640625 C 7.625 -0.640625 8.53125 -0.851562 9.09375 -1.28125 C 9.65625 -1.707031 9.9375 -2.476562 9.9375 -3.59375 L 9.9375 -22.890625 L 5.59375 -22.890625 C 4.476562 -22.890625 3.546875 -22.5625 2.796875 -21.90625 C 2.046875 -21.25 1.625 -20.25 1.53125 -18.90625 L 0.890625 -18.90625 L 1.0625 -24.453125 L 22.671875 -24.453125 Z M 22.84375 -18.90625 "/></g></g></g><g fill="#ffffff" fill-opacity="1"><g transform="translate(163.135587, 169.673425)"><g><path d="M 13.703125 -24.984375 C 15.953125 -24.984375 18.023438 -24.410156 19.921875 -23.265625 C 21.828125 -22.128906 23.335938 -20.582031 24.453125 -18.625 C 25.566406 -16.675781 26.125 -14.535156 26.125 -12.203125 C 26.125 -9.898438 25.566406 -7.769531 24.453125 -5.8125 C 23.335938 -3.863281 21.828125 -2.316406 19.921875 -1.171875 C 18.023438 -0.0351562 15.953125 0.53125 13.703125 0.53125 C 11.453125 0.53125 9.375 -0.0351562 7.46875 -1.171875 C 5.570312 -2.316406 4.070312 -3.863281 2.96875 -5.8125 C 1.863281 -7.769531 1.3125 -9.898438 1.3125 -12.203125 C 1.3125 -14.535156 1.863281 -16.675781 2.96875 -18.625 C 4.070312 -20.582031 5.570312 -22.128906 7.46875 -23.265625 C 9.375 -24.410156 11.453125 -24.984375 13.703125 -24.984375 Z M 5.765625 -12.203125 C 5.765625 -9.929688 6.085938 -7.929688 6.734375 -6.203125 C 7.390625 -4.484375 8.316406 -3.15625 9.515625 -2.21875 C 10.710938 -1.28125 12.109375 -0.8125 13.703125 -0.8125 C 15.296875 -0.8125 16.695312 -1.28125 17.90625 -2.21875 C 19.113281 -3.15625 20.039062 -4.484375 20.6875 -6.203125 C 21.34375 -7.929688 21.671875 -9.929688 21.671875 -12.203125 C 21.671875 -14.429688 21.347656 -16.410156 20.703125 -18.140625 C 20.066406 -19.878906 19.148438 -21.226562 17.953125 -22.1875 C 16.753906 -23.15625 15.328125 -23.640625 13.671875 -23.640625 C 12.035156 -23.640625 10.625 -23.148438 9.4375 -22.171875 C 8.25 -21.203125 7.335938 -19.847656 6.703125 -18.109375 C 6.078125 -16.378906 5.765625 -14.410156 5.765625 -12.203125 Z M 5.765625 -12.203125 "/></g></g></g><g fill="#ffffff" fill-opacity="1"><g transform="translate(190.566283, 169.673425)"><g/></g></g><g fill="#ffffff" fill-opacity="1"><g transform="translate(199.460814, 169.673425)"><g><path d="M 14.84375 -24.984375 C 16.03125 -24.984375 17.054688 -24.867188 17.921875 -24.640625 C 18.785156 -24.421875 19.625 -24.132812 20.4375 -23.78125 C 21.09375 -23.519531 21.519531 -23.390625 21.71875 -23.390625 C 22 -23.390625 22.269531 -23.535156 22.53125 -23.828125 C 22.789062 -24.128906 22.96875 -24.515625 23.0625 -24.984375 L 23.671875 -24.984375 L 24.28125 -16.734375 L 23.671875 -16.734375 C 23.453125 -18.179688 22.921875 -19.425781 22.078125 -20.46875 C 21.242188 -21.507812 20.210938 -22.296875 18.984375 -22.828125 C 17.765625 -23.367188 16.476562 -23.640625 15.125 -23.640625 C 12.351562 -23.640625 10.128906 -22.644531 8.453125 -20.65625 C 6.773438 -18.675781 5.9375 -15.679688 5.9375 -11.671875 C 5.9375 -9.296875 6.394531 -7.304688 7.3125 -5.703125 C 8.226562 -4.109375 9.425781 -2.925781 10.90625 -2.15625 C 12.394531 -1.382812 13.976562 -1 15.65625 -1 C 17.394531 -1 19.046875 -1.4375 20.609375 -2.3125 C 22.171875 -3.1875 23.394531 -4.363281 24.28125 -5.84375 L 24.8125 -5.484375 C 22.457031 -1.472656 18.992188 0.53125 14.421875 0.53125 C 12.046875 0.53125 9.875 -0.0195312 7.90625 -1.125 C 5.9375 -2.226562 4.375 -3.726562 3.21875 -5.625 C 2.070312 -7.519531 1.5 -9.609375 1.5 -11.890625 C 1.5 -14.285156 2.085938 -16.484375 3.265625 -18.484375 C 4.453125 -20.492188 6.066406 -22.078125 8.109375 -23.234375 C 10.148438 -24.398438 12.394531 -24.984375 14.84375 -24.984375 Z M 14.84375 -24.984375 "/></g></g></g><g fill="#ffffff" fill-opacity="1"><g transform="translate(225.041446, 169.673425)"><g><path d="M 13.703125 -24.984375 C 15.953125 -24.984375 18.023438 -24.410156 19.921875 -23.265625 C 21.828125 -22.128906 23.335938 -20.582031 24.453125 -18.625 C 25.566406 -16.675781 26.125 -14.535156 26.125 -12.203125 C 26.125 -9.898438 25.566406 -7.769531 24.453125 -5.8125 C 23.335938 -3.863281 21.828125 -2.316406 19.921875 -1.171875 C 18.023438 -0.0351562 15.953125 0.53125 13.703125 0.53125 C 11.453125 0.53125 9.375 -0.0351562 7.46875 -1.171875 C 5.570312 -2.316406 4.070312 -3.863281 2.96875 -5.8125 C 1.863281 -7.769531 1.3125 -9.898438 1.3125 -12.203125 C 1.3125 -14.535156 1.863281 -16.675781 2.96875 -18.625 C 4.070312 -20.582031 5.570312 -22.128906 7.46875 -23.265625 C 9.375 -24.410156 11.453125 -24.984375 13.703125 -24.984375 Z M 5.765625 -12.203125 C 5.765625 -9.929688 6.085938 -7.929688 6.734375 -6.203125 C 7.390625 -4.484375 8.316406 -3.15625 9.515625 -2.21875 C 10.710938 -1.28125 12.109375 -0.8125 13.703125 -0.8125 C 15.296875 -0.8125 16.695312 -1.28125 17.90625 -2.21875 C 19.113281 -3.15625 20.039062 -4.484375 20.6875 -6.203125 C 21.34375 -7.929688 21.671875 -9.929688 21.671875 -12.203125 C 21.671875 -14.429688 21.347656 -16.410156 20.703125 -18.140625 C 20.066406 -19.878906 19.148438 -21.226562 17.953125 -22.1875 C 16.753906 -23.15625 15.328125 -23.640625 13.671875 -23.640625 C 12.035156 -23.640625 10.625 -23.148438 9.4375 -22.171875 C 8.25 -21.203125 7.335938 -19.847656 6.703125 -18.109375 C 6.078125 -16.378906 5.765625 -14.410156 5.765625 -12.203125 Z M 5.765625 -12.203125 "/></g></g></g><g fill="#ffffff" fill-opacity="1"><g transform="translate(252.472131, 169.673425)"><g><path d="M 17.6875 -5.765625 L 26.265625 -24.453125 L 33.703125 -24.453125 L 33.703125 -23.8125 L 33.453125 -23.8125 C 32.316406 -23.8125 31.472656 -23.609375 30.921875 -23.203125 C 30.378906 -22.804688 30.109375 -22.035156 30.109375 -20.890625 L 30.109375 -3.53125 C 30.109375 -2.476562 30.367188 -1.734375 30.890625 -1.296875 C 31.410156 -0.859375 32.289062 -0.640625 33.53125 -0.640625 L 33.703125 -0.640625 L 33.703125 0 L 22.671875 0 L 22.671875 -0.640625 L 23 -0.640625 C 24.113281 -0.640625 24.9375 -0.859375 25.46875 -1.296875 C 26 -1.734375 26.265625 -2.5 26.265625 -3.59375 L 26.265625 -20.5 L 26.203125 -20.5 L 16.796875 0 L 16.15625 0 L 6.765625 -20.5 L 6.6875 -20.5 L 6.6875 -3.5625 C 6.6875 -2.414062 6.945312 -1.644531 7.46875 -1.25 C 7.988281 -0.863281 8.867188 -0.660156 10.109375 -0.640625 L 10.109375 0 L 1.53125 0 L 1.53125 -0.640625 L 1.75 -0.640625 C 2.882812 -0.640625 3.722656 -0.847656 4.265625 -1.265625 C 4.816406 -1.679688 5.09375 -2.457031 5.09375 -3.59375 L 5.09375 -20.28125 C 5.09375 -21.40625 4.804688 -22.242188 4.234375 -22.796875 C 3.660156 -23.359375 2.757812 -23.695312 1.53125 -23.8125 L 1.53125 -24.453125 L 9 -24.453125 Z M 17.6875 -5.765625 "/></g></g></g><g fill="#ffffff" fill-opacity="1"><g transform="translate(287.694434, 169.673425)"><g><path d="M 20.859375 -17.625 C 20.859375 -16.363281 20.515625 -15.21875 19.828125 -14.1875 C 19.140625 -13.15625 18.195312 -12.34375 17 -11.75 C 15.800781 -11.15625 14.453125 -10.859375 12.953125 -10.859375 C 11.296875 -10.859375 9.71875 -11.128906 8.21875 -11.671875 L 8.21875 -3.59375 C 8.21875 -2.40625 8.507812 -1.613281 9.09375 -1.21875 C 9.675781 -0.832031 10.609375 -0.640625 11.890625 -0.640625 L 11.890625 0 L 0.890625 0 L 0.890625 -0.640625 C 2.191406 -0.640625 3.097656 -0.859375 3.609375 -1.296875 C 4.117188 -1.734375 4.375 -2.5 4.375 -3.59375 L 4.375 -20.890625 C 4.375 -22.003906 4.097656 -22.769531 3.546875 -23.1875 C 3.003906 -23.601562 2.191406 -23.8125 1.109375 -23.8125 L 0.890625 -23.8125 L 0.890625 -24.453125 L 11.609375 -24.453125 C 13.148438 -24.453125 14.625 -24.210938 16.03125 -23.734375 C 17.445312 -23.265625 18.601562 -22.515625 19.5 -21.484375 C 20.40625 -20.453125 20.859375 -19.164062 20.859375 -17.625 Z M 8.21875 -22.640625 L 8.21875 -12.921875 C 9.332031 -12.441406 10.34375 -12.203125 11.25 -12.203125 C 12.789062 -12.203125 14.035156 -12.679688 14.984375 -13.640625 C 15.929688 -14.609375 16.40625 -15.882812 16.40625 -17.46875 C 16.40625 -19.132812 15.90625 -20.488281 14.90625 -21.53125 C 13.914062 -22.570312 12.539062 -23.09375 10.78125 -23.09375 C 10 -23.09375 9.144531 -22.941406 8.21875 -22.640625 Z M 8.21875 -22.640625 "/></g></g></g><g fill="#ffffff" fill-opacity="1"><g transform="translate(309.183598, 169.673425)"><g><path d="M 12.453125 -23.8125 C 11.222656 -23.8125 10.335938 -23.613281 9.796875 -23.21875 C 9.265625 -22.832031 9 -22.046875 9 -20.859375 L 9 -2.984375 C 9 -2.492188 9.097656 -2.140625 9.296875 -1.921875 C 9.503906 -1.710938 9.847656 -1.609375 10.328125 -1.609375 L 15.625 -1.609375 C 16.851562 -1.609375 17.867188 -1.765625 18.671875 -2.078125 C 19.484375 -2.398438 20.179688 -2.921875 20.765625 -3.640625 C 21.347656 -4.367188 21.910156 -5.398438 22.453125 -6.734375 L 23.0625 -6.515625 L 21 0 L 1.5 0 L 1.5 -0.640625 L 1.75 -0.640625 C 2.957031 -0.640625 3.828125 -0.851562 4.359375 -1.28125 C 4.890625 -1.707031 5.15625 -2.476562 5.15625 -3.59375 L 5.15625 -20.890625 C 5.15625 -21.984375 4.875 -22.742188 4.3125 -23.171875 C 3.757812 -23.597656 2.890625 -23.8125 1.703125 -23.8125 L 1.5 -23.8125 L 1.5 -24.453125 L 12.453125 -24.453125 Z M 12.453125 -23.8125 "/></g></g></g><g fill="#ffffff" fill-opacity="1"><g transform="translate(332.914157, 169.673425)"><g><path d="M 20.96875 -19.046875 L 20.359375 -19.046875 C 20.117188 -20.398438 19.675781 -21.398438 19.03125 -22.046875 C 18.394531 -22.703125 17.507812 -23.03125 16.375 -23.03125 L 8.65625 -23.03125 L 8.65625 -13.59375 L 14.984375 -13.59375 C 16.117188 -13.59375 16.925781 -13.878906 17.40625 -14.453125 C 17.882812 -15.023438 18.132812 -15.925781 18.15625 -17.15625 L 18.796875 -17.15625 L 18.796875 -8.546875 L 18.15625 -8.546875 C 18.15625 -9.773438 17.914062 -10.6875 17.4375 -11.28125 C 16.96875 -11.875 16.125 -12.171875 14.90625 -12.171875 L 8.65625 -12.171875 L 8.65625 -3.234375 C 8.65625 -2.023438 9.128906 -1.421875 10.078125 -1.421875 L 16.34375 -1.421875 C 17.644531 -1.421875 18.789062 -1.816406 19.78125 -2.609375 C 20.78125 -3.410156 21.585938 -4.570312 22.203125 -6.09375 L 22.953125 -6.09375 L 20.96875 0 L 1.28125 0 L 1.28125 -0.640625 C 2.507812 -0.640625 3.40625 -0.847656 3.96875 -1.265625 C 4.53125 -1.679688 4.8125 -2.457031 4.8125 -3.59375 L 4.8125 -21.109375 C 4.8125 -22.054688 4.53125 -22.742188 3.96875 -23.171875 C 3.40625 -23.597656 2.507812 -23.8125 1.28125 -23.8125 L 1.28125 -24.453125 L 20.6875 -24.453125 Z M 20.96875 -19.046875 "/></g></g></g><g fill="#ffffff" fill-opacity="1"><g transform="translate(356.644715, 169.673425)"><g><path d="M 22.84375 -18.90625 L 22.171875 -18.90625 C 21.835938 -21.5625 20.40625 -22.890625 17.875 -22.890625 L 13.78125 -22.890625 L 13.78125 -3.34375 C 13.78125 -2.28125 14.085938 -1.5625 14.703125 -1.1875 C 15.316406 -0.820312 16.191406 -0.640625 17.328125 -0.640625 L 17.328125 0 L 6.375 0 L 6.375 -0.640625 C 7.625 -0.640625 8.53125 -0.851562 9.09375 -1.28125 C 9.65625 -1.707031 9.9375 -2.476562 9.9375 -3.59375 L 9.9375 -22.890625 L 5.59375 -22.890625 C 4.476562 -22.890625 3.546875 -22.5625 2.796875 -21.90625 C 2.046875 -21.25 1.625 -20.25 1.53125 -18.90625 L 0.890625 -18.90625 L 1.0625 -24.453125 L 22.671875 -24.453125 Z M 22.84375 -18.90625 "/></g></g></g><g fill="#ffffff" fill-opacity="1"><g transform="translate(380.375273, 169.673425)"><g><path d="M 13.703125 -24.984375 C 15.953125 -24.984375 18.023438 -24.410156 19.921875 -23.265625 C 21.828125 -22.128906 23.335938 -20.582031 24.453125 -18.625 C 25.566406 -16.675781 26.125 -14.535156 26.125 -12.203125 C 26.125 -9.898438 25.566406 -7.769531 24.453125 -5.8125 C 23.335938 -3.863281 21.828125 -2.316406 19.921875 -1.171875 C 18.023438 -0.0351562 15.953125 0.53125 13.703125 0.53125 C 11.453125 0.53125 9.375 -0.0351562 7.46875 -1.171875 C 5.570312 -2.316406 4.070312 -3.863281 2.96875 -5.8125 C 1.863281 -7.769531 1.3125 -9.898438 1.3125 -12.203125 C 1.3125 -14.535156 1.863281 -16.675781 2.96875 -18.625 C 4.070312 -20.582031 5.570312 -22.128906 7.46875 -23.265625 C 9.375 -24.410156 11.453125 -24.984375 13.703125 -24.984375 Z M 5.765625 -12.203125 C 5.765625 -9.929688 6.085938 -7.929688 6.734375 -6.203125 C 7.390625 -4.484375 8.316406 -3.15625 9.515625 -2.21875 C 10.710938 -1.28125 12.109375 -0.8125 13.703125 -0.8125 C 15.296875 -0.8125 16.695312 -1.28125 17.90625 -2.21875 C 19.113281 -3.15625 20.039062 -4.484375 20.6875 -6.203125 C 21.34375 -7.929688 21.671875 -9.929688 21.671875 -12.203125 C 21.671875 -14.429688 21.347656 -16.410156 20.703125 -18.140625 C 20.066406 -19.878906 19.148438 -21.226562 17.953125 -22.1875 C 16.753906 -23.15625 15.328125 -23.640625 13.671875 -23.640625 C 12.035156 -23.640625 10.625 -23.148438 9.4375 -22.171875 C 8.25 -21.203125 7.335938 -19.847656 6.703125 -18.109375 C 6.078125 -16.378906 5.765625 -14.410156 5.765625 -12.203125 Z M 5.765625 -12.203125 "/></g></g></g><g fill="#ffffff" fill-opacity="1"><g transform="translate(7.081742, 193.025932)"><g><path d="M 7.6875 -6.359375 L 7.453125 -6.359375 C 7.335938 -7.253906 6.859375 -7.703125 6.015625 -7.703125 L 4.625 -7.703125 L 4.625 -1.125 C 4.625 -0.769531 4.726562 -0.53125 4.9375 -0.40625 C 5.144531 -0.28125 5.441406 -0.21875 5.828125 -0.21875 L 5.828125 0 L 2.140625 0 L 2.140625 -0.21875 C 2.566406 -0.21875 2.875 -0.285156 3.0625 -0.421875 C 3.25 -0.566406 3.34375 -0.828125 3.34375 -1.203125 L 3.34375 -7.703125 L 1.875 -7.703125 C 1.5 -7.703125 1.1875 -7.585938 0.9375 -7.359375 C 0.6875 -7.140625 0.546875 -6.804688 0.515625 -6.359375 L 0.296875 -6.359375 L 0.359375 -8.21875 L 7.625 -8.21875 Z M 7.6875 -6.359375 "/></g></g></g><g fill="#ffffff" fill-opacity="1"><g transform="translate(15.055188, 193.025932)"><g><path d="M 7.078125 -6.078125 C 7.078125 -5.578125 6.90625 -5.144531 6.5625 -4.78125 C 6.226562 -4.414062 5.707031 -4.144531 5 -3.96875 L 6.90625 -1.609375 C 7.132812 -1.328125 7.328125 -1.097656 7.484375 -0.921875 C 7.648438 -0.753906 7.847656 -0.597656 8.078125 -0.453125 C 8.316406 -0.316406 8.582031 -0.238281 8.875 -0.21875 L 8.875 0 L 6.71875 0 L 3.625 -3.859375 L 2.84375 -3.859375 L 2.84375 -1.1875 C 2.84375 -0.832031 2.929688 -0.582031 3.109375 -0.4375 C 3.285156 -0.289062 3.566406 -0.21875 3.953125 -0.21875 L 4 -0.21875 L 4 0 L 0.40625 0 L 0.40625 -0.21875 C 0.789062 -0.21875 1.078125 -0.285156 1.265625 -0.421875 C 1.453125 -0.554688 1.546875 -0.800781 1.546875 -1.15625 L 1.546875 -7.09375 C 1.546875 -7.414062 1.453125 -7.644531 1.265625 -7.78125 C 1.078125 -7.925781 0.789062 -8 0.40625 -8 L 0.40625 -8.21875 L 4.25 -8.21875 C 5.03125 -8.21875 5.695312 -8.039062 6.25 -7.6875 C 6.800781 -7.34375 7.078125 -6.804688 7.078125 -6.078125 Z M 2.84375 -7.59375 L 2.84375 -4.265625 L 3.140625 -4.265625 C 3.941406 -4.265625 4.550781 -4.421875 4.96875 -4.734375 C 5.382812 -5.046875 5.59375 -5.484375 5.59375 -6.046875 C 5.59375 -6.535156 5.429688 -6.945312 5.109375 -7.28125 C 4.796875 -7.625 4.351562 -7.796875 3.78125 -7.796875 C 3.46875 -7.796875 3.15625 -7.726562 2.84375 -7.59375 Z M 2.84375 -7.59375 "/></g></g></g><g fill="#ffffff" fill-opacity="1"><g transform="translate(24.271877, 193.025932)"><g><path d="M 1.375 -1.59375 L 4.4375 -8.578125 L 4.65625 -8.578125 L 7.890625 -1.140625 C 8.003906 -0.867188 8.113281 -0.664062 8.21875 -0.53125 C 8.332031 -0.394531 8.445312 -0.304688 8.5625 -0.265625 C 8.6875 -0.234375 8.851562 -0.21875 9.0625 -0.21875 L 9.0625 0 L 5.6875 0 L 5.6875 -0.21875 C 5.96875 -0.21875 6.179688 -0.269531 6.328125 -0.375 C 6.472656 -0.476562 6.546875 -0.617188 6.546875 -0.796875 C 6.546875 -0.941406 6.492188 -1.128906 6.390625 -1.359375 L 5.765625 -2.765625 L 2.453125 -2.765625 L 1.765625 -1.203125 C 1.691406 -1.035156 1.65625 -0.890625 1.65625 -0.765625 C 1.65625 -0.398438 1.945312 -0.21875 2.53125 -0.21875 L 2.53125 0 L 0.171875 0 L 0.171875 -0.21875 C 0.367188 -0.238281 0.53125 -0.296875 0.65625 -0.390625 C 0.78125 -0.484375 0.890625 -0.613281 0.984375 -0.78125 C 1.085938 -0.957031 1.21875 -1.226562 1.375 -1.59375 Z M 5.578125 -3.21875 L 4.125 -6.5625 L 2.65625 -3.21875 Z M 5.578125 -3.21875 "/></g></g></g><g fill="#ffffff" fill-opacity="1"><g transform="translate(33.488565, 193.025932)"><g><path d="M 7.6875 -6.359375 L 7.453125 -6.359375 C 7.335938 -7.253906 6.859375 -7.703125 6.015625 -7.703125 L 4.625 -7.703125 L 4.625 -1.125 C 4.625 -0.769531 4.726562 -0.53125 4.9375 -0.40625 C 5.144531 -0.28125 5.441406 -0.21875 5.828125 -0.21875 L 5.828125 0 L 2.140625 0 L 2.140625 -0.21875 C 2.566406 -0.21875 2.875 -0.285156 3.0625 -0.421875 C 3.25 -0.566406 3.34375 -0.828125 3.34375 -1.203125 L 3.34375 -7.703125 L 1.875 -7.703125 C 1.5 -7.703125 1.1875 -7.585938 0.9375 -7.359375 C 0.6875 -7.140625 0.546875 -6.804688 0.515625 -6.359375 L 0.296875 -6.359375 L 0.359375 -8.21875 L 7.625 -8.21875 Z M 7.6875 -6.359375 "/></g></g></g><g fill="#ffffff" fill-opacity="1"><g transform="translate(41.462012, 193.025932)"><g><path d="M 1.375 -1.59375 L 4.4375 -8.578125 L 4.65625 -8.578125 L 7.890625 -1.140625 C 8.003906 -0.867188 8.113281 -0.664062 8.21875 -0.53125 C 8.332031 -0.394531 8.445312 -0.304688 8.5625 -0.265625 C 8.6875 -0.234375 8.851562 -0.21875 9.0625 -0.21875 L 9.0625 0 L 5.6875 0 L 5.6875 -0.21875 C 5.96875 -0.21875 6.179688 -0.269531 6.328125 -0.375 C 6.472656 -0.476562 6.546875 -0.617188 6.546875 -0.796875 C 6.546875 -0.941406 6.492188 -1.128906 6.390625 -1.359375 L 5.765625 -2.765625 L 2.453125 -2.765625 L 1.765625 -1.203125 C 1.691406 -1.035156 1.65625 -0.890625 1.65625 -0.765625 C 1.65625 -0.398438 1.945312 -0.21875 2.53125 -0.21875 L 2.53125 0 L 0.171875 0 L 0.171875 -0.21875 C 0.367188 -0.238281 0.53125 -0.296875 0.65625 -0.390625 C 0.78125 -0.484375 0.890625 -0.613281 0.984375 -0.78125 C 1.085938 -0.957031 1.21875 -1.226562 1.375 -1.59375 Z M 5.578125 -3.21875 L 4.125 -6.5625 L 2.65625 -3.21875 Z M 5.578125 -3.21875 "/></g></g></g><g fill="#ffffff" fill-opacity="1"><g transform="translate(50.6787, 193.025932)"><g><path d="M 5.953125 -1.9375 L 8.828125 -8.21875 L 11.328125 -8.21875 L 11.328125 -8 L 11.25 -8 C 10.863281 -8 10.578125 -7.929688 10.390625 -7.796875 C 10.210938 -7.660156 10.125 -7.40625 10.125 -7.03125 L 10.125 -1.1875 C 10.125 -0.832031 10.210938 -0.582031 10.390625 -0.4375 C 10.566406 -0.289062 10.863281 -0.21875 11.28125 -0.21875 L 11.328125 -0.21875 L 11.328125 0 L 7.625 0 L 7.625 -0.21875 L 7.734375 -0.21875 C 8.109375 -0.21875 8.382812 -0.289062 8.5625 -0.4375 C 8.738281 -0.582031 8.828125 -0.835938 8.828125 -1.203125 L 8.828125 -6.890625 L 8.8125 -6.890625 L 5.65625 0 L 5.4375 0 L 2.28125 -6.890625 L 2.25 -6.890625 L 2.25 -1.203125 C 2.25 -0.816406 2.335938 -0.554688 2.515625 -0.421875 C 2.691406 -0.296875 2.988281 -0.226562 3.40625 -0.21875 L 3.40625 0 L 0.515625 0 L 0.515625 -0.21875 L 0.59375 -0.21875 C 0.96875 -0.21875 1.25 -0.285156 1.4375 -0.421875 C 1.625 -0.566406 1.71875 -0.828125 1.71875 -1.203125 L 1.71875 -6.828125 C 1.71875 -7.203125 1.617188 -7.484375 1.421875 -7.671875 C 1.234375 -7.859375 0.929688 -7.96875 0.515625 -8 L 0.515625 -8.21875 L 3.03125 -8.21875 Z M 5.953125 -1.9375 "/></g></g></g><g fill="#ffffff" fill-opacity="1"><g transform="translate(62.513356, 193.025932)"><g><path d="M 4.203125 -8 C 3.867188 -8 3.613281 -7.96875 3.4375 -7.90625 C 3.257812 -7.851562 3.132812 -7.75 3.0625 -7.59375 C 2.988281 -7.4375 2.953125 -7.210938 2.953125 -6.921875 L 2.953125 -1.203125 C 2.953125 -0.929688 2.992188 -0.722656 3.078125 -0.578125 C 3.171875 -0.441406 3.304688 -0.347656 3.484375 -0.296875 C 3.660156 -0.253906 3.898438 -0.226562 4.203125 -0.21875 L 4.203125 0 L 0.421875 0 L 0.421875 -0.21875 C 0.734375 -0.226562 0.972656 -0.253906 1.140625 -0.296875 C 1.316406 -0.347656 1.445312 -0.441406 1.53125 -0.578125 C 1.613281 -0.722656 1.65625 -0.929688 1.65625 -1.203125 L 1.65625 -6.921875 C 1.65625 -7.210938 1.617188 -7.429688 1.546875 -7.578125 C 1.472656 -7.734375 1.347656 -7.84375 1.171875 -7.90625 C 1.003906 -7.96875 0.753906 -8 0.421875 -8 L 0.421875 -8.21875 L 4.203125 -8.21875 Z M 4.203125 -8 "/></g></g></g><g fill="#ffffff" fill-opacity="1"><g transform="translate(67.115722, 193.025932)"><g><path d="M 7.046875 -6.40625 L 6.84375 -6.40625 C 6.757812 -6.851562 6.609375 -7.1875 6.390625 -7.40625 C 6.179688 -7.632812 5.882812 -7.75 5.5 -7.75 L 2.90625 -7.75 L 2.90625 -4.578125 L 5.03125 -4.578125 C 5.414062 -4.578125 5.6875 -4.671875 5.84375 -4.859375 C 6.007812 -5.046875 6.097656 -5.347656 6.109375 -5.765625 L 6.3125 -5.765625 L 6.3125 -2.875 L 6.109375 -2.875 C 6.109375 -3.289062 6.023438 -3.597656 5.859375 -3.796875 C 5.703125 -3.992188 5.421875 -4.09375 5.015625 -4.09375 L 2.90625 -4.09375 L 2.90625 -1.09375 C 2.90625 -0.6875 3.066406 -0.484375 3.390625 -0.484375 L 5.5 -0.484375 C 5.9375 -0.484375 6.320312 -0.613281 6.65625 -0.875 C 6.988281 -1.144531 7.257812 -1.535156 7.46875 -2.046875 L 7.71875 -2.046875 L 7.046875 0 L 0.4375 0 L 0.4375 -0.21875 C 0.84375 -0.21875 1.140625 -0.285156 1.328125 -0.421875 C 1.515625 -0.566406 1.609375 -0.828125 1.609375 -1.203125 L 1.609375 -7.09375 C 1.609375 -7.414062 1.515625 -7.644531 1.328125 -7.78125 C 1.140625 -7.925781 0.84375 -8 0.4375 -8 L 0.4375 -8.21875 L 6.953125 -8.21875 Z M 7.046875 -6.40625 "/></g></g></g><g fill="#ffffff" fill-opacity="1"><g transform="translate(75.089169, 193.025932)"><g><path d="M 7.859375 -2.15625 L 7.859375 -7.078125 C 7.859375 -7.441406 7.796875 -7.6875 7.671875 -7.8125 C 7.546875 -7.9375 7.3125 -8 6.96875 -8 L 6.671875 -8 L 6.671875 -8.21875 L 9.6875 -8.21875 L 9.6875 -8 L 9.4375 -8 C 9.125 -8 8.898438 -7.976562 8.765625 -7.9375 C 8.628906 -7.90625 8.535156 -7.8125 8.484375 -7.65625 C 8.429688 -7.507812 8.40625 -7.269531 8.40625 -6.9375 L 8.40625 0.09375 L 8.234375 0.09375 L 2.359375 -6.515625 L 2.359375 -1.390625 C 2.359375 -0.941406 2.445312 -0.632812 2.625 -0.46875 C 2.800781 -0.300781 3.113281 -0.21875 3.5625 -0.21875 L 3.5625 0 L 0.59375 0 L 0.59375 -0.21875 L 0.65625 -0.21875 C 1.039062 -0.21875 1.332031 -0.285156 1.53125 -0.421875 C 1.726562 -0.566406 1.828125 -0.828125 1.828125 -1.203125 L 1.828125 -7.046875 C 1.617188 -7.398438 1.382812 -7.644531 1.125 -7.78125 C 0.863281 -7.925781 0.539062 -8 0.15625 -8 L 0.15625 -8.21875 L 2.546875 -8.21875 Z M 7.859375 -2.15625 "/></g></g></g><g fill="#ffffff" fill-opacity="1"><g transform="translate(84.927469, 193.025932)"><g><path d="M 7.6875 -6.359375 L 7.453125 -6.359375 C 7.335938 -7.253906 6.859375 -7.703125 6.015625 -7.703125 L 4.625 -7.703125 L 4.625 -1.125 C 4.625 -0.769531 4.726562 -0.53125 4.9375 -0.40625 C 5.144531 -0.28125 5.441406 -0.21875 5.828125 -0.21875 L 5.828125 0 L 2.140625 0 L 2.140625 -0.21875 C 2.566406 -0.21875 2.875 -0.285156 3.0625 -0.421875 C 3.25 -0.566406 3.34375 -0.828125 3.34375 -1.203125 L 3.34375 -7.703125 L 1.875 -7.703125 C 1.5 -7.703125 1.1875 -7.585938 0.9375 -7.359375 C 0.6875 -7.140625 0.546875 -6.804688 0.515625 -6.359375 L 0.296875 -6.359375 L 0.359375 -8.21875 L 7.625 -8.21875 Z M 7.6875 -6.359375 "/></g></g></g><g fill="#ffffff" fill-opacity="1"><g transform="translate(92.900915, 193.025932)"><g><path d="M 4.609375 -8.40625 C 5.367188 -8.40625 6.066406 -8.210938 6.703125 -7.828125 C 7.335938 -7.441406 7.84375 -6.921875 8.21875 -6.265625 C 8.59375 -5.609375 8.78125 -4.890625 8.78125 -4.109375 C 8.78125 -3.328125 8.59375 -2.609375 8.21875 -1.953125 C 7.84375 -1.296875 7.335938 -0.773438 6.703125 -0.390625 C 6.066406 -0.015625 5.367188 0.171875 4.609375 0.171875 C 3.847656 0.171875 3.148438 -0.015625 2.515625 -0.390625 C 1.878906 -0.773438 1.375 -1.296875 1 -1.953125 C 0.625 -2.609375 0.4375 -3.328125 0.4375 -4.109375 C 0.4375 -4.890625 0.625 -5.609375 1 -6.265625 C 1.375 -6.921875 1.878906 -7.441406 2.515625 -7.828125 C 3.148438 -8.210938 3.847656 -8.40625 4.609375 -8.40625 Z M 1.9375 -4.109375 C 1.9375 -3.335938 2.046875 -2.660156 2.265625 -2.078125 C 2.484375 -1.503906 2.796875 -1.0625 3.203125 -0.75 C 3.609375 -0.4375 4.078125 -0.28125 4.609375 -0.28125 C 5.140625 -0.28125 5.609375 -0.4375 6.015625 -0.75 C 6.421875 -1.0625 6.734375 -1.503906 6.953125 -2.078125 C 7.171875 -2.660156 7.28125 -3.335938 7.28125 -4.109375 C 7.28125 -4.859375 7.171875 -5.523438 6.953125 -6.109375 C 6.742188 -6.691406 6.4375 -7.144531 6.03125 -7.46875 C 5.632812 -7.789062 5.15625 -7.953125 4.59375 -7.953125 C 4.039062 -7.953125 3.566406 -7.785156 3.171875 -7.453125 C 2.773438 -7.128906 2.46875 -6.675781 2.25 -6.09375 C 2.039062 -5.507812 1.9375 -4.847656 1.9375 -4.109375 Z M 1.9375 -4.109375 "/></g></g></g><path stroke-linecap="butt" transform="matrix(0.75055, 0, 0, 0.75, 7.043304, 178.066742)" fill="none" stroke-linejoin="miter" d="M -0.000446706 0.499552 L 575.593301 0.499552 " stroke="#ffffff" stroke-width="1" stroke-opacity="1" stroke-miterlimit="4"/></svg>