<svg xmlns="http://www.w3.org/2000/svg" xmlns:xlink="http://www.w3.org/1999/xlink" width="600" zoomAndPan="magnify" viewBox="0 0 450 299.999988" height="400" preserveAspectRatio="xMidYMid meet" version="1.0"><defs><filter x="0%" y="0%" width="100%" height="100%" id="dc79433985"><feColorMatrix values="0 0 0 0 1 0 0 0 0 1 0 0 0 0 1 0 0 0 1 0" color-interpolation-filters="sRGB"/></filter><g/><mask id="321fe71e3c"><g filter="url(#dc79433985)"><rect x="-45" width="540" fill="#000000" y="-29.999999" height="359.999986" fill-opacity="0.3"/></g></mask><clipPath id="3b06fff2ab"><path d="M 0.375 0.523438 L 95.675781 0.523438 L 95.675781 143.476562 L 0.375 143.476562 Z M 0.375 0.523438 " clip-rule="nonzero"/></clipPath><clipPath id="c5ef0b8fd7"><path d="M 48.023438 0.523438 L 95.675781 0.523438 L 48.023438 143.476562 L 0.375 143.476562 Z M 48.023438 0.523438 " clip-rule="nonzero"/></clipPath><clipPath id="5fe6182d71"><rect x="0" width="96" y="0" height="144"/></clipPath><mask id="ffd493ba9d"><g filter="url(#dc79433985)"><rect x="-45" width="540" fill="#000000" y="-29.999999" height="359.999986" fill-opacity="0.3"/></g></mask><clipPath id="d73292ac76"><path d="M 1.007812 0.523438 L 96.308594 0.523438 L 96.308594 143.476562 L 1.007812 143.476562 Z M 1.007812 0.523438 " clip-rule="nonzero"/></clipPath><clipPath id="ebd31d92ed"><path d="M 48.660156 0.523438 L 96.308594 0.523438 L 48.660156 143.476562 L 1.007812 143.476562 Z M 48.660156 0.523438 " clip-rule="nonzero"/></clipPath><clipPath id="832e4ae5cb"><rect x="0" width="97" y="0" height="144"/></clipPath><mask id="d634734ecf"><g filter="url(#dc79433985)"><rect x="-45" width="540" fill="#000000" y="-29.999999" height="359.999986" fill-opacity="0.3"/></g></mask><clipPath id="05bc0df997"><path d="M 0.96875 0.523438 L 96.269531 0.523438 L 96.269531 143.476562 L 0.96875 143.476562 Z M 0.96875 0.523438 " clip-rule="nonzero"/></clipPath><clipPath id="4a36e21c44"><path d="M 48.617188 0.523438 L 96.269531 0.523438 L 48.617188 143.476562 L 0.96875 143.476562 Z M 48.617188 0.523438 " clip-rule="nonzero"/></clipPath><clipPath id="1aa8b2b750"><rect x="0" width="97" y="0" height="144"/></clipPath></defs><g mask="url(#321fe71e3c)"><g transform="matrix(1, 0, 0, 1, 151, 78)"><g clip-path="url(#5fe6182d71)"><g clip-path="url(#3b06fff2ab)"><g clip-path="url(#c5ef0b8fd7)"><path fill="#6b6058" d="M 0.375 0.523438 L 95.675781 0.523438 L 95.675781 143.476562 L 0.375 143.476562 Z M 0.375 0.523438 " fill-opacity="1" fill-rule="nonzero"/></g></g></g></g></g><g mask="url(#ffd493ba9d)"><g transform="matrix(1, 0, 0, 1, 211, 78)"><g clip-path="url(#832e4ae5cb)"><g clip-path="url(#d73292ac76)"><g clip-path="url(#ebd31d92ed)"><path fill="#343e36" d="M 1.007812 0.523438 L 96.308594 0.523438 L 96.308594 143.476562 L 1.007812 143.476562 Z M 1.007812 0.523438 " fill-opacity="1" fill-rule="nonzero"/></g></g></g></g></g><g mask="url(#d634734ecf)"><g transform="matrix(1, 0, 0, 1, 272, 78)"><g clip-path="url(#1aa8b2b750)"><g clip-path="url(#05bc0df997)"><g clip-path="url(#4a36e21c44)"><path fill="#000000" d="M 0.96875 0.523438 L 96.269531 0.523438 L 96.269531 143.476562 L 0.96875 143.476562 Z M 0.96875 0.523438 " fill-opacity="1" fill-rule="nonzero"/></g></g></g></g></g><g fill="#ffffff" fill-opacity="1"><g transform="translate(7.043304, 126.914462)"><g><path d="M 20.859375 -17.625 C 20.859375 -16.363281 20.515625 -15.21875 19.828125 -14.1875 C 19.140625 -13.15625 18.195312 -12.34375 17 -11.75 C 15.800781 -11.15625 14.453125 -10.859375 12.953125 -10.859375 C 11.296875 -10.859375 9.71875 -11.128906 8.21875 -11.671875 L 8.21875 -3.59375 C 8.21875 -2.40625 8.507812 -1.613281 9.09375 -1.21875 C 9.675781 -0.832031 10.609375 -0.640625 11.890625 -0.640625 L 11.890625 0 L 0.890625 0 L 0.890625 -0.640625 C 2.191406 -0.640625 3.097656 -0.859375 3.609375 -1.296875 C 4.117188 -1.734375 4.375 -2.5 4.375 -3.59375 L 4.375 -20.890625 C 4.375 -22.003906 4.097656 -22.769531 3.546875 -23.1875 C 3.003906 -23.601562 2.191406 -23.8125 1.109375 -23.8125 L 0.890625 -23.8125 L 0.890625 -24.453125 L 11.609375 -24.453125 C 13.148438 -24.453125 14.625 -24.210938 16.03125 -23.734375 C 17.445312 -23.265625 18.601562 -22.515625 19.5 -21.484375 C 20.40625 -20.453125 20.859375 -19.164062 20.859375 -17.625 Z M 8.21875 -22.640625 L 8.21875 -12.921875 C 9.332031 -12.441406 10.34375 -12.203125 11.25 -12.203125 C 12.789062 -12.203125 14.035156 -12.679688 14.984375 -13.640625 C 15.929688 -14.609375 16.40625 -15.882812 16.40625 -17.46875 C 16.40625 -19.132812 15.90625 -20.488281 14.90625 -21.53125 C 13.914062 -22.570312 12.539062 -23.09375 10.78125 -23.09375 C 10 -23.09375 9.144531 -22.941406 8.21875 -22.640625 Z M 8.21875 -22.640625 "/></g></g></g><g fill="#ffffff" fill-opacity="1"><g transform="translate(28.532457, 126.914462)"><g><path d="M 20.859375 -17.625 C 20.859375 -16.363281 20.515625 -15.21875 19.828125 -14.1875 C 19.140625 -13.15625 18.195312 -12.34375 17 -11.75 C 15.800781 -11.15625 14.453125 -10.859375 12.953125 -10.859375 C 11.296875 -10.859375 9.71875 -11.128906 8.21875 -11.671875 L 8.21875 -3.59375 C 8.21875 -2.40625 8.507812 -1.613281 9.09375 -1.21875 C 9.675781 -0.832031 10.609375 -0.640625 11.890625 -0.640625 L 11.890625 0 L 0.890625 0 L 0.890625 -0.640625 C 2.191406 -0.640625 3.097656 -0.859375 3.609375 -1.296875 C 4.117188 -1.734375 4.375 -2.5 4.375 -3.59375 L 4.375 -20.890625 C 4.375 -22.003906 4.097656 -22.769531 3.546875 -23.1875 C 3.003906 -23.601562 2.191406 -23.8125 1.109375 -23.8125 L 0.890625 -23.8125 L 0.890625 -24.453125 L 11.609375 -24.453125 C 13.148438 -24.453125 14.625 -24.210938 16.03125 -23.734375 C 17.445312 -23.265625 18.601562 -22.515625 19.5 -21.484375 C 20.40625 -20.453125 20.859375 -19.164062 20.859375 -17.625 Z M 8.21875 -22.640625 L 8.21875 -12.921875 C 9.332031 -12.441406 10.34375 -12.203125 11.25 -12.203125 C 12.789062 -12.203125 14.035156 -12.679688 14.984375 -13.640625 C 15.929688 -14.609375 16.40625 -15.882812 16.40625 -17.46875 C 16.40625 -19.132812 15.90625 -20.488281 14.90625 -21.53125 C 13.914062 -22.570312 12.539062 -23.09375 10.78125 -23.09375 C 10 -23.09375 9.144531 -22.941406 8.21875 -22.640625 Z M 8.21875 -22.640625 "/></g></g></g><g fill="#ffffff" fill-opacity="1"><g transform="translate(50.02161, 126.914462)"><g><path d="M 22.53125 -19.1875 L 21.859375 -19.1875 C 21.691406 -20.5625 21.1875 -21.582031 20.34375 -22.25 C 19.5 -22.914062 18.222656 -23.25 16.515625 -23.25 L 8.796875 -23.25 L 8.796875 -13.59375 L 14.84375 -13.59375 C 16.125 -13.59375 17.019531 -13.820312 17.53125 -14.28125 C 18.039062 -14.75 18.296875 -15.484375 18.296875 -16.484375 L 18.296875 -17.046875 L 18.9375 -17.046875 L 18.9375 -8.71875 L 18.296875 -8.71875 L 18.296875 -9.140625 C 18.296875 -10.191406 18.046875 -10.957031 17.546875 -11.4375 C 17.046875 -11.925781 16.265625 -12.171875 15.203125 -12.171875 L 8.796875 -12.171875 L 8.796875 -3.5625 C 8.796875 -2.414062 9.078125 -1.640625 9.640625 -1.234375 C 10.210938 -0.835938 11.101562 -0.640625 12.3125 -0.640625 L 12.3125 0 L 1.53125 0 L 1.53125 -0.640625 L 1.75 -0.640625 C 2.8125 -0.640625 3.609375 -0.859375 4.140625 -1.296875 C 4.679688 -1.734375 4.953125 -2.5 4.953125 -3.59375 L 4.953125 -21.03125 C 4.953125 -22.03125 4.675781 -22.742188 4.125 -23.171875 C 3.582031 -23.597656 2.71875 -23.8125 1.53125 -23.8125 L 1.53125 -24.453125 L 22.28125 -24.453125 Z M 22.53125 -19.1875 "/></g></g></g><g fill="#ffffff" fill-opacity="1"><g transform="translate(73.752179, 126.914462)"><g/></g></g><g fill="#ffffff" fill-opacity="1"><g transform="translate(82.646698, 126.914462)"><g><path d="M 8.96875 -24.984375 C 9.78125 -24.984375 10.476562 -24.90625 11.0625 -24.75 C 11.65625 -24.601562 12.265625 -24.394531 12.890625 -24.125 C 13.191406 -24.007812 13.488281 -23.90625 13.78125 -23.8125 C 14.082031 -23.71875 14.351562 -23.671875 14.59375 -23.671875 C 15.164062 -23.671875 15.617188 -24.109375 15.953125 -24.984375 L 16.625 -24.984375 L 16.625 -16.875 L 15.953125 -16.875 C 15.828125 -18.132812 15.445312 -19.28125 14.8125 -20.3125 C 14.1875 -21.34375 13.40625 -22.15625 12.46875 -22.75 C 11.53125 -23.34375 10.53125 -23.640625 9.46875 -23.640625 C 8.300781 -23.640625 7.300781 -23.285156 6.46875 -22.578125 C 5.644531 -21.878906 5.234375 -21.035156 5.234375 -20.046875 C 5.234375 -18.878906 5.800781 -17.867188 6.9375 -17.015625 C 7.75 -16.421875 8.878906 -15.707031 10.328125 -14.875 C 11.609375 -14.09375 12.675781 -13.414062 13.53125 -12.84375 C 14.382812 -12.28125 15.175781 -11.664062 15.90625 -11 C 16.570312 -10.351562 17.097656 -9.613281 17.484375 -8.78125 C 17.878906 -7.957031 18.078125 -7.109375 18.078125 -6.234375 C 18.078125 -5.015625 17.742188 -3.882812 17.078125 -2.84375 C 16.421875 -1.800781 15.515625 -0.976562 14.359375 -0.375 C 13.210938 0.226562 11.953125 0.53125 10.578125 0.53125 C 9.691406 0.53125 8.910156 0.453125 8.234375 0.296875 C 7.554688 0.148438 6.851562 -0.0546875 6.125 -0.328125 C 5.3125 -0.609375 4.707031 -0.75 4.3125 -0.75 C 3.664062 -0.75 3.175781 -0.320312 2.84375 0.53125 L 2.203125 0.53125 L 2.203125 -7.6875 L 2.84375 -7.6875 C 3.25 -5.570312 4.050781 -3.894531 5.25 -2.65625 C 6.445312 -1.425781 7.992188 -0.8125 9.890625 -0.8125 C 11.242188 -0.8125 12.359375 -1.179688 13.234375 -1.921875 C 14.117188 -2.660156 14.5625 -3.585938 14.5625 -4.703125 C 14.5625 -5.265625 14.453125 -5.78125 14.234375 -6.25 C 14.023438 -6.726562 13.671875 -7.242188 13.171875 -7.796875 C 12.722656 -8.265625 12.082031 -8.78125 11.25 -9.34375 C 10.414062 -9.90625 9.3125 -10.597656 7.9375 -11.421875 C 6.769531 -12.140625 5.878906 -12.703125 5.265625 -13.109375 C 4.648438 -13.523438 4.1875 -13.890625 3.875 -14.203125 C 2.664062 -15.429688 2.0625 -16.914062 2.0625 -18.65625 C 2.0625 -19.84375 2.363281 -20.914062 2.96875 -21.875 C 3.570312 -22.832031 4.394531 -23.585938 5.4375 -24.140625 C 6.488281 -24.703125 7.664062 -24.984375 8.96875 -24.984375 Z M 8.96875 -24.984375 "/></g></g></g><g fill="#ffffff" fill-opacity="1"><g transform="translate(102.285788, 126.914462)"><g><path d="M 20.96875 -19.046875 L 20.359375 -19.046875 C 20.117188 -20.398438 19.675781 -21.398438 19.03125 -22.046875 C 18.394531 -22.703125 17.507812 -23.03125 16.375 -23.03125 L 8.65625 -23.03125 L 8.65625 -13.59375 L 14.984375 -13.59375 C 16.117188 -13.59375 16.925781 -13.878906 17.40625 -14.453125 C 17.882812 -15.023438 18.132812 -15.925781 18.15625 -17.15625 L 18.796875 -17.15625 L 18.796875 -8.546875 L 18.15625 -8.546875 C 18.15625 -9.773438 17.914062 -10.6875 17.4375 -11.28125 C 16.96875 -11.875 16.125 -12.171875 14.90625 -12.171875 L 8.65625 -12.171875 L 8.65625 -3.234375 C 8.65625 -2.023438 9.128906 -1.421875 10.078125 -1.421875 L 16.34375 -1.421875 C 17.644531 -1.421875 18.789062 -1.816406 19.78125 -2.609375 C 20.78125 -3.410156 21.585938 -4.570312 22.203125 -6.09375 L 22.953125 -6.09375 L 20.96875 0 L 1.28125 0 L 1.28125 -0.640625 C 2.507812 -0.640625 3.40625 -0.847656 3.96875 -1.265625 C 4.53125 -1.679688 4.8125 -2.457031 4.8125 -3.59375 L 4.8125 -21.109375 C 4.8125 -22.054688 4.53125 -22.742188 3.96875 -23.171875 C 3.40625 -23.597656 2.507812 -23.8125 1.28125 -23.8125 L 1.28125 -24.453125 L 20.6875 -24.453125 Z M 20.96875 -19.046875 "/></g></g></g><g fill="#ffffff" fill-opacity="1"><g transform="translate(126.016357, 126.914462)"><g><path d="M 14.84375 -24.984375 C 16.03125 -24.984375 17.054688 -24.867188 17.921875 -24.640625 C 18.785156 -24.421875 19.625 -24.132812 20.4375 -23.78125 C 21.09375 -23.519531 21.519531 -23.390625 21.71875 -23.390625 C 22 -23.390625 22.269531 -23.535156 22.53125 -23.828125 C 22.789062 -24.128906 22.96875 -24.515625 23.0625 -24.984375 L 23.671875 -24.984375 L 24.28125 -16.734375 L 23.671875 -16.734375 C 23.453125 -18.179688 22.921875 -19.425781 22.078125 -20.46875 C 21.242188 -21.507812 20.210938 -22.296875 18.984375 -22.828125 C 17.765625 -23.367188 16.476562 -23.640625 15.125 -23.640625 C 12.351562 -23.640625 10.128906 -22.644531 8.453125 -20.65625 C 6.773438 -18.675781 5.9375 -15.679688 5.9375 -11.671875 C 5.9375 -9.296875 6.394531 -7.304688 7.3125 -5.703125 C 8.226562 -4.109375 9.425781 -2.925781 10.90625 -2.15625 C 12.394531 -1.382812 13.976562 -1 15.65625 -1 C 17.394531 -1 19.046875 -1.4375 20.609375 -2.3125 C 22.171875 -3.1875 23.394531 -4.363281 24.28125 -5.84375 L 24.8125 -5.484375 C 22.457031 -1.472656 18.992188 0.53125 14.421875 0.53125 C 12.046875 0.53125 9.875 -0.0195312 7.90625 -1.125 C 5.9375 -2.226562 4.375 -3.726562 3.21875 -5.625 C 2.070312 -7.519531 1.5 -9.609375 1.5 -11.890625 C 1.5 -14.285156 2.085938 -16.484375 3.265625 -18.484375 C 4.453125 -20.492188 6.066406 -22.078125 8.109375 -23.234375 C 10.148438 -24.398438 12.394531 -24.984375 14.84375 -24.984375 Z M 14.84375 -24.984375 "/></g></g></g><g fill="#ffffff" fill-opacity="1"><g transform="translate(151.59699, 126.914462)"><g><path d="M 14.84375 -24.984375 C 16.03125 -24.984375 17.054688 -24.867188 17.921875 -24.640625 C 18.785156 -24.421875 19.625 -24.132812 20.4375 -23.78125 C 21.09375 -23.519531 21.519531 -23.390625 21.71875 -23.390625 C 22 -23.390625 22.269531 -23.535156 22.53125 -23.828125 C 22.789062 -24.128906 22.96875 -24.515625 23.0625 -24.984375 L 23.671875 -24.984375 L 24.28125 -16.734375 L 23.671875 -16.734375 C 23.453125 -18.179688 22.921875 -19.425781 22.078125 -20.46875 C 21.242188 -21.507812 20.210938 -22.296875 18.984375 -22.828125 C 17.765625 -23.367188 16.476562 -23.640625 15.125 -23.640625 C 12.351562 -23.640625 10.128906 -22.644531 8.453125 -20.65625 C 6.773438 -18.675781 5.9375 -15.679688 5.9375 -11.671875 C 5.9375 -9.296875 6.394531 -7.304688 7.3125 -5.703125 C 8.226562 -4.109375 9.425781 -2.925781 10.90625 -2.15625 C 12.394531 -1.382812 13.976562 -1 15.65625 -1 C 17.394531 -1 19.046875 -1.4375 20.609375 -2.3125 C 22.171875 -3.1875 23.394531 -4.363281 24.28125 -5.84375 L 24.8125 -5.484375 C 22.457031 -1.472656 18.992188 0.53125 14.421875 0.53125 C 12.046875 0.53125 9.875 -0.0195312 7.90625 -1.125 C 5.9375 -2.226562 4.375 -3.726562 3.21875 -5.625 C 2.070312 -7.519531 1.5 -9.609375 1.5 -11.890625 C 1.5 -14.285156 2.085938 -16.484375 3.265625 -18.484375 C 4.453125 -20.492188 6.066406 -22.078125 8.109375 -23.234375 C 10.148438 -24.398438 12.394531 -24.984375 14.84375 -24.984375 Z M 14.84375 -24.984375 "/></g></g></g><g fill="#ffffff" fill-opacity="1"><g transform="translate(177.177623, 126.914462)"><g><path d="M 12.5 -23.8125 C 11.5 -23.8125 10.738281 -23.722656 10.21875 -23.546875 C 9.695312 -23.367188 9.328125 -23.046875 9.109375 -22.578125 C 8.898438 -22.117188 8.796875 -21.453125 8.796875 -20.578125 L 8.796875 -3.5625 C 8.796875 -2.75 8.925781 -2.132812 9.1875 -1.71875 C 9.445312 -1.3125 9.835938 -1.035156 10.359375 -0.890625 C 10.878906 -0.742188 11.59375 -0.660156 12.5 -0.640625 L 12.5 0 L 1.25 0 L 1.25 -0.640625 C 2.195312 -0.660156 2.925781 -0.742188 3.4375 -0.890625 C 3.945312 -1.035156 4.328125 -1.3125 4.578125 -1.71875 C 4.828125 -2.132812 4.953125 -2.757812 4.953125 -3.59375 L 4.953125 -20.578125 C 4.953125 -21.453125 4.835938 -22.113281 4.609375 -22.5625 C 4.378906 -23.019531 4.007812 -23.335938 3.5 -23.515625 C 2.988281 -23.691406 2.238281 -23.789062 1.25 -23.8125 L 1.25 -24.453125 L 12.5 -24.453125 Z M 12.5 -23.8125 "/></g></g></g><g fill="#ffffff" fill-opacity="1"><g transform="translate(190.875181, 126.914462)"><g><path d="M 13.703125 -24.984375 C 15.953125 -24.984375 18.023438 -24.410156 19.921875 -23.265625 C 21.828125 -22.128906 23.335938 -20.582031 24.453125 -18.625 C 25.566406 -16.675781 26.125 -14.535156 26.125 -12.203125 C 26.125 -9.898438 25.566406 -7.769531 24.453125 -5.8125 C 23.335938 -3.863281 21.828125 -2.316406 19.921875 -1.171875 C 18.023438 -0.0351562 15.953125 0.53125 13.703125 0.53125 C 11.453125 0.53125 9.375 -0.0351562 7.46875 -1.171875 C 5.570312 -2.316406 4.070312 -3.863281 2.96875 -5.8125 C 1.863281 -7.769531 1.3125 -9.898438 1.3125 -12.203125 C 1.3125 -14.535156 1.863281 -16.675781 2.96875 -18.625 C 4.070312 -20.582031 5.570312 -22.128906 7.46875 -23.265625 C 9.375 -24.410156 11.453125 -24.984375 13.703125 -24.984375 Z M 5.765625 -12.203125 C 5.765625 -9.929688 6.085938 -7.929688 6.734375 -6.203125 C 7.390625 -4.484375 8.316406 -3.15625 9.515625 -2.21875 C 10.710938 -1.28125 12.109375 -0.8125 13.703125 -0.8125 C 15.296875 -0.8125 16.695312 -1.28125 17.90625 -2.21875 C 19.113281 -3.15625 20.039062 -4.484375 20.6875 -6.203125 C 21.34375 -7.929688 21.671875 -9.929688 21.671875 -12.203125 C 21.671875 -14.429688 21.347656 -16.410156 20.703125 -18.140625 C 20.066406 -19.878906 19.148438 -21.226562 17.953125 -22.1875 C 16.753906 -23.15625 15.328125 -23.640625 13.671875 -23.640625 C 12.035156 -23.640625 10.625 -23.148438 9.4375 -22.171875 C 8.25 -21.203125 7.335938 -19.847656 6.703125 -18.109375 C 6.078125 -16.378906 5.765625 -14.410156 5.765625 -12.203125 Z M 12.453125 -26.578125 L 11.890625 -26.578125 L 13.703125 -32.59375 L 17.578125 -32.59375 Z M 12.453125 -26.578125 "/></g></g></g><g fill="#ffffff" fill-opacity="1"><g transform="translate(218.305888, 126.914462)"><g><path d="M 23.390625 -6.40625 L 23.390625 -21.078125 C 23.390625 -22.140625 23.195312 -22.851562 22.8125 -23.21875 C 22.4375 -23.59375 21.738281 -23.789062 20.71875 -23.8125 L 19.828125 -23.8125 L 19.828125 -24.453125 L 28.828125 -24.453125 L 28.828125 -23.8125 L 28.078125 -23.8125 C 27.128906 -23.8125 26.453125 -23.75 26.046875 -23.625 C 25.648438 -23.507812 25.375 -23.234375 25.21875 -22.796875 C 25.0625 -22.359375 24.984375 -21.640625 24.984375 -20.640625 L 24.984375 0.28125 L 24.484375 0.28125 L 7.015625 -19.40625 L 7.015625 -4.125 C 7.015625 -2.800781 7.28125 -1.890625 7.8125 -1.390625 C 8.34375 -0.890625 9.265625 -0.640625 10.578125 -0.640625 L 10.578125 0 L 1.75 0 L 1.75 -0.640625 L 1.953125 -0.640625 C 3.097656 -0.640625 3.96875 -0.847656 4.5625 -1.265625 C 5.15625 -1.679688 5.453125 -2.445312 5.453125 -3.5625 L 5.453125 -20.96875 C 4.828125 -22.007812 4.125 -22.742188 3.34375 -23.171875 C 2.5625 -23.597656 1.601562 -23.8125 0.46875 -23.8125 L 0.46875 -24.453125 L 7.578125 -24.453125 Z M 23.390625 -6.40625 "/></g></g></g><g fill="#ffffff" fill-opacity="1"><g transform="translate(247.594069, 126.914462)"><g/></g></g><g fill="#ffffff" fill-opacity="1"><g transform="translate(7.081742, 193.025978)"><g><path d="M 7.6875 -6.359375 L 7.453125 -6.359375 C 7.335938 -7.253906 6.859375 -7.703125 6.015625 -7.703125 L 4.625 -7.703125 L 4.625 -1.125 C 4.625 -0.769531 4.726562 -0.53125 4.9375 -0.40625 C 5.144531 -0.28125 5.441406 -0.21875 5.828125 -0.21875 L 5.828125 0 L 2.140625 0 L 2.140625 -0.21875 C 2.566406 -0.21875 2.875 -0.285156 3.0625 -0.421875 C 3.25 -0.566406 3.34375 -0.828125 3.34375 -1.203125 L 3.34375 -7.703125 L 1.875 -7.703125 C 1.5 -7.703125 1.1875 -7.585938 0.9375 -7.359375 C 0.6875 -7.140625 0.546875 -6.804688 0.515625 -6.359375 L 0.296875 -6.359375 L 0.359375 -8.21875 L 7.625 -8.21875 Z M 7.6875 -6.359375 "/></g></g></g><g fill="#ffffff" fill-opacity="1"><g transform="translate(15.055188, 193.025978)"><g><path d="M 7.078125 -6.078125 C 7.078125 -5.578125 6.90625 -5.144531 6.5625 -4.78125 C 6.226562 -4.414062 5.707031 -4.144531 5 -3.96875 L 6.90625 -1.609375 C 7.132812 -1.328125 7.328125 -1.097656 7.484375 -0.921875 C 7.648438 -0.753906 7.847656 -0.597656 8.078125 -0.453125 C 8.316406 -0.316406 8.582031 -0.238281 8.875 -0.21875 L 8.875 0 L 6.71875 0 L 3.625 -3.859375 L 2.84375 -3.859375 L 2.84375 -1.1875 C 2.84375 -0.832031 2.929688 -0.582031 3.109375 -0.4375 C 3.285156 -0.289062 3.566406 -0.21875 3.953125 -0.21875 L 4 -0.21875 L 4 0 L 0.40625 0 L 0.40625 -0.21875 C 0.789062 -0.21875 1.078125 -0.285156 1.265625 -0.421875 C 1.453125 -0.554688 1.546875 -0.800781 1.546875 -1.15625 L 1.546875 -7.09375 C 1.546875 -7.414062 1.453125 -7.644531 1.265625 -7.78125 C 1.078125 -7.925781 0.789062 -8 0.40625 -8 L 0.40625 -8.21875 L 4.25 -8.21875 C 5.03125 -8.21875 5.695312 -8.039062 6.25 -7.6875 C 6.800781 -7.34375 7.078125 -6.804688 7.078125 -6.078125 Z M 2.84375 -7.59375 L 2.84375 -4.265625 L 3.140625 -4.265625 C 3.941406 -4.265625 4.550781 -4.421875 4.96875 -4.734375 C 5.382812 -5.046875 5.59375 -5.484375 5.59375 -6.046875 C 5.59375 -6.535156 5.429688 -6.945312 5.109375 -7.28125 C 4.796875 -7.625 4.351562 -7.796875 3.78125 -7.796875 C 3.46875 -7.796875 3.15625 -7.726562 2.84375 -7.59375 Z M 2.84375 -7.59375 "/></g></g></g><g fill="#ffffff" fill-opacity="1"><g transform="translate(24.271877, 193.025978)"><g><path d="M 1.375 -1.59375 L 4.4375 -8.578125 L 4.65625 -8.578125 L 7.890625 -1.140625 C 8.003906 -0.867188 8.113281 -0.664062 8.21875 -0.53125 C 8.332031 -0.394531 8.445312 -0.304688 8.5625 -0.265625 C 8.6875 -0.234375 8.851562 -0.21875 9.0625 -0.21875 L 9.0625 0 L 5.6875 0 L 5.6875 -0.21875 C 5.96875 -0.21875 6.179688 -0.269531 6.328125 -0.375 C 6.472656 -0.476562 6.546875 -0.617188 6.546875 -0.796875 C 6.546875 -0.941406 6.492188 -1.128906 6.390625 -1.359375 L 5.765625 -2.765625 L 2.453125 -2.765625 L 1.765625 -1.203125 C 1.691406 -1.035156 1.65625 -0.890625 1.65625 -0.765625 C 1.65625 -0.398438 1.945312 -0.21875 2.53125 -0.21875 L 2.53125 0 L 0.171875 0 L 0.171875 -0.21875 C 0.367188 -0.238281 0.53125 -0.296875 0.65625 -0.390625 C 0.78125 -0.484375 0.890625 -0.613281 0.984375 -0.78125 C 1.085938 -0.957031 1.21875 -1.226562 1.375 -1.59375 Z M 5.578125 -3.21875 L 4.125 -6.5625 L 2.65625 -3.21875 Z M 5.578125 -3.21875 "/></g></g></g><g fill="#ffffff" fill-opacity="1"><g transform="translate(33.488565, 193.025978)"><g><path d="M 7.6875 -6.359375 L 7.453125 -6.359375 C 7.335938 -7.253906 6.859375 -7.703125 6.015625 -7.703125 L 4.625 -7.703125 L 4.625 -1.125 C 4.625 -0.769531 4.726562 -0.53125 4.9375 -0.40625 C 5.144531 -0.28125 5.441406 -0.21875 5.828125 -0.21875 L 5.828125 0 L 2.140625 0 L 2.140625 -0.21875 C 2.566406 -0.21875 2.875 -0.285156 3.0625 -0.421875 C 3.25 -0.566406 3.34375 -0.828125 3.34375 -1.203125 L 3.34375 -7.703125 L 1.875 -7.703125 C 1.5 -7.703125 1.1875 -7.585938 0.9375 -7.359375 C 0.6875 -7.140625 0.546875 -6.804688 0.515625 -6.359375 L 0.296875 -6.359375 L 0.359375 -8.21875 L 7.625 -8.21875 Z M 7.6875 -6.359375 "/></g></g></g><g fill="#ffffff" fill-opacity="1"><g transform="translate(41.462012, 193.025978)"><g><path d="M 1.375 -1.59375 L 4.4375 -8.578125 L 4.65625 -8.578125 L 7.890625 -1.140625 C 8.003906 -0.867188 8.113281 -0.664062 8.21875 -0.53125 C 8.332031 -0.394531 8.445312 -0.304688 8.5625 -0.265625 C 8.6875 -0.234375 8.851562 -0.21875 9.0625 -0.21875 L 9.0625 0 L 5.6875 0 L 5.6875 -0.21875 C 5.96875 -0.21875 6.179688 -0.269531 6.328125 -0.375 C 6.472656 -0.476562 6.546875 -0.617188 6.546875 -0.796875 C 6.546875 -0.941406 6.492188 -1.128906 6.390625 -1.359375 L 5.765625 -2.765625 L 2.453125 -2.765625 L 1.765625 -1.203125 C 1.691406 -1.035156 1.65625 -0.890625 1.65625 -0.765625 C 1.65625 -0.398438 1.945312 -0.21875 2.53125 -0.21875 L 2.53125 0 L 0.171875 0 L 0.171875 -0.21875 C 0.367188 -0.238281 0.53125 -0.296875 0.65625 -0.390625 C 0.78125 -0.484375 0.890625 -0.613281 0.984375 -0.78125 C 1.085938 -0.957031 1.21875 -1.226562 1.375 -1.59375 Z M 5.578125 -3.21875 L 4.125 -6.5625 L 2.65625 -3.21875 Z M 5.578125 -3.21875 "/></g></g></g><g fill="#ffffff" fill-opacity="1"><g transform="translate(50.6787, 193.025978)"><g><path d="M 5.953125 -1.9375 L 8.828125 -8.21875 L 11.328125 -8.21875 L 11.328125 -8 L 11.25 -8 C 10.863281 -8 10.578125 -7.929688 10.390625 -7.796875 C 10.210938 -7.660156 10.125 -7.40625 10.125 -7.03125 L 10.125 -1.1875 C 10.125 -0.832031 10.210938 -0.582031 10.390625 -0.4375 C 10.566406 -0.289062 10.863281 -0.21875 11.28125 -0.21875 L 11.328125 -0.21875 L 11.328125 0 L 7.625 0 L 7.625 -0.21875 L 7.734375 -0.21875 C 8.109375 -0.21875 8.382812 -0.289062 8.5625 -0.4375 C 8.738281 -0.582031 8.828125 -0.835938 8.828125 -1.203125 L 8.828125 -6.890625 L 8.8125 -6.890625 L 5.65625 0 L 5.4375 0 L 2.28125 -6.890625 L 2.25 -6.890625 L 2.25 -1.203125 C 2.25 -0.816406 2.335938 -0.554688 2.515625 -0.421875 C 2.691406 -0.296875 2.988281 -0.226562 3.40625 -0.21875 L 3.40625 0 L 0.515625 0 L 0.515625 -0.21875 L 0.59375 -0.21875 C 0.96875 -0.21875 1.25 -0.285156 1.4375 -0.421875 C 1.625 -0.566406 1.71875 -0.828125 1.71875 -1.203125 L 1.71875 -6.828125 C 1.71875 -7.203125 1.617188 -7.484375 1.421875 -7.671875 C 1.234375 -7.859375 0.929688 -7.96875 0.515625 -8 L 0.515625 -8.21875 L 3.03125 -8.21875 Z M 5.953125 -1.9375 "/></g></g></g><g fill="#ffffff" fill-opacity="1"><g transform="translate(62.513356, 193.025978)"><g><path d="M 4.203125 -8 C 3.867188 -8 3.613281 -7.96875 3.4375 -7.90625 C 3.257812 -7.851562 3.132812 -7.75 3.0625 -7.59375 C 2.988281 -7.4375 2.953125 -7.210938 2.953125 -6.921875 L 2.953125 -1.203125 C 2.953125 -0.929688 2.992188 -0.722656 3.078125 -0.578125 C 3.171875 -0.441406 3.304688 -0.347656 3.484375 -0.296875 C 3.660156 -0.253906 3.898438 -0.226562 4.203125 -0.21875 L 4.203125 0 L 0.421875 0 L 0.421875 -0.21875 C 0.734375 -0.226562 0.972656 -0.253906 1.140625 -0.296875 C 1.316406 -0.347656 1.445312 -0.441406 1.53125 -0.578125 C 1.613281 -0.722656 1.65625 -0.929688 1.65625 -1.203125 L 1.65625 -6.921875 C 1.65625 -7.210938 1.617188 -7.429688 1.546875 -7.578125 C 1.472656 -7.734375 1.347656 -7.84375 1.171875 -7.90625 C 1.003906 -7.96875 0.753906 -8 0.421875 -8 L 0.421875 -8.21875 L 4.203125 -8.21875 Z M 4.203125 -8 "/></g></g></g><g fill="#ffffff" fill-opacity="1"><g transform="translate(67.115722, 193.025978)"><g><path d="M 7.046875 -6.40625 L 6.84375 -6.40625 C 6.757812 -6.851562 6.609375 -7.1875 6.390625 -7.40625 C 6.179688 -7.632812 5.882812 -7.75 5.5 -7.75 L 2.90625 -7.75 L 2.90625 -4.578125 L 5.03125 -4.578125 C 5.414062 -4.578125 5.6875 -4.671875 5.84375 -4.859375 C 6.007812 -5.046875 6.097656 -5.347656 6.109375 -5.765625 L 6.3125 -5.765625 L 6.3125 -2.875 L 6.109375 -2.875 C 6.109375 -3.289062 6.023438 -3.597656 5.859375 -3.796875 C 5.703125 -3.992188 5.421875 -4.09375 5.015625 -4.09375 L 2.90625 -4.09375 L 2.90625 -1.09375 C 2.90625 -0.6875 3.066406 -0.484375 3.390625 -0.484375 L 5.5 -0.484375 C 5.9375 -0.484375 6.320312 -0.613281 6.65625 -0.875 C 6.988281 -1.144531 7.257812 -1.535156 7.46875 -2.046875 L 7.71875 -2.046875 L 7.046875 0 L 0.4375 0 L 0.4375 -0.21875 C 0.84375 -0.21875 1.140625 -0.285156 1.328125 -0.421875 C 1.515625 -0.566406 1.609375 -0.828125 1.609375 -1.203125 L 1.609375 -7.09375 C 1.609375 -7.414062 1.515625 -7.644531 1.328125 -7.78125 C 1.140625 -7.925781 0.84375 -8 0.4375 -8 L 0.4375 -8.21875 L 6.953125 -8.21875 Z M 7.046875 -6.40625 "/></g></g></g><g fill="#ffffff" fill-opacity="1"><g transform="translate(75.089169, 193.025978)"><g><path d="M 7.859375 -2.15625 L 7.859375 -7.078125 C 7.859375 -7.441406 7.796875 -7.6875 7.671875 -7.8125 C 7.546875 -7.9375 7.3125 -8 6.96875 -8 L 6.671875 -8 L 6.671875 -8.21875 L 9.6875 -8.21875 L 9.6875 -8 L 9.4375 -8 C 9.125 -8 8.898438 -7.976562 8.765625 -7.9375 C 8.628906 -7.90625 8.535156 -7.8125 8.484375 -7.65625 C 8.429688 -7.507812 8.40625 -7.269531 8.40625 -6.9375 L 8.40625 0.09375 L 8.234375 0.09375 L 2.359375 -6.515625 L 2.359375 -1.390625 C 2.359375 -0.941406 2.445312 -0.632812 2.625 -0.46875 C 2.800781 -0.300781 3.113281 -0.21875 3.5625 -0.21875 L 3.5625 0 L 0.59375 0 L 0.59375 -0.21875 L 0.65625 -0.21875 C 1.039062 -0.21875 1.332031 -0.285156 1.53125 -0.421875 C 1.726562 -0.566406 1.828125 -0.828125 1.828125 -1.203125 L 1.828125 -7.046875 C 1.617188 -7.398438 1.382812 -7.644531 1.125 -7.78125 C 0.863281 -7.925781 0.539062 -8 0.15625 -8 L 0.15625 -8.21875 L 2.546875 -8.21875 Z M 7.859375 -2.15625 "/></g></g></g><g fill="#ffffff" fill-opacity="1"><g transform="translate(84.927469, 193.025978)"><g><path d="M 7.6875 -6.359375 L 7.453125 -6.359375 C 7.335938 -7.253906 6.859375 -7.703125 6.015625 -7.703125 L 4.625 -7.703125 L 4.625 -1.125 C 4.625 -0.769531 4.726562 -0.53125 4.9375 -0.40625 C 5.144531 -0.28125 5.441406 -0.21875 5.828125 -0.21875 L 5.828125 0 L 2.140625 0 L 2.140625 -0.21875 C 2.566406 -0.21875 2.875 -0.285156 3.0625 -0.421875 C 3.25 -0.566406 3.34375 -0.828125 3.34375 -1.203125 L 3.34375 -7.703125 L 1.875 -7.703125 C 1.5 -7.703125 1.1875 -7.585938 0.9375 -7.359375 C 0.6875 -7.140625 0.546875 -6.804688 0.515625 -6.359375 L 0.296875 -6.359375 L 0.359375 -8.21875 L 7.625 -8.21875 Z M 7.6875 -6.359375 "/></g></g></g><g fill="#ffffff" fill-opacity="1"><g transform="translate(92.900915, 193.025978)"><g><path d="M 4.609375 -8.40625 C 5.367188 -8.40625 6.066406 -8.210938 6.703125 -7.828125 C 7.335938 -7.441406 7.84375 -6.921875 8.21875 -6.265625 C 8.59375 -5.609375 8.78125 -4.890625 8.78125 -4.109375 C 8.78125 -3.328125 8.59375 -2.609375 8.21875 -1.953125 C 7.84375 -1.296875 7.335938 -0.773438 6.703125 -0.390625 C 6.066406 -0.015625 5.367188 0.171875 4.609375 0.171875 C 3.847656 0.171875 3.148438 -0.015625 2.515625 -0.390625 C 1.878906 -0.773438 1.375 -1.296875 1 -1.953125 C 0.625 -2.609375 0.4375 -3.328125 0.4375 -4.109375 C 0.4375 -4.890625 0.625 -5.609375 1 -6.265625 C 1.375 -6.921875 1.878906 -7.441406 2.515625 -7.828125 C 3.148438 -8.210938 3.847656 -8.40625 4.609375 -8.40625 Z M 1.9375 -4.109375 C 1.9375 -3.335938 2.046875 -2.660156 2.265625 -2.078125 C 2.484375 -1.503906 2.796875 -1.0625 3.203125 -0.75 C 3.609375 -0.4375 4.078125 -0.28125 4.609375 -0.28125 C 5.140625 -0.28125 5.609375 -0.4375 6.015625 -0.75 C 6.421875 -1.0625 6.734375 -1.503906 6.953125 -2.078125 C 7.171875 -2.660156 7.28125 -3.335938 7.28125 -4.109375 C 7.28125 -4.859375 7.171875 -5.523438 6.953125 -6.109375 C 6.742188 -6.691406 6.4375 -7.144531 6.03125 -7.46875 C 5.632812 -7.789062 5.15625 -7.953125 4.59375 -7.953125 C 4.039062 -7.953125 3.566406 -7.785156 3.171875 -7.453125 C 2.773438 -7.128906 2.46875 -6.675781 2.25 -6.09375 C 2.039062 -5.507812 1.9375 -4.847656 1.9375 -4.109375 Z M 1.9375 -4.109375 "/></g></g></g><path stroke-linecap="butt" transform="matrix(0.75055, 0, 0, 0.75, 7.043304, 178.066773)" fill="none" stroke-linejoin="miter" d="M -0.000446706 0.49951 L 575.593301 0.49951 " stroke="#ffffff" stroke-width="1" stroke-opacity="1" stroke-miterlimit="4"/><g fill="#ffffff" fill-opacity="1"><g transform="translate(7.043304, 161.002458)"><g><path d="M 20.859375 -17.625 C 20.859375 -16.363281 20.515625 -15.21875 19.828125 -14.1875 C 19.140625 -13.15625 18.195312 -12.34375 17 -11.75 C 15.800781 -11.15625 14.453125 -10.859375 12.953125 -10.859375 C 11.296875 -10.859375 9.71875 -11.128906 8.21875 -11.671875 L 8.21875 -3.59375 C 8.21875 -2.40625 8.507812 -1.613281 9.09375 -1.21875 C 9.675781 -0.832031 10.609375 -0.640625 11.890625 -0.640625 L 11.890625 0 L 0.890625 0 L 0.890625 -0.640625 C 2.191406 -0.640625 3.097656 -0.859375 3.609375 -1.296875 C 4.117188 -1.734375 4.375 -2.5 4.375 -3.59375 L 4.375 -20.890625 C 4.375 -22.003906 4.097656 -22.769531 3.546875 -23.1875 C 3.003906 -23.601562 2.191406 -23.8125 1.109375 -23.8125 L 0.890625 -23.8125 L 0.890625 -24.453125 L 11.609375 -24.453125 C 13.148438 -24.453125 14.625 -24.210938 16.03125 -23.734375 C 17.445312 -23.265625 18.601562 -22.515625 19.5 -21.484375 C 20.40625 -20.453125 20.859375 -19.164062 20.859375 -17.625 Z M 8.21875 -22.640625 L 8.21875 -12.921875 C 9.332031 -12.441406 10.34375 -12.203125 11.25 -12.203125 C 12.789062 -12.203125 14.035156 -12.679688 14.984375 -13.640625 C 15.929688 -14.609375 16.40625 -15.882812 16.40625 -17.46875 C 16.40625 -19.132812 15.90625 -20.488281 14.90625 -21.53125 C 13.914062 -22.570312 12.539062 -23.09375 10.78125 -23.09375 C 10 -23.09375 9.144531 -22.941406 8.21875 -22.640625 Z M 8.21875 -22.640625 "/></g></g></g><g fill="#ffffff" fill-opacity="1"><g transform="translate(28.532457, 161.002458)"><g><path d="M 20.96875 -19.046875 L 20.359375 -19.046875 C 20.117188 -20.398438 19.675781 -21.398438 19.03125 -22.046875 C 18.394531 -22.703125 17.507812 -23.03125 16.375 -23.03125 L 8.65625 -23.03125 L 8.65625 -13.59375 L 14.984375 -13.59375 C 16.117188 -13.59375 16.925781 -13.878906 17.40625 -14.453125 C 17.882812 -15.023438 18.132812 -15.925781 18.15625 -17.15625 L 18.796875 -17.15625 L 18.796875 -8.546875 L 18.15625 -8.546875 C 18.15625 -9.773438 17.914062 -10.6875 17.4375 -11.28125 C 16.96875 -11.875 16.125 -12.171875 14.90625 -12.171875 L 8.65625 -12.171875 L 8.65625 -3.234375 C 8.65625 -2.023438 9.128906 -1.421875 10.078125 -1.421875 L 16.34375 -1.421875 C 17.644531 -1.421875 18.789062 -1.816406 19.78125 -2.609375 C 20.78125 -3.410156 21.585938 -4.570312 22.203125 -6.09375 L 22.953125 -6.09375 L 20.96875 0 L 1.28125 0 L 1.28125 -0.640625 C 2.507812 -0.640625 3.40625 -0.847656 3.96875 -1.265625 C 4.53125 -1.679688 4.8125 -2.457031 4.8125 -3.59375 L 4.8125 -21.109375 C 4.8125 -22.054688 4.53125 -22.742188 3.96875 -23.171875 C 3.40625 -23.597656 2.507812 -23.8125 1.28125 -23.8125 L 1.28125 -24.453125 L 20.6875 -24.453125 Z M 20.96875 -19.046875 "/></g></g></g><g fill="#ffffff" fill-opacity="1"><g transform="translate(52.263026, 161.002458)"><g><path d="M 21.078125 -18.078125 C 21.078125 -16.585938 20.566406 -15.300781 19.546875 -14.21875 C 18.523438 -13.132812 16.96875 -12.332031 14.875 -11.8125 L 20.53125 -4.8125 C 21.21875 -3.957031 21.800781 -3.273438 22.28125 -2.765625 C 22.757812 -2.253906 23.347656 -1.789062 24.046875 -1.375 C 24.742188 -0.957031 25.519531 -0.710938 26.375 -0.640625 L 26.375 0 L 20 0 L 10.78125 -11.46875 L 8.4375 -11.46875 L 8.4375 -3.53125 C 8.4375 -2.476562 8.703125 -1.734375 9.234375 -1.296875 C 9.765625 -0.859375 10.601562 -0.640625 11.75 -0.640625 L 11.890625 -0.640625 L 11.890625 0 L 1.203125 0 L 1.203125 -0.640625 C 2.347656 -0.640625 3.195312 -0.835938 3.75 -1.234375 C 4.3125 -1.640625 4.59375 -2.367188 4.59375 -3.421875 L 4.59375 -21.109375 C 4.59375 -22.054688 4.3125 -22.742188 3.75 -23.171875 C 3.195312 -23.597656 2.347656 -23.8125 1.203125 -23.8125 L 1.203125 -24.453125 L 12.640625 -24.453125 C 14.960938 -24.453125 16.945312 -23.929688 18.59375 -22.890625 C 20.25 -21.847656 21.078125 -20.242188 21.078125 -18.078125 Z M 8.4375 -22.5625 L 8.4375 -12.671875 L 9.328125 -12.671875 C 11.722656 -12.671875 13.535156 -13.140625 14.765625 -14.078125 C 16.003906 -15.015625 16.625 -16.3125 16.625 -17.96875 C 16.625 -19.414062 16.15625 -20.648438 15.21875 -21.671875 C 14.28125 -22.691406 12.957031 -23.203125 11.25 -23.203125 C 10.320312 -23.203125 9.382812 -22.988281 8.4375 -22.5625 Z M 8.4375 -22.5625 "/></g></g></g><g fill="#ffffff" fill-opacity="1"><g transform="translate(79.693723, 161.002458)"><g><path d="M 8.96875 -24.984375 C 9.78125 -24.984375 10.476562 -24.90625 11.0625 -24.75 C 11.65625 -24.601562 12.265625 -24.394531 12.890625 -24.125 C 13.191406 -24.007812 13.488281 -23.90625 13.78125 -23.8125 C 14.082031 -23.71875 14.351562 -23.671875 14.59375 -23.671875 C 15.164062 -23.671875 15.617188 -24.109375 15.953125 -24.984375 L 16.625 -24.984375 L 16.625 -16.875 L 15.953125 -16.875 C 15.828125 -18.132812 15.445312 -19.28125 14.8125 -20.3125 C 14.1875 -21.34375 13.40625 -22.15625 12.46875 -22.75 C 11.53125 -23.34375 10.53125 -23.640625 9.46875 -23.640625 C 8.300781 -23.640625 7.300781 -23.285156 6.46875 -22.578125 C 5.644531 -21.878906 5.234375 -21.035156 5.234375 -20.046875 C 5.234375 -18.878906 5.800781 -17.867188 6.9375 -17.015625 C 7.75 -16.421875 8.878906 -15.707031 10.328125 -14.875 C 11.609375 -14.09375 12.675781 -13.414062 13.53125 -12.84375 C 14.382812 -12.28125 15.175781 -11.664062 15.90625 -11 C 16.570312 -10.351562 17.097656 -9.613281 17.484375 -8.78125 C 17.878906 -7.957031 18.078125 -7.109375 18.078125 -6.234375 C 18.078125 -5.015625 17.742188 -3.882812 17.078125 -2.84375 C 16.421875 -1.800781 15.515625 -0.976562 14.359375 -0.375 C 13.210938 0.226562 11.953125 0.53125 10.578125 0.53125 C 9.691406 0.53125 8.910156 0.453125 8.234375 0.296875 C 7.554688 0.148438 6.851562 -0.0546875 6.125 -0.328125 C 5.3125 -0.609375 4.707031 -0.75 4.3125 -0.75 C 3.664062 -0.75 3.175781 -0.320312 2.84375 0.53125 L 2.203125 0.53125 L 2.203125 -7.6875 L 2.84375 -7.6875 C 3.25 -5.570312 4.050781 -3.894531 5.25 -2.65625 C 6.445312 -1.425781 7.992188 -0.8125 9.890625 -0.8125 C 11.242188 -0.8125 12.359375 -1.179688 13.234375 -1.921875 C 14.117188 -2.660156 14.5625 -3.585938 14.5625 -4.703125 C 14.5625 -5.265625 14.453125 -5.78125 14.234375 -6.25 C 14.023438 -6.726562 13.671875 -7.242188 13.171875 -7.796875 C 12.722656 -8.265625 12.082031 -8.78125 11.25 -9.34375 C 10.414062 -9.90625 9.3125 -10.597656 7.9375 -11.421875 C 6.769531 -12.140625 5.878906 -12.703125 5.265625 -13.109375 C 4.648438 -13.523438 4.1875 -13.890625 3.875 -14.203125 C 2.664062 -15.429688 2.0625 -16.914062 2.0625 -18.65625 C 2.0625 -19.84375 2.363281 -20.914062 2.96875 -21.875 C 3.570312 -22.832031 4.394531 -23.585938 5.4375 -24.140625 C 6.488281 -24.703125 7.664062 -24.984375 8.96875 -24.984375 Z M 8.96875 -24.984375 "/></g></g></g><g fill="#ffffff" fill-opacity="1"><g transform="translate(99.332812, 161.002458)"><g><path d="M 13.703125 -24.984375 C 15.953125 -24.984375 18.023438 -24.410156 19.921875 -23.265625 C 21.828125 -22.128906 23.335938 -20.582031 24.453125 -18.625 C 25.566406 -16.675781 26.125 -14.535156 26.125 -12.203125 C 26.125 -9.898438 25.566406 -7.769531 24.453125 -5.8125 C 23.335938 -3.863281 21.828125 -2.316406 19.921875 -1.171875 C 18.023438 -0.0351562 15.953125 0.53125 13.703125 0.53125 C 11.453125 0.53125 9.375 -0.0351562 7.46875 -1.171875 C 5.570312 -2.316406 4.070312 -3.863281 2.96875 -5.8125 C 1.863281 -7.769531 1.3125 -9.898438 1.3125 -12.203125 C 1.3125 -14.535156 1.863281 -16.675781 2.96875 -18.625 C 4.070312 -20.582031 5.570312 -22.128906 7.46875 -23.265625 C 9.375 -24.410156 11.453125 -24.984375 13.703125 -24.984375 Z M 5.765625 -12.203125 C 5.765625 -9.929688 6.085938 -7.929688 6.734375 -6.203125 C 7.390625 -4.484375 8.316406 -3.15625 9.515625 -2.21875 C 10.710938 -1.28125 12.109375 -0.8125 13.703125 -0.8125 C 15.296875 -0.8125 16.695312 -1.28125 17.90625 -2.21875 C 19.113281 -3.15625 20.039062 -4.484375 20.6875 -6.203125 C 21.34375 -7.929688 21.671875 -9.929688 21.671875 -12.203125 C 21.671875 -14.429688 21.347656 -16.410156 20.703125 -18.140625 C 20.066406 -19.878906 19.148438 -21.226562 17.953125 -22.1875 C 16.753906 -23.15625 15.328125 -23.640625 13.671875 -23.640625 C 12.035156 -23.640625 10.625 -23.148438 9.4375 -22.171875 C 8.25 -21.203125 7.335938 -19.847656 6.703125 -18.109375 C 6.078125 -16.378906 5.765625 -14.410156 5.765625 -12.203125 Z M 5.765625 -12.203125 "/></g></g></g><g fill="#ffffff" fill-opacity="1"><g transform="translate(126.763509, 161.002458)"><g><path d="M 23.390625 -6.40625 L 23.390625 -21.078125 C 23.390625 -22.140625 23.195312 -22.851562 22.8125 -23.21875 C 22.4375 -23.59375 21.738281 -23.789062 20.71875 -23.8125 L 19.828125 -23.8125 L 19.828125 -24.453125 L 28.828125 -24.453125 L 28.828125 -23.8125 L 28.078125 -23.8125 C 27.128906 -23.8125 26.453125 -23.75 26.046875 -23.625 C 25.648438 -23.507812 25.375 -23.234375 25.21875 -22.796875 C 25.0625 -22.359375 24.984375 -21.640625 24.984375 -20.640625 L 24.984375 0.28125 L 24.484375 0.28125 L 7.015625 -19.40625 L 7.015625 -4.125 C 7.015625 -2.800781 7.28125 -1.890625 7.8125 -1.390625 C 8.34375 -0.890625 9.265625 -0.640625 10.578125 -0.640625 L 10.578125 0 L 1.75 0 L 1.75 -0.640625 L 1.953125 -0.640625 C 3.097656 -0.640625 3.96875 -0.847656 4.5625 -1.265625 C 5.15625 -1.679688 5.453125 -2.445312 5.453125 -3.5625 L 5.453125 -20.96875 C 4.828125 -22.007812 4.125 -22.742188 3.34375 -23.171875 C 2.5625 -23.597656 1.601562 -23.8125 0.46875 -23.8125 L 0.46875 -24.453125 L 7.578125 -24.453125 Z M 23.390625 -6.40625 "/></g></g></g><g fill="#ffffff" fill-opacity="1"><g transform="translate(156.044257, 161.002458)"><g><path d="M 4.09375 -4.734375 L 13.203125 -25.515625 L 13.84375 -25.515625 L 23.453125 -3.375 C 23.804688 -2.570312 24.144531 -1.972656 24.46875 -1.578125 C 24.789062 -1.191406 25.128906 -0.9375 25.484375 -0.8125 C 25.835938 -0.695312 26.320312 -0.640625 26.9375 -0.640625 L 26.9375 0 L 16.90625 0 L 16.90625 -0.640625 C 17.757812 -0.640625 18.398438 -0.789062 18.828125 -1.09375 C 19.253906 -1.40625 19.46875 -1.820312 19.46875 -2.34375 C 19.46875 -2.800781 19.3125 -3.359375 19 -4.015625 L 17.15625 -8.21875 L 7.296875 -8.21875 L 5.265625 -3.5625 C 5.023438 -3.082031 4.90625 -2.65625 4.90625 -2.28125 C 4.90625 -1.1875 5.785156 -0.640625 7.546875 -0.640625 L 7.546875 0 L 0.5 0 L 0.5 -0.640625 C 1.09375 -0.710938 1.570312 -0.882812 1.9375 -1.15625 C 2.300781 -1.425781 2.628906 -1.820312 2.921875 -2.34375 C 3.222656 -2.863281 3.613281 -3.660156 4.09375 -4.734375 Z M 16.59375 -9.578125 L 12.25 -19.5 L 7.90625 -9.578125 Z M 16.59375 -9.578125 "/></g></g></g><g fill="#ffffff" fill-opacity="1"><g transform="translate(183.474953, 161.002458)"><g><path d="M 12.453125 -23.8125 C 11.222656 -23.8125 10.335938 -23.613281 9.796875 -23.21875 C 9.265625 -22.832031 9 -22.046875 9 -20.859375 L 9 -2.984375 C 9 -2.492188 9.097656 -2.140625 9.296875 -1.921875 C 9.503906 -1.710938 9.847656 -1.609375 10.328125 -1.609375 L 15.625 -1.609375 C 16.851562 -1.609375 17.867188 -1.765625 18.671875 -2.078125 C 19.484375 -2.398438 20.179688 -2.921875 20.765625 -3.640625 C 21.347656 -4.367188 21.910156 -5.398438 22.453125 -6.734375 L 23.0625 -6.515625 L 21 0 L 1.5 0 L 1.5 -0.640625 L 1.75 -0.640625 C 2.957031 -0.640625 3.828125 -0.851562 4.359375 -1.28125 C 4.890625 -1.707031 5.15625 -2.476562 5.15625 -3.59375 L 5.15625 -20.890625 C 5.15625 -21.984375 4.875 -22.742188 4.3125 -23.171875 C 3.757812 -23.597656 2.890625 -23.8125 1.703125 -23.8125 L 1.5 -23.8125 L 1.5 -24.453125 L 12.453125 -24.453125 Z M 12.453125 -23.8125 "/></g></g></g><g fill="#ffffff" fill-opacity="1"><g transform="translate(207.205535, 161.002458)"><g><path d="M 12.5 -23.8125 C 11.5 -23.8125 10.738281 -23.722656 10.21875 -23.546875 C 9.695312 -23.367188 9.328125 -23.046875 9.109375 -22.578125 C 8.898438 -22.117188 8.796875 -21.453125 8.796875 -20.578125 L 8.796875 -3.5625 C 8.796875 -2.75 8.925781 -2.132812 9.1875 -1.71875 C 9.445312 -1.3125 9.835938 -1.035156 10.359375 -0.890625 C 10.878906 -0.742188 11.59375 -0.660156 12.5 -0.640625 L 12.5 0 L 1.25 0 L 1.25 -0.640625 C 2.195312 -0.660156 2.925781 -0.742188 3.4375 -0.890625 C 3.945312 -1.035156 4.328125 -1.3125 4.578125 -1.71875 C 4.828125 -2.132812 4.953125 -2.757812 4.953125 -3.59375 L 4.953125 -20.578125 C 4.953125 -21.453125 4.835938 -22.113281 4.609375 -22.5625 C 4.378906 -23.019531 4.007812 -23.335938 3.5 -23.515625 C 2.988281 -23.691406 2.238281 -23.789062 1.25 -23.8125 L 1.25 -24.453125 L 12.5 -24.453125 Z M 12.5 -23.8125 "/></g></g></g><g fill="#ffffff" fill-opacity="1"><g transform="translate(220.903105, 161.002458)"><g><path d="M 6.09375 -1.53125 L 16.625 -1.53125 C 17.90625 -1.53125 18.890625 -1.675781 19.578125 -1.96875 C 20.265625 -2.269531 20.796875 -2.757812 21.171875 -3.4375 C 21.554688 -4.113281 21.953125 -5.140625 22.359375 -6.515625 L 22.953125 -6.515625 L 21.859375 0 L 0.75 0 L 0.75 -0.640625 L 16.9375 -23.03125 L 8.6875 -23.03125 C 7.351562 -23.03125 6.351562 -22.890625 5.6875 -22.609375 C 5.03125 -22.335938 4.554688 -21.890625 4.265625 -21.265625 C 3.984375 -20.640625 3.757812 -19.6875 3.59375 -18.40625 L 2.953125 -18.40625 L 3.3125 -24.453125 L 22.703125 -24.453125 Z M 6.09375 -1.53125 "/></g></g></g><g fill="#ffffff" fill-opacity="1"><g transform="translate(244.633663, 161.002458)"><g><path d="M 4.09375 -4.734375 L 13.203125 -25.515625 L 13.84375 -25.515625 L 23.453125 -3.375 C 23.804688 -2.570312 24.144531 -1.972656 24.46875 -1.578125 C 24.789062 -1.191406 25.128906 -0.9375 25.484375 -0.8125 C 25.835938 -0.695312 26.320312 -0.640625 26.9375 -0.640625 L 26.9375 0 L 16.90625 0 L 16.90625 -0.640625 C 17.757812 -0.640625 18.398438 -0.789062 18.828125 -1.09375 C 19.253906 -1.40625 19.46875 -1.820312 19.46875 -2.34375 C 19.46875 -2.800781 19.3125 -3.359375 19 -4.015625 L 17.15625 -8.21875 L 7.296875 -8.21875 L 5.265625 -3.5625 C 5.023438 -3.082031 4.90625 -2.65625 4.90625 -2.28125 C 4.90625 -1.1875 5.785156 -0.640625 7.546875 -0.640625 L 7.546875 0 L 0.5 0 L 0.5 -0.640625 C 1.09375 -0.710938 1.570312 -0.882812 1.9375 -1.15625 C 2.300781 -1.425781 2.628906 -1.820312 2.921875 -2.34375 C 3.222656 -2.863281 3.613281 -3.660156 4.09375 -4.734375 Z M 16.59375 -9.578125 L 12.25 -19.5 L 7.90625 -9.578125 Z M 16.59375 -9.578125 "/></g></g></g><g fill="#ffffff" fill-opacity="1"><g transform="translate(272.064371, 161.002458)"><g><path d="M 27.828125 -12.25 C 27.828125 -9.800781 27.191406 -7.648438 25.921875 -5.796875 C 24.660156 -3.953125 22.945312 -2.523438 20.78125 -1.515625 C 18.625 -0.503906 16.265625 0 13.703125 0 L 1.140625 0 L 1.140625 -0.640625 C 2.421875 -0.660156 3.335938 -0.875 3.890625 -1.28125 C 4.453125 -1.6875 4.734375 -2.457031 4.734375 -3.59375 L 4.734375 -20.921875 C 4.734375 -22.066406 4.4375 -22.832031 3.84375 -23.21875 C 3.25 -23.613281 2.347656 -23.8125 1.140625 -23.8125 L 1.140625 -24.453125 L 14.765625 -24.453125 C 17.492188 -24.453125 19.847656 -23.867188 21.828125 -22.703125 C 23.816406 -21.546875 25.3125 -20.035156 26.3125 -18.171875 C 27.320312 -16.304688 27.828125 -14.332031 27.828125 -12.25 Z M 8.578125 -22.5 L 8.578125 -1.78125 C 9.765625 -1.425781 11.046875 -1.25 12.421875 -1.25 C 14.609375 -1.25 16.53125 -1.691406 18.1875 -2.578125 C 19.851562 -3.472656 21.132812 -4.738281 22.03125 -6.375 C 22.9375 -8.007812 23.390625 -9.894531 23.390625 -12.03125 C 23.390625 -14.164062 22.9375 -16.066406 22.03125 -17.734375 C 21.132812 -19.410156 19.859375 -20.722656 18.203125 -21.671875 C 16.554688 -22.617188 14.664062 -23.09375 12.53125 -23.09375 C 11.101562 -23.09375 9.785156 -22.894531 8.578125 -22.5 Z M 8.578125 -22.5 "/></g></g></g><g fill="#ffffff" fill-opacity="1"><g transform="translate(301.34513, 161.002458)"><g><path d="M 4.09375 -4.734375 L 13.203125 -25.515625 L 13.84375 -25.515625 L 23.453125 -3.375 C 23.804688 -2.570312 24.144531 -1.972656 24.46875 -1.578125 C 24.789062 -1.191406 25.128906 -0.9375 25.484375 -0.8125 C 25.835938 -0.695312 26.320312 -0.640625 26.9375 -0.640625 L 26.9375 0 L 16.90625 0 L 16.90625 -0.640625 C 17.757812 -0.640625 18.398438 -0.789062 18.828125 -1.09375 C 19.253906 -1.40625 19.46875 -1.820312 19.46875 -2.34375 C 19.46875 -2.800781 19.3125 -3.359375 19 -4.015625 L 17.15625 -8.21875 L 7.296875 -8.21875 L 5.265625 -3.5625 C 5.023438 -3.082031 4.90625 -2.65625 4.90625 -2.28125 C 4.90625 -1.1875 5.785156 -0.640625 7.546875 -0.640625 L 7.546875 0 L 0.5 0 L 0.5 -0.640625 C 1.09375 -0.710938 1.570312 -0.882812 1.9375 -1.15625 C 2.300781 -1.425781 2.628906 -1.820312 2.921875 -2.34375 C 3.222656 -2.863281 3.613281 -3.660156 4.09375 -4.734375 Z M 16.59375 -9.578125 L 12.25 -19.5 L 7.90625 -9.578125 Z M 16.59375 -9.578125 "/></g></g></g></svg>